<svg xmlns="http://www.w3.org/2000/svg" viewBox="0 0 121.21 110.41"><defs><style>.cls-2{fill:#fff}</style></defs><g id="Ebene_2" data-name="Ebene 2"><g id="Ebene_1-2" data-name="Ebene 1"><path d="m115.48 34.24 5.73-6.2h-5.75v-1.16h-2.18v-3.64l2.11-3.1-37.39.03.5-2.25h-1.78V17h-3.6l.49-.72a4.18 4.18 0 0 0 .43-.73 4.2 4.2 0 0 0 .13-2c-.09-.9-.31-1.73-.48-2.67a8.35 8.35 0 0 1-.17-1.35c0-.42.29-.3.54-.65a4 4 0 0 0 .53-2.09c0-.31.17-.55 0-.83s-.47-.71-.78-.61-.38.33-.5.49a5.37 5.37 0 0 0-1.51 2.67 5 5 0 0 1-.35 1.5 3.69 3.69 0 0 1-.94 1.08c-1.36.56-1.71 1.42-1.73 2.9a2.67 2.67 0 0 1-.22.71 1 1 0 0 1-1.26.44c-.38-.24-.18-.84-.21-1.28a10.45 10.45 0 0 1 .09-1.34 9.25 9.25 0 0 0-.49-3.14 5 5 0 0 1-.29-2c.14-1 1-2.07.59-3.05a.58.58 0 0 0-.14-.22.53.53 0 0 0-.29-.11 1.33 1.33 0 0 0-1.34.94A7.41 7.41 0 0 0 65 6.66a2 2 0 0 1-.79 1.52c-.51.31-1.6.25-1.65-.34 0-.41.55-1.09.26-1.38s-.48-.14-.73-.2c-.62-.16-.82-.93-.91-1.56a2.88 2.88 0 0 1 .26-2.14c.36-.48 1-.78 1.11-1.38S61.76 0 61.08 0a1.3 1.3 0 0 0-1.23.47 1.24 1.24 0 0 0 .11 1.2 7.42 7.42 0 0 1 .63 1.09A2.72 2.72 0 0 1 60.65 4a8.18 8.18 0 0 1-1.25 3.5 3.14 3.14 0 0 0-.61 1.25 5.63 5.63 0 0 0 .08 1.05 1 1 0 0 1-.35.95 31.31 31.31 0 0 1 0-3.58 3.5 3.5 0 0 0-.09-1.24 1.11 1.11 0 0 0-.87-.8 1.19 1.19 0 0 0-1.13 1c-.14.52.2 1.12.17 1.66-.07 1.27-1 2.43-.95 3.7a25.34 25.34 0 0 1 .35 2.86c0 .32-.2.71-.52.72s-.55-.58-.56-1a4.05 4.05 0 0 0-1-2.65c-.49-.51-1.41-.66-1.65-1.33-.63-1.77-1.05-3.18-2.39-4.09a1.31 1.31 0 0 0-.92.16.31.31 0 0 0 0 .17v2.13a1.3 1.3 0 0 0 .14.68c.22.34.72.45.85.83s-.16.71-.27 1.07a7.71 7.71 0 0 0 0 1.65 9.18 9.18 0 0 1-.23 1c-.21 1.09.27 2.22.31 3.31h-3.68v1.14l-2-.11.61 2.08H7.12l2.72 3.3v3.77H7.48l.06 1H1.68l5.69 6.13-.09 50.54h6.66V40.18h12.54v44.67h6.66V40.21h12.1v44.64h6.66V40.23h18.2v44.62h6.66V40.27h12.32v44.58h6.66V40.3h13v44.55h6.66Z" style="fill:#6ab02e"/><path class="cls-2" d="M112.91 92.26H92c-2.6 0-3 .71-3.18 1.43l-1.6 6h-7.78l1.41-5.05 2.88-10.8c.53-2 3.15-3.3 5.67-3.3h30.46l-1.2 4.69H94.39c-4.91 0-4.91 2.78 0 2.78H114ZM47 95h18.73c4.91 0 4.91-2.78 0-2.78h-18Zm1.85-7h18.28c4.92 0 4.91-2.78 0-2.78H49.62Zm-6.18 0 .73-2.78 1.22-4.65h26.57a22.24 22.24 0 0 1 2.68 0 8.85 8.85 0 0 1 4.7 1.72c3 2.4 1.45 6.53-4.11 7.9 7.47 1.67 3.32 9.51-4.51 9.51H39.64l.53-2 .63-2.41.06-.24.73-2.78ZM7.4 95h18.69c4.91 0 4.91-2.78 0-2.78h-18Zm1.85-7h18.24c4.92 0 4.91-2.78 0-2.78H10Zm-6.18 0 .73-2.78L5 80.54h26.55a22.26 22.26 0 0 1 2.68 0 8.86 8.86 0 0 1 4.7 1.72c3 2.4 1.44 6.53-4.11 7.9 7.47 1.67 3.32 9.51-4.51 9.51H0l.53-2 .63-2.41.07-.26.77-2.78ZM4.75 110.31l1.16-5.53h1.71a4.62 4.62 0 0 1 .69 0 1.73 1.73 0 0 1 .62.22 1.08 1.08 0 0 1 .39.44 1.35 1.35 0 0 1 .14.61 1.33 1.33 0 0 1-.25.8 1.53 1.53 0 0 1-.77.53 1.33 1.33 0 0 1 .67.44 1.12 1.12 0 0 1 .22.69 1.63 1.63 0 0 1-.26.88 1.79 1.79 0 0 1-.69.65 2 2 0 0 1-1 .23Zm.87-.63h1.26a4.28 4.28 0 0 0 .67 0 1.48 1.48 0 0 0 .57-.21 1 1 0 0 0 .34-.38 1.06 1.06 0 0 0 .13-.5.72.72 0 0 0-.24-.59 1.52 1.52 0 0 0-.93-.2H6Zm.53-2.54h1.12a2 2 0 0 0 1.16-.26.87.87 0 0 0 .35-.75.73.73 0 0 0-.11-.4.64.64 0 0 0-.29-.25 2 2 0 0 0-.69-.08H6.51ZM13.87 110.31l1.13-5.53h.74l-1.15 5.53ZM19.78 110.31l1.15-5.53h.74l-.55 2.66 3-2.66h1L22.59 107l1.88 3.28h-.83l-1.59-2.8-1.16 1-.38 1.8ZM28.8 110.31l1.2-5.53h4l-.13.63h-3.31l-.36 1.72h3.17l-.13.63h-3.17l-.4 1.92h3.48l-.13.63ZM52.65 108.13l.13-.63h2.42l-.47 2.25a4.36 4.36 0 0 1-1 .47 3.86 3.86 0 0 1-1.15.18 2.2 2.2 0 0 1-1.8-.73 2.42 2.42 0 0 1-.5-1.58 3.76 3.76 0 0 1 .44-1.81 3 3 0 0 1 1.11-1.21 2.9 2.9 0 0 1 1.49-.39 2.52 2.52 0 0 1 1.06.21 1.72 1.72 0 0 1 .72.57 2.39 2.39 0 0 1 .36.93l-.72.08a1.47 1.47 0 0 0-.49-.87 1.43 1.43 0 0 0-.94-.3 2.07 2.07 0 0 0-1.12.33 2.25 2.25 0 0 0-.83 1 3.46 3.46 0 0 0-.31 1.5 1.75 1.75 0 0 0 .41 1.26 1.51 1.51 0 0 0 1.14.43 3.14 3.14 0 0 0 1.55-.48l.25-1.19ZM59.7 110.31l1.16-5.53h4l-.13.63h-3.26l-.36 1.72h3.17l-.13.63H61l-.4 1.92h3.48l-.13.63ZM68.73 110.31l1.16-5.53h2.32a3.59 3.59 0 0 1 1 .11 1 1 0 0 1 .56.43 1.46 1.46 0 0 1 .2.8 1.53 1.53 0 0 1-.44 1.12 2.43 2.43 0 0 1-1.43.58 2.07 2.07 0 0 1 .46.44 5 5 0 0 1 .56 1l.42 1h-.83l-.4-1a4.84 4.84 0 0 0-.49-1 1 1 0 0 0-.38-.37 1.68 1.68 0 0 0-.64-.09H70l-.51 2.46Zm1.38-3.06h1.92a1.79 1.79 0 0 0 .69-.19 1.08 1.08 0 0 0 .42-.4 1 1 0 0 0 .15-.54.79.79 0 0 0-.11-.42.56.56 0 0 0-.29-.24 2 2 0 0 0-.6-.06H70.5ZM78.15 110.31l1.15-5.53h.91l.56 3.58a13.28 13.28 0 0 1 .14 1.35 14.68 14.68 0 0 1 .77-1.51l1.94-3.42h.92l-1.15 5.53h-.73l.58-2.69a21.66 21.66 0 0 1 .57-2.09q-.24.54-.59 1.16l-2.06 3.62h-.71l-.55-3.55a11.18 11.18 0 0 1-.11-1.13q-.1.73-.18 1.15l-.74 3.53ZM88 110.31l3.13-5.53H92l.91 5.53h-.72l-.27-1.59h-2.27l-.89 1.59Zm2-2.16h1.8l-.22-1.39q-.12-.83-.15-1.38a10.08 10.08 0 0 1-.55 1.13ZM97.5 110.31l1.16-5.53h.72l.93 2.07q.43 1 .67 1.6.14.38.33 1 .1-.7.26-1.44l.68-3.25h.75l-1.15 5.53h-.73l-1.37-3.2q-.37-.84-.57-1.49-.06.54-.22 1.32l-.7 3.36ZM108.72 110.31l.45-2.14-1.7-3.39h.79l.82 1.61q.27.53.52 1.13a7.88 7.88 0 0 1 .76-1.12l1.3-1.62h.88l-2.64 3.45-.43 2.08Z"/></g></g></svg>