<svg xmlns="http://www.w3.org/2000/svg" viewBox="0 0 144.17 230.53"><defs><style>.cls-1{fill:#fff}.cls-2,.cls-4{fill:#dda800}.cls-2,.cls-5{fill-rule:evenodd}.cls-3,.cls-5{fill:#1a171b}</style></defs><g id="Ebene_2" data-name="Ebene 2"><g id="Ebene_2-2" data-name="Ebene 2"><path class="cls-1" d="M31.38 46.42c12-6.27 27.33-12.59 40.42-12.3 19.31.42 45.6 16.14 60.63 28l-1.33 60.56c-.82 37.5-42.5 78.56-63 78.11S7.85 157.53 8.68 120L10 59.48a194.81 194.81 0 0 1 21.38-13.06m1.21 2.31a193.4 193.4 0 0 0-20 12.1l-1.3 59.26c-.8 36.51 38.3 77.73 56.92 78.13s59.49-39.05 60.29-75.55l1.31-59.26c-14.63-11.25-39.66-26.28-58.06-26.69-12.39-.27-27.25 5.77-39.16 12"/><path class="cls-2" d="M72 25.65c22.32.49 50.54 17.88 65.69 29.87l3.31 2.62-1.43 64.77c-.89 40.71-45.13 87-71.6 86.39S-.69 160.56.21 119.85l1.42-64.77a255 255 0 0 1 25.82-16.16C39.56 32.57 56.59 25.31 72 25.65M4.77 120l1.37-62.56A220.25 220.25 0 0 1 29.56 43c12-6.31 28.17-13.06 42.33-12.75 20.7.45 47.88 16.94 63 28.89l1.53 1.21-1.42 62.46c-.86 39-43.73 82.44-67 81.93S3.91 158.94 4.77 120"/><path class="cls-2" d="m109.8 178.72 7.91 3a1.51 1.51 0 0 0 1.41-.32l7.58-8a1.25 1.25 0 0 0-.48-2.11l-6.22-2.37 7-8.18a1.27 1.27 0 0 0-.37-2l-1.41-.77-.6-.32q1.09-2 2.1-4l.68.36 1.41.77a5.83 5.83 0 0 1 1.66 8.95l-2.67 3.13 1.24.8a5.8 5.8 0 0 1 1 8.9l-7.59 8a6 6 0 0 1-6.34 1.44l-9.6-3.65c1.12-1.18 2.22-2.38 3.31-3.62m-95.24-21.57c-2.34.93-4.4 1.64-4.4 1.64a1.39 1.39 0 0 0-.87 1.36l.1 1s.07.7.12 1.58a18.35 18.35 0 0 1 0 2.68 18.52 18.52 0 0 1-.76 3.14c-.33 1-.62 1.78-.63 1.81l-1 2.7a1.24 1.24 0 0 0 1.66 1.69l9-3.3-1.56 5.73a1.27 1.27 0 0 0 1.17 1.64l1.6.1a82.39 82.39 0 0 0 10.3 0q1.85 2.19 3.75 4.25a83.79 83.79 0 0 1-14.33.28l-1.6-.1a5.83 5.83 0 0 1-5.07-3.61l-.47-1.15-1.18.43a5.8 5.8 0 0 1-7.47-7.64l1.05-2.69s.26-.69.53-1.55A14.52 14.52 0 0 0 5 165a12.56 12.56 0 0 0 0-2c0-.75-.1-1.33-.1-1.35l-.11-1a6 6 0 0 1 3.92-6.15s1.79-.61 3.88-1.42c.63 1.37 1.31 2.74 2 4.1"/><path d="m35.15 157.6-2.48.94-.77 2.46a99 99 0 0 0 12.57-2c7-1.55 14-3.73 21.72-6.14 19.74-6.15 40.76-4.84 59 5.11l1.41.77a1.26 1.26 0 0 1 .36 2l-7 8.18 6.18 2.36a1.24 1.24 0 0 1 .48 2.11l-7.58 8a1.51 1.51 0 0 1-1.41.32l-16.36-6.23a1.38 1.38 0 0 1-.82-1.46l.15-.82a1.29 1.29 0 0 1 .26-1.69 2 2 0 0 1 .74-.73l2.61-2.58a59.62 59.62 0 0 0-22.3-.2c-10.9 1.75-21.41 5.45-32.18 7.67-5.68 1.18-10.44 2.18-15.21 2.8a79.05 79.05 0 0 1-15.63.5l-1.59-.1a1.27 1.27 0 0 1-1.18-1.64l1.56-5.73-8.95 3.3a1.24 1.24 0 0 1-1.66-1.69l1-2.7s.3-.8.63-1.81a18.52 18.52 0 0 0 .76-3.14 18.35 18.35 0 0 0 0-2.68c0-.88-.12-1.56-.12-1.58l-.1-1a1.39 1.39 0 0 1 .87-1.36 83.77 83.77 0 0 0 9-3.68 15.18 15.18 0 0 1 7.26-1.24c2.08.07 8.51 1.22 8.51 1.22a1.27 1.27 0 0 1 .23 2.5"/><path class="cls-2" d="m29.9 158.67-1 3.18c-1.9.11-3.84.15-5.85.14l.37-1.17ZM12 160.92a28.72 28.72 0 0 1 .1 4.83 28.8 28.8 0 0 1-1.55 5.6l8.72-3.22 2.22-8.13 8.33-3.14s-6.19-1.12-9.46.6a73.29 73.29 0 0 1-8.36 3.46m93 10.26 2.8-2.76c1.57.45 3.17 1 4.78 1.6v1.21Zm-2.22 2.08 15 5.73 5.65-6-6.38-2.44-3 2.69Zm-80.35-9.32c16.54.21 28.88-3.7 44.53-8.57 19.14-6 39.42-4.67 57 4.91l-7.78 9.13c-24.81-11.11-45.38-.76-67 3.7-11.22 2.32-18.8 4-30.16 3.25Z"/><path class="cls-1" d="M80.16 75.69a10.57 10.57 0 0 1-.4 1.54 18.18 18.18 0 0 1-1.31 2.87c-.23.42-.48.85-.74 1.28a15.48 15.48 0 0 1 4.94-.56 10.78 10.78 0 0 1-2.49-5.13M56.23 79a4.34 4.34 0 0 1-.23 1.2c-.1.42-.19.8-.26 1.12.32.17.77.49 1.15.73l.35.21a2.3 2.3 0 0 0 .45-.2c.62-.33 1.2-.69 1.76-1a7.32 7.32 0 0 1-3.26-2M78.79 52a2.56 2.56 0 0 1 3.22.9c2.26 2.65 4.43 5.3 6.83 7.88 2.28 2.43 9.81 9.38 13.84 13.54 2.74 2.8 5.08 5.61 6.32 9.63a14 14 0 0 1-.22 9.53 2.71 2.71 0 0 1 2.22 2.38 37 37 0 0 1 .74 3.93 20 20 0 0 1-1.2 8.1 14.51 14.51 0 0 1 5.69 4.8c2.62 3.73 2.25 7.88.45 11.68-2 4.13-6.14 8.31-11.18 9.6-.77.2-1.76.42-2.6.61l-.77.18a13 13 0 0 1-.85 1 9.39 9.39 0 0 1-1.09 1 14.66 14.66 0 0 1-.38 2.79c-1.14 3.82-5.64 5.38-8.14 5.79-1.78.27-5.75.19-7.51-.75a3.68 3.68 0 0 1-.76-.57l-.4-.39c-.27-.28-.62-.67-1-1.08L80.54 141a28.32 28.32 0 0 1-4.52 0c-6.68-.56-15.7-3.77-18.7-11.39a18.12 18.12 0 0 1-.32-12.97 25.73 25.73 0 0 1-5.07-3.72c-2.7-2.54-6.48-8.1-7.41-12.34-.16-.71-.35-1.66-.53-2.46l-.12-.53a8.19 8.19 0 0 1-3.38-7 9.4 9.4 0 0 1 .23-1.38c.1-.44.22-.94.34-1.44l.33-1.36.08-.34c0-.17-.19-.54-1-1.23a16.2 16.2 0 0 0-1.56-1.09c-.62-.4-1.22-.76-1.7-1.08a9.33 9.33 0 0 1-4-5.52c-.18-.67-.34-1.53-.49-2.32l-.19-.93a2.69 2.69 0 0 0-.1-.38c-.22-.54-.47-1.07-.67-1.49l-.3-.66a3.08 3.08 0 0 1-.17-2 3 3 0 0 1 1.58-1.71l.83-.38c.55-.24 1.26-.54 1.89-.84 2.84-1.37 7.15-6.67 9.4-9.51a3.33 3.33 0 0 1 2.79-.87c2 .41 2.08 2.32 1.5 3.6-1 2.41-1.34 3.37-1.11 4.63A3.94 3.94 0 0 0 50 67.17c1.19.72 2 1 2.64 1.4a7 7 0 0 1 2 1.67c.09-.2.18-.4.28-.6.91-1.81 2.54-3.77 4.08-6.55a8 8 0 0 0 1.24-5.37A6.42 6.42 0 0 0 59 54.59a14.83 14.83 0 0 0-1.35-1.52c-.59-.6-1.27-1.24-2-2a2.49 2.49 0 0 1-.38-3.51 3.13 3.13 0 0 1 2.33-1c3.65.23 8.07.43 10.89-.26a4.35 4.35 0 0 0 2.12-1.18 2.8 2.8 0 0 1 3.7-.19l.77.56c.29.21.54.41.77.61a7.16 7.16 0 0 1 1.36 1.61A11.84 11.84 0 0 1 78.79 52m-5.48 17.4c.88-.36 1.67-.71 2-.84a4.47 4.47 0 0 1 1-.29 4.15 4.15 0 0 1 2.27.14 46.29 46.29 0 0 0 .42-5.75 18.56 18.56 0 0 0-.39-3.31 17.81 17.81 0 0 1-1.75 5.07 18.9 18.9 0 0 1-1 1.59l-1.41 1.89Z"/><path class="cls-3" d="m108 96.14-3.3.27c-.32 0-.32 0-.16-.24 2.47-3.67 3.29-7.06 2-11.28-1.07-3.44-3.06-5.9-5.72-8.63-4-4.17-11.59-11.13-13.87-13.57-2.44-2.63-4.66-5.33-7-8-.19-.24-.19-.24-.11.07a25.78 25.78 0 0 1 1.66 8.04c0 4.27-1.2 8.79-.7 12.06.46 3.11 1.37 4.28 3.52 6.9.19.25.16.25-.13.22-3.12-.41-4.57-.12-8 .84-.28.08-.32.05-.13-.2 2.26-3.71 4.56-7.36 2.63-10.81a1.76 1.76 0 0 0-1.93-.88 2.73 2.73 0 0 0-.56.16c-.7.29-3.93 1.8-5.2 1.79s-1.38-1.3-1.12-2.39a4.43 4.43 0 0 1 .38-.93c.5-.93 3.75-5 4.4-6.2 2-3.54 2.78-10.36.36-14.14a6.82 6.82 0 0 0-2.26-2.1c-.24-.18-.3-.18-.51 0A6.81 6.81 0 0 1 69 48.91c-3.26.79-8 .54-11.57.32-.28 0-.31 0-.09.21 3.11 3 4.85 4.48 5.35 8.07a10.42 10.42 0 0 1-1.53 7c-3 5.48-6.42 7.7-3.8 12.07A5.41 5.41 0 0 0 62 79.14c.4 0 5.94-.09 7.47.57 1.17.5 1.38 1.9 1.43 3.2a12.27 12.27 0 0 1-.31 2.57c-.18.27-1.47 1.1-2.47 1.93a4.83 4.83 0 0 0-.78.73c-.21.22-.21.22-.18-.07.44-2.67.21-4.81-2.27-5.7-2.11-.78-3.76.92-6 2.08-1.94 1-2.45.49-4.77-1.07a1.69 1.69 0 0 1-1-1.66c0-.58.72-3.15 1.07-4.56a5.34 5.34 0 0 0-1.07-4.48C51.9 70.8 51 71 48.61 69.48a6.52 6.52 0 0 1-3-4.57c-.38-2.11.29-3.78 1.28-6.12.13-.27.13-.27-.09 0-2.07 2.6-6.7 8.44-10.2 10.12a32.34 32.34 0 0 0-3 1.4c0 .15.6 1.34 1.07 2.48.3.76.54 2.67.88 3.91a6.76 6.76 0 0 0 3 4.09C40.4 82 44 83.78 44 86.27c0 .66-1 3.83-1 4.61a5.66 5.66 0 0 0 2.16 4.7 5.18 5.18 0 0 1 .86.63 33.24 33.24 0 0 1 1 4c.8 3.61 4.23 8.75 6.67 11.06a19.36 19.36 0 0 0 6.27 4.07c.27.09.3.15.18.42-1.89 4.43-2.22 8.47-.43 13 2.46 6.23 10.17 9.26 16.57 9.79a23.28 23.28 0 0 0 5-.06.51.51 0 0 1 .57.21 51.68 51.68 0 0 0 3.49 3.84c1 .55 4.32.74 5.94.49 2.43-.4 5.44-1.72 6.12-4a7.67 7.67 0 0 0 .11-2.84c0-.32 0-.35.22-.54a12.73 12.73 0 0 0 1.7-1.41 16 16 0 0 1 1.32-1.52c.24-.2 2.63-.66 4.13-1 4.17-1.07 7.8-4.63 9.53-8.24 1.55-3.27 1.69-6.4-.24-9.16a12.06 12.06 0 0 0-7.14-4.81c-.29-.06-.29-.09-.08-.31 1.92-1.89 2.49-6.93 2.29-9a36.77 36.77 0 0 0-.72-3.75c-.05-.31-.08-.34-.4-.31"/><path class="cls-1" d="M77.16 101.44h-.54c-.32 0-.35 0-.22-.19.33-.54.53-.56.95-.08.15.16.13.2-.19.22M73.34 97.86l-.45.53h-.14l-1.08-1.87a.94.94 0 0 1-.18-.34s.24.09.48.22c.46.33.89.67 1.33 1 .22.22.22.27 0 .49M90.4 98.64 89 97.25c-.19-.18-.19-.24.06-.44l4-3.07c.25-.17.3-.17.46 0l2.33 2.56c.22.24.19.27-.08.44a41.26 41.26 0 0 1-4.87 2c-.31.12-.37.09-.56-.12M76.63 100.24a15.91 15.91 0 0 0-2.58-2.55c-.25-.18-.25-.24-.07-.46l2.59-2.93c.18-.22.24-.22.49 0l3.1 2.52c.24.18.25.23 0 .43l-3.1 3.05c-.21.22-.27.23-.46 0M88.37 97.19c-1.13 1-2.47 2.29-3.42 3a.86.86 0 0 1-.36.2c-.17.07-.2 0-.42-.16l-3.23-3c-.19-.21-.19-.24 0-.46l3.56-3.16c.21-.19.27-.19.49 0l3.36 3.22c.21.18.22.24 0 .43M72.22 91.34l-2.07 2.57c-.18.22-.21.22-.43 0l-2-1.88c-.22-.18-.22-.24 0-.49A9.29 9.29 0 0 1 70 89.39a16.47 16.47 0 0 1 2.23 1.46c.22.22.22.25 0 .49M96.91 90.94l-3.21 2.17a.33.33 0 0 1-.49 0l-3.48-3.23c-.22-.21-.22-.24 0-.46a1.74 1.74 0 0 1 .49-.44A15.22 15.22 0 0 1 93.06 87a18.66 18.66 0 0 1 3.1 2.6 7.65 7.65 0 0 1 .79.83c.2.25.2.3 0 .47M65.75 90.35c-.15 0-.23 0-.14-.28a3.61 3.61 0 0 1 .53-.88c.21-.25.24-.28.27-.28s.14 0 .15.1 0 .09-.17.36L66 90c-.15.24-.18.28-.23.31M89 89.81a38.6 38.6 0 0 0-3.83 3c-.21.22-.27.23-.52 0l-3.06-2.49c-.22-.19-.22-.22 0-.41L85.33 87a.31.31 0 0 1 .49 0l3.12 2.42c.25.19.25.21 0 .41M80.55 90.39l-3.49 3.21c-.21.22-.27.22-.49 0a19.34 19.34 0 0 0-2.77-2 3 3 0 0 0-.63-.38c-.3-.13-.31-.15-.12-.4a34 34 0 0 1 3.66-3.25c.24-.19.3-.2.57 0A3.46 3.46 0 0 1 78 88c.8.6 1.72 1.28 2.56 2 .22.18.22.24 0 .43M64.6 88l.4 1.48c.08.31.09.34 0 .35-.29 0-.54-.25-1.07-.72a3 3 0 0 0-.61-.41c-.28-.13-.31-.15-.28-.18l.08-.1a4.64 4.64 0 0 1 1.21-.7s0 0 .06 0 .06 0 .14.31M68.17 88.13c.08-.1.16-.16.24-.25a16.93 16.93 0 0 1 4.34-2.73c.25-.14.33-.15.58 0l.7.43c.21.13.21.15 0 .35l-3.72 2.85a.49.49 0 0 1-.54.1l-1.32-.53c-.3-.12-.33-.14-.25-.26M62.7 85.35c.26-.11.43-.13.35 0l-1.5 1.8c-.13.15-.24.28-.29.28h-.09a1.09 1.09 0 0 1-.33-.18l-.84-.53c-.24-.15-.24-.18 0-.29ZM43.67 90.13a19 19 0 0 1 1.09-3.64c.05-.09.18-.3.29-.34s0 0 .05.31l.16 4.32c0 .29 0 .29-.24.22l-1.11-.43c-.27-.09-.3-.15-.24-.44M85.24 86.62l-3.39-2.25c-.25-.19-.25-.22 0-.38A17.4 17.4 0 0 1 84 82.66c.57-.16 3 .7 5.11 1.68.27.13.27.15 0 .29-.94.51-1.88 1.14-2.73 1.61a2.86 2.86 0 0 0-.58.34c-.22.19-.27.19-.55 0M80.82 84.48l-3.49 2.63c-.24.16-.3.17-.55 0-1.86-1.2-2.42-1.33-1.84-1.72a30.87 30.87 0 0 1 3.54-2.26.51.51 0 0 1 .6 0 18.23 18.23 0 0 1 1.67.9 1.67 1.67 0 0 1 .24.15c.1.11.07.14-.17.31M74.2 83.47v-.12c0-.06.25-.07.34 0s0 .12 0 .12a.65.65 0 0 1-.34 0M75.29 83v.12l-.17.07-.34.08c-.23 0-.26.06-.2 0a1.51 1.51 0 0 1 .63-.34c.06 0 .06 0 .07.08M61 84a.61.61 0 0 1-.15.27 16.26 16.26 0 0 0-1.05 2c-.13.27-.15.3-.21.34s-.05 0-.14 0l-1.1-.66a1.1 1.1 0 0 1-.31-.21s.08-.1.27-.2l2.38-1.32c.27-.17.3-.17.31-.11M66.66 85a2 2 0 0 1 .08.94c0 .15-.65.46-1.07.67s-.74.47-.86.42-.2-.68-.38-1.07-.54-.65-.59-.9a7.86 7.86 0 0 1 .89-2.18c.33-.15 1.08.54 1.41 1 .13.22.27.44.41.71a1.73 1.73 0 0 1 .11.4M73.15 84.05l-1.83 1c-.25.14-.3.14-.32 0a1.43 1.43 0 0 1 0-.29 11.75 11.75 0 0 1 .22-1.84c.07-.29.09-.35.37-.49l.94-.48c.25-.14.31-.14.36.17a6 6 0 0 0 .48 1.58c.06.05.09.05.07.14a1.06 1.06 0 0 1-.3.2M52.44 80.48c.12.45.2.94.29 1.36a1.42 1.42 0 0 1 0 .29c0 .14 0 .14-.26-.07l-1.21-.93v-.15l.64-.57a1.4 1.4 0 0 1 .3-.23h.09c.06 0 .06 0 .14.31M72.15 78l1.14-.9c.25-.2.28-.2.46-.07a6.48 6.48 0 0 1 1.46 2.33c.17.57-.94 1.12-1.68 1.61a.82.82 0 0 1-.36.23c-.2.08-.23 0-.28-.26a12.57 12.57 0 0 0-.84-2.44c-.17-.25-.14-.31.1-.5M71 78.51l-.86.71c-.22.19-.28.19-.46.09a1.86 1.86 0 0 0-.42-.22 4.48 4.48 0 0 0-.81-.31 3.94 3.94 0 0 0-1.1-.08c-.29 0-.32 0-.11-.23l1-1c.22-.22.24-.25.33-.25a3.66 3.66 0 0 1 1.11.19 4.08 4.08 0 0 1 1.4.75c.15.13.13.17-.12.36M43.26 83a18.91 18.91 0 0 0-3.69-2.32c-.28-.15-.28-.21-.13-.48a4.43 4.43 0 0 1 .77-1.1c.12-.07.27.06.54.21a28.25 28.25 0 0 0 3.43 1.19c.29.09.33.15.2.42l-.75 2c-.13.3-.15.3-.37.09M69.46 75.81c.09.37-.76 1-1.17 1.25a3.52 3.52 0 0 1-2.62.1c-.3-.06-.3-.09-.06-.29a2.63 2.63 0 0 0 .52-.47 3.85 3.85 0 0 1 .85-.88 11.72 11.72 0 0 1 2.12.17c.32 0 .35.06.36.12M58.92 77.08l2.21-1c.31-.11.33-.14.42-.12a.39.39 0 0 1 .18 0c1.55.6 1.53 1 2.73 1.19.32 0 .32.06.08.28-1.2 1.17-1.69 1.3-3.06 1a6 6 0 0 1-2.61-1.12c-.22-.21-.22-.24.05-.35M45.26 80.64a.6.6 0 0 1-.51-.13c-.12-.1-.12-.13 0-.43l.79-2.35c.09-.29.11-.32.14-.35s.05-.1.08-.1a.7.7 0 0 1 0 .32v.46l-.31 2.22c0 .3-.06.36-.14.36M49.87 77.66l-.15.68a2.59 2.59 0 0 1-.08.38c-.08.09-.08.09-.18 0s0-.08-.2-.33l-.58-1a1.45 1.45 0 0 1-.13-.28V77c0-.06 0-.06.11-.06a2.9 2.9 0 0 1 1.18.3s.06 0 .09 0 0 .09-.05.38M75.57 74.61c-.1.09-1.41 1.38-1.69 1.58s-.3.2-.49 0a3.66 3.66 0 0 0-2.21-.91 1.8 1.8 0 0 0-.5-.08c-.23 0-.23 0 0-.25 1-1.3 1.13-1.63 2.56-1.86.71-.12 1.44.31 2.31 1.05.25.21.25.24 0 .49M75.61 79.57l1.92-1.89c.22-.22.24-.28.13-.56-.23-.71-.55-1.43-.81-2.07a5 5 0 0 0-.25-.59c-.16-.21-.17-.27 0-.52l1.21-1.72c.19-.24.24-.25.41 0a4.27 4.27 0 0 1 .33 4 37.6 37.6 0 0 1-2.34 4.87 1.88 1.88 0 0 1-.28.43c-.16.16-.19.16-.3-.15a13.32 13.32 0 0 1-.27-1.37c0-.2 0-.23.25-.45M50.23 76.88l.57-2.53c.1-.3.09-.35.21-.36.91-.19 2.55 1.52 2.58 1.89a8.44 8.44 0 0 1-.65 1.9 2 2 0 0 1-.27.57c-.18.25-.24.25-.46 0a9.8 9.8 0 0 0-1.73-1c-.27-.12-.31-.17-.25-.47M66.94 75.09a11.88 11.88 0 0 1-1.57-.85c-.25-.18-.28-.24-.12-.4a2 2 0 0 1 .38-.32c1-.74 3-2.3 3.53-2a1.86 1.86 0 0 1 .26 1 23.92 23.92 0 0 1-2 2.39c-.19.22-.24.25-.45.18M61.45 75.43c-.61-.7-1.75-2.25-1.6-2.55a9.85 9.85 0 0 1 2.48-1.13c.28-.11.34-.09.53.16l1.6 1.86c.19.21.16.24 0 .38L62 75.53c-.25.14-.31.14-.53-.1M39.55 78.81l-3.12-1.68c-.24-.15-.24-.18-.12-.45l1.5-2.84c.15-.27.18-.3.42-.18L40.71 75c.27.12.3.17.24.46a15.57 15.57 0 0 1-1 3.23c-.13.28-.15.28-.43.13M58.83 72.82l-1.12.41-.39.15a.37.37 0 0 1-.18 0 5.49 5.49 0 0 1 .61-1.75c.3-.57.45-.82.61-.69a5.66 5.66 0 0 1 .83 1.67s0 0 0 .06 0 .06-.33.17M45.33 76.28c-1-.32-2.08-.7-3-1.06a4.82 4.82 0 0 1-.69-.31c-.27-.15-.28-.21-.22-.51l.87-3.16c.09-.27.12-.27.42-.18l3.43 1.34c.24.09.3.15.24.41L45.71 76c-.06.3-.09.33-.38.24M51.24 72.29l-.33 1.27c-.06.24-.12.24-.39.15L47 72.5c-.27-.09-.3-.18-.27-.41l.32-2.17c.06-.29.08-.32.33-.11a25.35 25.35 0 0 0 3.64 2c.27.12.3.18.21.47"/><path class="cls-1" d="M70.07 68.57a2.41 2.41 0 0 0-.34.75 11.23 11.23 0 0 1-.59 1.68 2.21 2.21 0 0 1-.67.58c-.28.16-.31.17-.56 0a8.71 8.71 0 0 1-1.44-1.73c-.17-.28-.14-.34.1-.5L69 67.64c.22-.13.31-.14.46 0l.53.42c.22.21.22.27.07.52M65.93 69.46a18 18 0 0 0-2.81 1.41c-.27.2-.3.17-.47-.07a24.68 24.68 0 0 1-1.33-2.49c-.11-.28-.09-.34.19-.45a27 27 0 0 1 3-1c.32-.06.35 0 .51.22l1 2c.14.28.14.3-.16.42M60.4 68l-.39.18c-.28.13-.31.14-.31.11a2 2 0 0 1 .7-1.29c.11-.1.18.07.25.59.05.25 0 .31-.25.45M38.93 69.56a18.59 18.59 0 0 1-1.17 3.27c-.12.3-.18.31-.45.19a19.83 19.83 0 0 1-2.5-1.21 2.43 2.43 0 0 1-.42-.92c-.12-.28-.12-.34.16-.47a25.89 25.89 0 0 1 3.38-1.73 2.16 2.16 0 0 1 .79.37c.24.15.27.21.21.5M41.71 70.37l-2.07-1c-.27-.16-.28-.21-.25-.5a4.84 4.84 0 0 1 .33-1.36 10.79 10.79 0 0 1 1.58-1.46c.24-.22.3-.23.57-.07a5.38 5.38 0 0 1 1 .63 27.22 27.22 0 0 1-.78 3.56c-.09.3-.14.33-.42.18M70 66.84c-.25.17-.28.17-.45-.11L68.48 65c-.17-.27-.17-.3.1-.47l2.6-1.4c.25-.16.31-.14.42.14l.77 1.61c.11.25.08.34-.14.47ZM67.74 64.83A15 15 0 0 1 65.23 66c-.31.11-.34.09-.48-.19L63.37 63c-.14-.28-.15-.31.13-.44a18.66 18.66 0 0 1 2.43-1c.31-.06.37 0 .54.21.29.41 1.21 2.12 1.43 2.57.11.28.11.34-.16.53M45.18 63a14.45 14.45 0 0 0 .43 3.77c.06.31.06.34 0 .35a.91.91 0 0 0-.17 0 8.46 8.46 0 0 1-2.21-.89c-.2-.33.14-1.74.22-2.13a3.62 3.62 0 0 1 .46-1.1c.17-.31.59-.83.68-.81s.31.21.43.34a.59.59 0 0 1 .16.54M73.92 58.14a12 12 0 0 1 1.2 2 1.15 1.15 0 0 1-.23.66c-.22.13-.53.24-1 .45-.58.34-1.38.81-2 1.26-.25.17-.31.18-.42-.1L70.3 59.8c-.11-.25-.08-.28.17-.42l3-1.37c.27-.14.3-.11.47.13M69.5 59.55l-2.87 1.3c-.28.11-.31.12-.5-.13-.33-.49-1.5-3-1.53-3-.11-.28-.08-.31.19-.45L68 55.92c.25-.11.31-.11.42.17l1.29 3c.14.28.11.31-.16.45M63.78 56.85a.48.48 0 0 1-.45.52s-.06 0-.17-.33-.17-.65-.26-1-.09-.42 0-.46a.31.31 0 0 1 .13.08c.06 0 .09 0 .25.33l.34.55c.16.24.2.3.2.33M75.8 56.08a.44.44 0 0 1-.27.51l-1.42.7c-.28.14-.31.14-.42-.17l-1.14-2.88c-.1-.28-.08-.34.2-.48l2.32-1.23c.28-.14.31-.14.36.14ZM71.77 53.87l-3.08 1.56c-.25.13-.31.11-.44-.17l-1.74-3.12c-.14-.28-.11-.31.14-.41l3.46-1.48c.28-.1.31-.08.43.2a16.09 16.09 0 0 0 1.37 3c.14.28.14.3-.14.44M65.53 51.76l-3.39 1.38c-.28.11-.33.09-.53-.13a19.17 19.17 0 0 0-2-2.08c-.25-.18-.22-.24 0-.41a5.5 5.5 0 0 1 1-.45 19.25 19.25 0 0 1 4 .31 4.56 4.56 0 0 1 1.12 1c.22.21.19.24-.08.38M73 48.87l-1.75.86c-.28.14-.31.17-.39.18-.23.05-.48-.22-.48-.51 0-.06 0-.09.33-.2s.81-.36 1.23-.59.79-.56 1-.49.47.39.45.48a.14.14 0 0 1 0 .09 1.64 1.64 0 0 1-.36.18"/><path class="cls-4" d="M102 98.14c.28-.13.31-.17.12-.41l-1.71-2.43c-.19-.24-.22-.24-.5-.07-1 .63-2 1.23-3 1.77-5.51 3-16.08 4.83-22.32 5.29-.31 0-.34.06-.31.37v1.77c0 .06 0 .11.32.08a18.69 18.69 0 0 0 3-.13 13.21 13.21 0 0 0 1.25-.62c.44-.24 5.49-1 8.66-1.53A83.28 83.28 0 0 0 102 98.14M102.22 96.48c.22.21.25.21.49 0 1.53-1.45 2.1-2 2.61-3.39 1.74-4.88.79-8.67-2.51-12.9C99.18 75.53 93 70.56 89 66.25c-1.94-2.07-4.88-5.78-7.28-8.7-.2-.21-.22-.21-.14.1a38.1 38.1 0 0 1 .79 5.77c0 1.38-1 8.11-1 9.73a11.69 11.69 0 0 0 .8 4.09c.68 1.85 2.18 4.26 3.25 5a17.59 17.59 0 0 0 2.38.9 64.6 64.6 0 0 1 6.51 4.13 28.44 28.44 0 0 1 2.45 2.08c2.17 2.07 2.43 3.09 4.68 6.17.25.32.52.67.83 1"/><path class="cls-4" d="M74.19 107.46c-.29 0-.35 0-.47.27a11.49 11.49 0 0 1-1.63 3c-.19.21-.21.22-.06 0 .32-.7.63-1.42.89-2.13 2.35-6.89-2.41-13.77-8.16-17.94C63.5 89.7 54 84.48 53 83.7c-2.9-2.16-4-4.21-6.2-8.12-.14-.28-.17-.28-.23 0A56.39 56.39 0 0 0 46.11 93c1 7.83 4.16 15.62 10.79 19.92 4 2.64 7.87 3.21 12.38 1.14.28-.11.31-.12.23 0a2 2 0 0 1-1 .75c-2.67 1.23-4 1.26-7.27.83-.29 0-.35 0-.47.27-1.82 4.89-2.12 8.92.51 13.41 3.78 6.53 11.64 8.22 18.94 8.16.32 0 .32 0 .1-.21l-1.43-1.24c-.22-.21-.22-.21.08-.09a8.76 8.76 0 0 1 3.71 2.55 34.94 34.94 0 0 0 3 3.16 26.3 26.3 0 0 0 4.41.27c2.19-.15 5.34-.56 6.52-2.71a3.89 3.89 0 0 0 .29-1 2.47 2.47 0 0 0 0-.52l-.17-3.16c0-.29 0-.29.1-.1l.34.55c.16.25.19.27.44.08a8.56 8.56 0 0 0 1.89-2c.15-.25.15-.28-.17-.31l-3.11-.14c-.29 0-.32 0-.29.28l.29 3.53c0 .31 0 .37-.25.54a14.82 14.82 0 0 1-5.66 2.46 10.68 10.68 0 0 1-3.69-.22c-.9-.41-3.51-5.42-3.78-5.89s-4.11-7-5.88-8.75c-1.23-1.26-2.2-1.81-2.54-3.17-.14-.65-.05-2.3-.48-2.93-.09-.14-.15-.13-.34 0a1.67 1.67 0 0 0-.41.38c-.31.37-.64.63-.9 1a8.83 8.83 0 0 0-.75 1.36c-.15.27-.15.27-.15 0a8.57 8.57 0 0 1 .16-.93c.49-2.47 2.1-5.69 4.61-3.68.24.18.25.21 0 .24a2.28 2.28 0 0 0-1.54 1 14 14 0 0 0 .13 3 4.15 4.15 0 0 0 .66 1.65c1.31 1.85 2.91 1.32 5.68 2 2.48.61 5.94 4 8.7 5.46a23 23 0 0 0 3.64 1.4c5.49 1.42 12.73.42 17-3.81 3.34-3.28 5.68-8.55 3.31-12.37-1.84-3-6.58-6.18-9.74-4.88-.42.18-2.11 1.1-2.21.93s0-.17.18-.3c.89-.77 1.62-.71 1-1-1.45-.66-3.59-.77-4.76.51-.32.37-.72 1-.82.93s.23-.77.51-1.2A5.53 5.53 0 0 1 99 109c.28-.14.31-.17.24-.22a.27.27 0 0 0-.15-.13c-1.43-.84-3 .1-4.2 1-.24.19-.27.19-.23 0a1.25 1.25 0 0 1 .21-.3 4 4 0 0 1 3.27-1.69c.32 0 .32 0 0-.14a2.07 2.07 0 0 0-1.49-.17c-2.5.53-2.24 2.64-3.77 5.45a22.59 22.59 0 0 1-2.79 3.61 6.73 6.73 0 0 1-8.74.61c-2.84-2.16-3.89-5.13-4-8.73 0-.31-.06-.34-.35-.4Z"/><path class="cls-1" d="M78.27 124.56c-.28.06-.31.09-.11.36l2.48 3.78c.16.22.19.21.14-.07l-.38-3.49c0-.29-.06-.34-.35-.41a5.32 5.32 0 0 0-1.78-.17M81.27 125.15c-.27-.15-.3-.12-.3.2a40.73 40.73 0 0 0 .28 4.45 52.68 52.68 0 0 0 2.82 4.76c.17.25.2.25.14 0l-.82-7.9a.69.69 0 0 0-.3-.47ZM87.57 139.12c.23 0 .26-.08.2-.36l-1.12-9.4a1.07 1.07 0 0 0-.28-.5l-2-1.68c-.25-.19-.28-.18-.25.13.07 2.68.16 7.5.32 8a26.87 26.87 0 0 0 2.36 3.71 1 1 0 0 0 .78.07M91.33 138.44c.28-.11.31-.14.28-.46l-.69-5.98c-.06-.28-.09-.34-.39-.43a2.46 2.46 0 0 1-.6-.27 11.87 11.87 0 0 1-2.31-1.39c-.19-.22-.22-.19-.19.1l.49 8.71c0 .28 0 .31.37.29a19.46 19.46 0 0 0 3-.6M106.29 98.42c.28 0 .31 0 .34-.09s0-.2-.08-.22a.78.78 0 0 0-.79.21c-.06.06-.06.06.24.1ZM105.19 99.17c.28-.13.31-.14.1-.23a.9.9 0 0 1-.49-.31c0-.06 0-.06-.34.06l-5.91 2a1.83 1.83 0 0 0-.47.18 1.68 1.68 0 0 0-.85 1.66 28.08 28.08 0 0 0 1.37 4.68c.26.32.88-.16 1.62-.63.28-.16.28-.19 0-.25l-.64-.15c-.24-.07-.24-.07 0-.15l2-.57c.28-.08.31-.08.33-.17 0-.35-.65-.44-1-.46s-.32-.07-.2-.34c.79-1.56 1.88-2.09 3.57-2.54.31-.09.31-.12.13-.19l-.27-.09a1.31 1.31 0 0 0-.34 0h-.41c-.25 0-.29 0-.15-.13a6.26 6.26 0 0 1 .74-.46c.2-.11.2-.11-.1-.17l-.58-.07c-.21 0-.21-.06.07-.2l.91-.45c.28-.14.28-.17.16-.25l-.22-.15c-.18-.1-.15-.11.07-.21ZM94.71 101.11c-.28 0-.34.06-.33.17a.75.75 0 0 0 .05.26c.1.51.33 1.13.45 1.64a2.64 2.64 0 0 1 .12.65v.29a3.47 3.47 0 0 0 .1-1.63c-.07-.45-.21-.7-.13-.82s.59-.23 1-.49a.56.56 0 0 0 .14-.1c.05-.06 0-.09-.27-.06ZM90.44 104.7c.32-.06.31-.08 0-.15l-.85-.18c-.24 0-.24-.07 0-.24l.55-.36c.25-.17.27-.2.15-.25l-.2-.09c-.16-.11-.13-.11.06-.21l.53-.28c.28-.14.28-.14 0-.14a9 9 0 0 0-1.26.14c-2.57.35-5.51.88-8.24 1.37a3.91 3.91 0 0 0-.62.17 1.35 1.35 0 0 0-1 1.15c-.18.94.22 6.13 1.08 7.79.17.28.2.28.38.06a9.17 9.17 0 0 1 3.27-2.48c.25-.16.25-.19-.05-.2h-2c-.26 0-.27 0 0-.18l1.8-1c.25-.14.24-.17 0-.18l-.9-.07c-.29 0-.33-.06-.22-.18a1.2 1.2 0 0 1 .27-.28 13.11 13.11 0 0 1 5.21-2.72c.28 0 .28-.08 0-.17l-.74-.2c-.2-.07-.2-.07.11-.15l1.36-.31c.28-.06.31-.09.08-.13l-.56-.12c-.3-.06-.36-.09-.36-.15 0-.22.07-.15.8-.09a5.35 5.35 0 0 0 1.34-.17M77.38 105.15c0-.17-.07-.2-.36-.17l-1.84.06h-.29c.26.3 1.71.38 2.24.45.29.07.35 0 .25-.39M78.94 108.92a2.51 2.51 0 0 1 0-.35v-3.32c0-.26 0-.32-.08-.34h-.18c-.12 0-.14 0-.19.11a1.12 1.12 0 0 0 0 .32 8.52 8.52 0 0 0 0 1.59c0 .54.2 1 .3 1.59a1.91 1.91 0 0 0 .13.51c.1.22.11.25.13.16s0-.14 0-.2"/><path class="cls-3" d="M110.88 119.72c-.13-.19-.13-.16-.07.12a6.75 6.75 0 0 1 .15 1.49c-.1.18-.3.26-.26.37s.37.23.53.39a.55.55 0 0 1 .11.34 1.06 1.06 0 0 1-1.28.91c-1.65-.32-2.3-2.55-2.54-4.15-.1-.83-.13-3.65.88-4 .45-.18 1.41.29 1.75.64a8.07 8.07 0 0 1 1.34 4.19c0 .31 0 .35-.1.27a4.26 4.26 0 0 1-.51-.54M103.66 122.17c0-.32 0-.34-.15-.37a1.11 1.11 0 0 0-.25 0c-.37.12-.61 1-.53 1.38s.21.44.18.7a1.83 1.83 0 0 1-.09.39c0 .2.13.1.31.2s-.07.58-.17.77c-.84 1.34-2 1-2.66-.36-1.06-2-1.23-5.47.61-6.92a1.74 1.74 0 0 1 2.85.48c.35.78.58 3.91.13 4.44a.3.3 0 0 1-.1.09c-.06 0-.06 0-.09-.31ZM97.41 130.45c.08.26-.8-.94-1.31-1.79a9 9 0 0 1-.75-1.35c-.63-1.69-1-5.78 0-7.65 0-.12.1-.16.16-.13s-.26 3.86-.24 5.53a5.05 5.05 0 0 0 .43 1.64 36.08 36.08 0 0 1 1.76 3.75M96.45 116.85c.12-.3.15-.36.27-.63.71-1.56 2.67-4.06 4.28-4.77.2-.11.29-.09.29 0s-1.06.75-1.92 1.58c-.48.44-2.15 3.06-3.18 4.59-.17.28-.17.28 0 0Z"/><path class="cls-1" d="M91.75 137.85c0 .32 0 .35.17.34a7.5 7.5 0 0 0 2.27-.83 1.77 1.77 0 0 0 .36-.2c.17-.1.19-.16.16-.48a29.51 29.51 0 0 0-.44-3.57c-.08-.31-.11-.34-.41-.45-.48-.17-1-.27-1.45-.44l-.62-.14c-.29 0-.32 0-.29.31ZM95.08 136.91c.08 0 .08-.06 0-.38-.07-.86-.1-2.27-.4-2.45v.32l.1 2.33c0 .26 0 .29.08.25Z"/><path class="cls-5" d="M35.45 166.9a1.18 1.18 0 0 1-.32.65 2.05 2.05 0 0 1-1.16.3l-1.33.11c-.17 0-.54 0-.91.08a1.67 1.67 0 0 0-.8.24 2.2 2.2 0 0 0-.33 1c-.09.43-.13.86-.16 1-.2 1.35 0 2.06 1.51 1.94l1.23-.1c1.32-.11 1.48 0 1.28 1.39v.13l-2.66.22c-3.18.26-3.7-1.51-3.4-3.49s1.31-3.79 4.43-4l2.76-.23v.2c0 .14 0 .37-.09.6M44.76 172.11h-.12l-1 .15c-.41 0-.68-.07-.8-.34a1.11 1.11 0 0 1-.06-.4v-.44l.1-1.69-3.05.53-.19 3h-.13c-1.57.27-1.88.26-1.8-1l.37-6.22h.12c1.57-.27 1.9-.27 1.82 1l-.02 1.61 3.05-.52.16-2.9h.13c1.58-.27 1.91-.27 1.83 1ZM54 163.14a3.19 3.19 0 0 1 0 .61v.13l-3.94 1 .05 1.25 2.15-.56a4.43 4.43 0 0 1 .72-.16.7.7 0 0 1 .46.07.48.48 0 0 1 .2.29 1.21 1.21 0 0 1 .07.34v.72l-3.58.94v1.39l2.42-.64c.33-.08.58-.14.77-.17a.61.61 0 0 1 .78.68v.75l-4.24 1.11c-.16 0-.41.12-.65.17a1.22 1.22 0 0 1-.71 0 .7.7 0 0 1-.31-.54v-.55l-.13-4.92c0-1.23.16-1.34 1.55-1.71l2.89-.76c.31-.08.54-.13.71-.16a.67.67 0 0 1 .47.08.8.8 0 0 1 .27.62M62.26 160.58a1.32 1.32 0 0 1-.18.71 2.07 2.07 0 0 1-1.07.53l-1.28.38c-.17.05-.52.14-.88.27a1.51 1.51 0 0 0-.72.41 2.06 2.06 0 0 0-.13 1c0 .44 0 .87.06 1.06.08 1.36.44 2 1.88 1.58l1.19-.36c1.26-.37 1.46-.26 1.54 1.1v.13l-2.56.77c-3.06.92-3.93-.7-4.06-2.7s.5-4 3.5-4.88l2.65-.8v.8M66.87 163.71l.18 2.3h-.12c-1.53.49-1.83.52-1.93-.78l-.5-6.19h.12l.72-.23a2.45 2.45 0 0 1 .42-.09.81.81 0 0 1 .38 0 .53.53 0 0 1 .31.34 3.66 3.66 0 0 1 .11.63l.15 1.9v-.08l2.39-3.93 2.68-.86-3.13 4.93 3.87 2.59-.32.1-1.18.37a1.59 1.59 0 0 1-1.75-.28l-2.45-1.8ZM78.89 156.21a3.9 3.9 0 0 1 0 .61v.12l-4 .9v1.25l2.17-.49a5.11 5.11 0 0 1 .72-.13.67.67 0 0 1 .47.08.59.59 0 0 1 .19.29 1.34 1.34 0 0 1 0 .35v.72l-3.6.82v1.39l2.45-.56c.34-.07.58-.12.77-.14a.75.75 0 0 1 .48.07.78.78 0 0 1 .28.64 6 6 0 0 1 0 .62v.12l-4.27 1c-.16 0-.41.1-.65.14a1.25 1.25 0 0 1-.72 0 .71.71 0 0 1-.29-.55V157.98c0-1.22.21-1.33 1.61-1.65l2.91-.66a7.27 7.27 0 0 1 .73-.13.7.7 0 0 1 .46.09.84.84 0 0 1 .25.64M82.52 158.54a1 1 0 0 1 .66-.32l.49-.05c.41 0 .72-.06 1-.1a.9.9 0 0 0 .43-.13s0 0 .07-.11a1.68 1.68 0 0 0 .07-.24c0-.19.06-.38.07-.47 0-.32.07-.8-1.32-.66l-1.16.12Zm2.36 1 2.54 2.38-1.52.15a1.67 1.67 0 0 1-1.77-.67l-1.65-1.82-.08-.12-.4 3h-.13c-.16 0-.45.06-.74.08a1.5 1.5 0 0 1-.81-.12.53.53 0 0 1-.21-.43 2.84 2.84 0 0 1 0-.68l.63-4.92c0-.14 0-.28.06-.41a1.44 1.44 0 0 1 .13-.4 1.05 1.05 0 0 1 .83-.52l.8-.1 1.42-.14c3.13-.31 3.41 1.07 3.28 2.14a2.86 2.86 0 0 1-2.42 2.56M96.28 159.9l-1.23-.12-.36 1.06-.42 1.23h-.13l-.74-.07a1.51 1.51 0 0 1-.78-.27.59.59 0 0 1-.12-.47 3.63 3.63 0 0 1 .17-.67l1.56-4.69c0-.14.09-.27.14-.39a1.62 1.62 0 0 1 .19-.37 1.09 1.09 0 0 1 .93-.35c.18 0 .44 0 .8.05l1.46.14c3.19.29 3.15 1.73 2.78 2.81s-1.06 2.41-4.25 2.12m1.07-3.37-1.19-.1-.61 1.83 1.14.1a3.32 3.32 0 0 0 1.36 0 .46.46 0 0 0 .21-.24 4.25 4.25 0 0 0 .22-.61c.13-.37.28-.86-1.13-1M102.31 163.18h-.12c-1.55-.31-1.86-.43-1.34-1.58l2.59-5.7h.13c1.53.31 1.87.43 1.35 1.55ZM114.13 159.46a1.3 1.3 0 0 1-.53.51 2.19 2.19 0 0 1-1.21-.15l-1.78-.52c-.16-.05-.52-.17-.88-.25a1.68 1.68 0 0 0-.83-.06 2.28 2.28 0 0 0-.66.76c-.23.37-.43.76-.52.92-.67 1.19-.71 2 .68 2.41 1 .28 1.36.39 1.66.28s.45-.37.85-1l-1.71-.5c-1.07-.32-1-.59-.44-1.67l.06-.12 4.85 1.42-2.31 4.09h-.12c-.91-.27-1.36-.42-1.26-.93a4.08 4.08 0 0 1-2.39 0c-2.89-.84-2.8-2.76-1.82-4.5s2.58-3.05 5.58-2.18l3.17.92-.1.18c-.07.12-.16.32-.29.52"/><path class="cls-2" d="m49.05 124.29-.1 3.78-3.77-.07c-3-.07-3.75-2-3.7-3.87.09-3.88.09-3.83 3.61-3.75a3.69 3.69 0 0 1 4 3.92m4 4.2c.15-7.67-1.44-12.23-7.86-12.37-5.31-.12-7.65 3.53-7.73 7.91-.11 5.68 3.41 7.56 6.89 7.64l4.49.09c0 .7.06 3.15-.41 3.64s-1.44.44-3.45.39l-4.59-.1c-2.55-.06-2.72.26-2.79 4.23l7.29.16c5.49.13 8-3.05 8.16-11.59m-21.87 4.32c-.09 3.14-.14 3-4 2.91-3.34-.07-4-1.56-4-3.09.05-3.42.13-3.55 4.12-3.46 3.33.07 3.95 2.12 3.92 3.64m-.12-10c-.07 3-.14 3-3.72 3s-3.62-1.74-3.6-3.13c0-.41-.06-2.12.33-2.39s1.17-.3 3.36-.25c3.59.08 3.64 1.42 3.63 2.8m3.9-.19c.22-3.69-1.54-6.73-7.21-6.86h-.36c-5.63-.13-7.59 2.42-7.68 6.53 0 2.67.73 4.54 2.61 5.41-1.9.7-3.16 2.89-3.2 5.34-.07 3.27 1.53 6.86 7.2 7h1.18c5.88.13 7.61-3.29 7.7-7.08 0-2.26-.72-5-2.93-5.7 1.77-.65 2.6-2.57 2.69-4.65"/><path class="cls-1" d="M11.78 30a2.83 2.83 0 0 1 .57 1.33 4.38 4.38 0 0 1-.06 1.67 6.4 6.4 0 0 1-.74 1.82 7.2 7.2 0 0 1-1.47 1.78c-.33.3-.65.57-1 .8s-.62.43-.92.61a7.76 7.76 0 0 1-.9.47l-.94.4c-.28-.62-.55-1.23-.82-1.85a8.71 8.71 0 0 0 .87-.31c.35-.15.71-.31 1.08-.5s.75-.4 1.1-.62a7 7 0 0 0 .9-.66 5.75 5.75 0 0 0 .66-.67 3.47 3.47 0 0 0 .38-.56.93.93 0 0 0 0-.76 2.85 2.85 0 0 0-.6-1 1.21 1.21 0 0 0-1.06-.45 4.9 4.9 0 0 0-1.42.35c-.52.21-1.07.45-1.65.73a10 10 0 0 1-1.75.64 4.63 4.63 0 0 1-1.77.11 3.05 3.05 0 0 1-1.69-.94A2.21 2.21 0 0 1 0 31.3a3.86 3.86 0 0 1 0-1.59 6.12 6.12 0 0 1 .73-1.85A7.8 7.8 0 0 1 2.4 26 20.62 20.62 0 0 1 4 24.67c.55-.39 1.1-.75 1.64-1.08l.81 1.78c-.27.12-.57.27-.89.44s-.65.37-1 .57l-.85.62a8.66 8.66 0 0 0-.74.6c-.23.2-.44.41-.62.6a2.16 2.16 0 0 0-.4.63.82.82 0 0 0 0 .65 2.35 2.35 0 0 0 .45.68 1.15 1.15 0 0 0 .78.37 3.19 3.19 0 0 0 1-.16 9.27 9.27 0 0 0 1.16-.46c.41-.19.84-.38 1.28-.56A12 12 0 0 1 8 28.9a4.52 4.52 0 0 1 1.35-.18 3.21 3.21 0 0 1 1.25.28 3.53 3.53 0 0 1 1.18 1ZM23 26.58c-1.21-.92-2.44-1.84-3.69-2.73q-2.24 1.5-4.4 3.13c.36 1.48.75 2.95 1.16 4.41l-1.41 1.1a131.31 131.31 0 0 1-2.86-13.61c.76-.7 1.52-1.4 2.3-2.08a130.94 130.94 0 0 1 11.43 8.25c-.86.5-1.7 1.01-2.53 1.53Zm-4.74-3.48q-2.43-1.7-5-3.29.57 2.94 1.26 5.84c1.27-.89 2.48-1.74 3.74-2.55ZM35.58 15.15a4.09 4.09 0 0 1 .3 1.82 4.3 4.3 0 0 1-.51 1.82A6.17 6.17 0 0 1 34 20.48a9.12 9.12 0 0 1-2.24 1.45 10.41 10.41 0 0 1-2.11.79 4.88 4.88 0 0 1-1.88.13 3.72 3.72 0 0 1-1.65-.68 5.33 5.33 0 0 1-1.37-1.64q-2-3.68-4.1-7.35c.91-.51 1.82-1 2.75-1.49q2 3.86 4 7.69a5 5 0 0 0 .86 1.26 2 2 0 0 0 .9.51 2.08 2.08 0 0 0 1-.07 8.63 8.63 0 0 0 1.18-.48 6.65 6.65 0 0 0 1.3-.79 3.7 3.7 0 0 0 .77-.84 1.24 1.24 0 0 0 .15-1 7.24 7.24 0 0 0-.48-1.36l-3.43-7.9q1.41-.63 2.85-1.2ZM46.81 11c-1 .22-2 .46-3 .71-.05-.35-.11-.69-.16-1q2.85-.84 5.74-1.51l1.17 5.06c-.27.18-.61.39-1 .62s-.84.46-1.31.69-1 .45-1.47.66a11.92 11.92 0 0 1-1.51.54 6.79 6.79 0 0 1-2.66.33 4.68 4.68 0 0 1-2.13-.7 5.85 5.85 0 0 1-1.68-1.62 10.64 10.64 0 0 1-1.24-2.43 5.9 5.9 0 0 1-.37-2.71 5.35 5.35 0 0 1 .91-2.46 7.51 7.51 0 0 1 2.09-2 11.15 11.15 0 0 1 3.08-1.48l1-.24 1.1-.22 1-.15A7 7 0 0 1 47.2 3c0 .64-.05 1.28-.06 1.92a8.65 8.65 0 0 0-1 0L45 5.1l-1.25.2c-.42.08-.78.17-1.1.26a9.37 9.37 0 0 0-1.44.54 3.25 3.25 0 0 0-1.16.9 1.53 1.53 0 0 0-.3.79 4.36 4.36 0 0 0 0 1.08 8.66 8.66 0 0 0 .25 1.19c.11.42.23.84.37 1.24a8.54 8.54 0 0 0 1.92 3.48 2.41 2.41 0 0 0 2.54.63l.77-.26.78-.3.72-.31c.22-.09.41-.18.57-.26ZM64.32 8.5a4.16 4.16 0 0 1-.26 1.82 4.36 4.36 0 0 1-1 1.58 6.22 6.22 0 0 1-1.78 1.19 9.05 9.05 0 0 1-2.52.69 11.37 11.37 0 0 1-2.21.1 4.77 4.77 0 0 1-1.79-.47 3.54 3.54 0 0 1-1.34-1.16 5.13 5.13 0 0 1-.79-2L51 2c1-.2 2-.38 3-.55q.68 4.29 1.4 8.55a5.09 5.09 0 0 0 .44 1.46 1.77 1.77 0 0 0 1.65 1 7.09 7.09 0 0 0 1.24-.09 5.71 5.71 0 0 0 1.45-.37 3.5 3.5 0 0 0 1-.56 1.25 1.25 0 0 0 .44-.92 8 8 0 0 0 0-1.44C61.27 6.26 61 3.4 60.68.55q1.51-.17 3-.27l.64 8.22ZM70.36 12.73l-.12-11.37c-1.51 0-3 0-4.54.09 0-.43 0-.87.08-1.3a102.27 102.27 0 0 1 12.13.06l-.24 1.24c-1.47-.06-2.94-.08-4.41-.08l-.21 11.37c-.89-.02-1.79-.02-2.69-.01ZM86.69 14c-2.61-.45-5.23-.77-7.86-1q.51-6.34 1-12.68c2.89.23 5.78.59 8.65 1.07l-.36 1.26q-2.7-.42-5.41-.7c-.15 1.38-.3 2.75-.46 4.12 1.63.2 3.25.44 4.87.72-.11.38-.21.76-.32 1.14-1.56-.22-3.13-.4-4.69-.54l-.51 4.52c1.8.24 3.59.52 5.38.86ZM102.91 14.69a3.68 3.68 0 0 1-.78 1.31 3 3 0 0 1-1.25.77 4.54 4.54 0 0 1-1.7.18 9.82 9.82 0 0 1-2.18-.43 20.6 20.6 0 0 1-.94-.28l-1.11-.34-1.11-.35-.94-.32L95.84 3c.6.09 1.29.22 2 .39s1.48.36 2.14.55a12 12 0 0 1 2.16.82 5.81 5.81 0 0 1 1.51 1.05 2.83 2.83 0 0 1 .77 1.25 2.33 2.33 0 0 1-.08 1.42 2.76 2.76 0 0 1-.58 1 2.95 2.95 0 0 1-1.8.92 4.51 4.51 0 0 1-1 0 4.63 4.63 0 0 1 1.25.9 3.31 3.31 0 0 1 .7 1 2.87 2.87 0 0 1 .22 1.12 3.71 3.71 0 0 1-.22 1.27Zm-1.51-6.88a1.65 1.65 0 0 0-.25-1.73 4.07 4.07 0 0 0-1.92-1L98.84 5l-.34-.07-1.09 4 .93.26a6.81 6.81 0 0 0 1 .2 3 3 0 0 0 .82 0 1.5 1.5 0 0 0 .3-.1 1.15 1.15 0 0 0 .33-.24 2.64 2.64 0 0 0 .32-.45 4.28 4.28 0 0 0 .29-.79Zm-1.16 5.81a2.17 2.17 0 0 0-.2-2A3.66 3.66 0 0 0 98 10.31l-.88-.24-1.28 4.7.19.08.17.06.22.06.38.11a5.15 5.15 0 0 0 .53.13l.57.12.53.06a1.7 1.7 0 0 0 .4 0 1.39 1.39 0 0 0 .34-.12 1.36 1.36 0 0 0 .39-.28 2 2 0 0 0 .38-.51 4.76 4.76 0 0 0 .3-.86ZM106.38 19.7c-.83-.35-1.67-.68-2.52-1q2.28-6 4.54-11.89c1 .36 1.92.74 2.87 1.14ZM125.11 16a3.32 3.32 0 0 0-.74-.35 4 4 0 0 0-.82-.16 6.49 6.49 0 0 0-1 0 10.32 10.32 0 0 0-1.2.18c-.49.09-1 .21-1.56.35l-1.77.48c.06 1.2.11 2.31.18 3.32a24.18 24.18 0 0 0 .29 2.72 7.7 7.7 0 0 0 .58 2 2.75 2.75 0 0 0 1.07 1.27l.14.09-.43.69c-.29-.1-.58-.21-.87-.34s-.6-.31-1-.52a4.62 4.62 0 0 1-1.36-1.15A4.34 4.34 0 0 1 116 23a12.8 12.8 0 0 1-.34-2.37c-.07-.94-.11-2.08-.16-3.42l-.37.11-.43.15-.43.15-.31.11-2.18 4.41q-1.23-.6-2.46-1.17l5.29-11.58c.94.43 1.88.88 2.81 1.34l-2.64 5.34 1.4-.48c.55-.2 1.12-.39 1.71-.58s1.16-.36 1.71-.52 1-.26 1.35-.34a8.38 8.38 0 0 1 1.22-.18 3.81 3.81 0 0 1 1 .06 3.76 3.76 0 0 1 .86.28c.28.14.59.3.93.51.14.09.3.19.48.32a1.85 1.85 0 0 1 .35.28l-.41.67ZM127.67 32.19a91.567 91.567 0 0 0-6.72-4.81l6.93-10.68q3.78 2.46 7.4 5.29l-.93.92q-2.26-1.74-4.61-3.33L127.38 23q2.09 1.48 4.11 3.09l-.83.84c-1.33-1-2.67-1.93-4-2.84L124 27.82q2.3 1.65 4.52 3.47ZM138.45 36.79a2.76 2.76 0 0 1-1.27.7 4.47 4.47 0 0 1-1.69.1 6.63 6.63 0 0 1-1.9-.55 7.43 7.43 0 0 1-1.93-1.28 10.55 10.55 0 0 1-.89-.87 10.38 10.38 0 0 1-.7-.84 7.57 7.57 0 0 1-.55-.84c-.17-.28-.32-.57-.48-.88.58-.34 1.16-.68 1.75-1a7.6 7.6 0 0 0 .38.82c.18.32.38.66.61 1a10.41 10.41 0 0 0 .72 1 6.22 6.22 0 0 0 .75.83 5.7 5.7 0 0 0 .74.58 3 3 0 0 0 .6.33.94.94 0 0 0 .76 0 2.72 2.72 0 0 0 .93-.69 1.21 1.21 0 0 0 .33-1.11 5.05 5.05 0 0 0-.51-1.39c-.26-.49-.56-1-.89-1.55a9.92 9.92 0 0 1-.82-1.67 4.35 4.35 0 0 1-.27-1.74 3 3 0 0 1 .75-1.77 2.28 2.28 0 0 1 1-.67 3.7 3.7 0 0 1 1.56-.17 5.75 5.75 0 0 1 1.9.51 7.54 7.54 0 0 1 2 1.38 19.12 19.12 0 0 1 1.49 1.5c.46.51.88 1 1.27 1.54-.57.32-1.13.65-1.69 1-.15-.26-.33-.55-.55-.86s-.44-.61-.67-.91-.48-.58-.73-.85-.47-.49-.67-.67a7.43 7.43 0 0 0-.67-.55 2.08 2.08 0 0 0-.66-.34.81.81 0 0 0-.64.08 2 2 0 0 0-.63.52 1.09 1.09 0 0 0-.28.81 3 3 0 0 0 .25 1 10 10 0 0 0 .58 1.11c.23.39.47.8.7 1.22a11.75 11.75 0 0 1 .61 1.3 4.63 4.63 0 0 1 .33 1.33 3.19 3.19 0 0 1-.16 1.33 3.45 3.45 0 0 1-.76 1.21ZM35.44 215.87a2.42 2.42 0 0 1-1.15.88 4.05 4.05 0 0 1-1.79.26 7 7 0 0 1-2.22-.54 9.09 9.09 0 0 1-2.39-1.5 12.73 12.73 0 0 1-1.11-1.07 13 13 0 0 1-.87-1 10.76 10.76 0 0 1-.67-1c-.19-.35-.38-.71-.55-1.08.65-.24 1.3-.48 1.94-.74a7.68 7.68 0 0 0 .43.95c.2.38.43.77.7 1.18a14.45 14.45 0 0 0 .88 1.18 6.91 6.91 0 0 0 .93.94 6.69 6.69 0 0 0 .89.65 4.21 4.21 0 0 0 .71.35 1 1 0 0 0 .82-.06 2.39 2.39 0 0 0 .87-.78 1.2 1.2 0 0 0 .19-1.16 6.07 6.07 0 0 0-.69-1.41c-.31-.5-.66-1-1-1.6a7.88 7.88 0 0 1-.86-1.75 4.11 4.11 0 0 1-.22-1.79 2.88 2.88 0 0 1 .9-1.7 2.35 2.35 0 0 1 1.07-.59 4.17 4.17 0 0 1 1.52-.12 6.25 6.25 0 0 1 1.76.45 7.82 7.82 0 0 1 1.84 1.13q.74.6 1.38 1.2c.43.39.84.79 1.23 1.18-.48.43-1 .85-1.46 1.27-.17-.22-.36-.46-.58-.71s-.45-.52-.69-.77-.47-.49-.7-.72a8.09 8.09 0 0 0-.64-.59c-.21-.18-.42-.34-.62-.48a1.75 1.75 0 0 0-.62-.29.87.87 0 0 0-.62.09 2.22 2.22 0 0 0-.63.52 1.11 1.11 0 0 0-.3.8 2.73 2.73 0 0 0 .25 1 7.48 7.48 0 0 0 .6 1.08c.24.38.5.77.77 1.17s.51.81.74 1.23a6 6 0 0 1 .5 1.29 3.6 3.6 0 0 1 .08 1.35 3.2 3.2 0 0 1-.62 1.3ZM44.49 225.19a66.61 66.61 0 0 1-8.85-4.72l6.8-10.75a53.48 53.48 0 0 0 6.91 3.7c-.21.38-.43.75-.65 1.13q-2.31-1-4.55-2.24l-2 3.61q2.23 1.29 4.56 2.38c-.21.33-.41.67-.61 1-1.56-.68-3.09-1.42-4.6-2.24-.74 1.33-1.49 2.65-2.23 4a62.15 62.15 0 0 0 5.9 3.05ZM50.3 227.42c-1-.35-2.1-.73-3.14-1.13q2.3-5.94 4.6-11.87c.85.33 1.7.63 2.55.92q-2.01 6.03-4.01 12.08ZM57.25 229.3q1.2-5.55 2.39-11.11-2-.47-4-1.08c.17-.41.33-.81.5-1.21a54.5 54.5 0 0 0 10.49 2c-.08.41-.16.82-.25 1.23-1.33-.08-2.67-.22-4-.4q-.91 5.61-1.84 11.22c-1.11-.21-2.21-.41-3.29-.65ZM77.23 230.53l-1-10.74q-1.68 1.41-3.53 2.7-.43-.54-.84-1.08a51.23 51.23 0 0 0 4.84-3.62c.66-.06 1.31-.14 2-.23q.87 6.3 1.75 12.6c-1.06.15-2.14.27-3.22.37ZM90.66 226.24a2.15 2.15 0 0 0 .5-1.52 8.56 8.56 0 0 0-.56-2.81 4.5 4.5 0 0 1-1.12 1.16 5.32 5.32 0 0 1-1.76.84 4.25 4.25 0 0 1-3.18-.2 3.55 3.55 0 0 1-1.67-2.63 4.46 4.46 0 0 1 0-1.78 4.13 4.13 0 0 1 .64-1.54 4.36 4.36 0 0 1 1.22-1.2 6.27 6.27 0 0 1 1.77-.81 5.25 5.25 0 0 1 2.14-.22 4.17 4.17 0 0 1 1.83.68 6.11 6.11 0 0 1 1.53 1.54 11.27 11.27 0 0 1 1.26 2.38 7.68 7.68 0 0 1 .61 3 5.09 5.09 0 0 1-.63 2.44 5.72 5.72 0 0 1-1.74 1.87 8.88 8.88 0 0 1-2.66 1.2 16.12 16.12 0 0 1-2 .4 11.45 11.45 0 0 1-1.84.12c0-.62.06-1.25.08-1.88H86.94c.32 0 .72 0 1.08-.09a5.9 5.9 0 0 0 1-.2 4.17 4.17 0 0 0 1-.38 3.3 3.3 0 0 0 .64-.37Zm-5-5.89a2.84 2.84 0 0 0 1 1.74 1.93 1.93 0 0 0 1.69.16 4.84 4.84 0 0 0 1.14-.49 3.6 3.6 0 0 0 .87-.68c-.2-.6-.42-1.18-.65-1.73a7.64 7.64 0 0 0-.77-1.43A2.89 2.89 0 0 0 88 217a1.44 1.44 0 0 0-1.14-.1 3.11 3.11 0 0 0-.69.29 1.76 1.76 0 0 0-.49.39 1.62 1.62 0 0 0-.26.92 5.91 5.91 0 0 0 .25 1.85ZM102.66 223.16a7.5 7.5 0 0 1-4.29 1.09 2.82 2.82 0 0 1-2.37-1.84 2.42 2.42 0 0 1-.21-1.06 3.57 3.57 0 0 1 .17-1.07 3.84 3.84 0 0 1 .48-1 4.61 4.61 0 0 1 .74-.85 3.58 3.58 0 0 1-1 0 2.94 2.94 0 0 1-.94-.29 3.15 3.15 0 0 1-.79-.58 2.92 2.92 0 0 1-.56-.85 3.11 3.11 0 0 1 0-2.73 5.61 5.61 0 0 1 2.54-2.25 5.76 5.76 0 0 1 3.29-.86 3 3 0 0 1 2.28 1.49 2.4 2.4 0 0 1 .37.91 3.09 3.09 0 0 1 0 1 3.39 3.39 0 0 1-.26.93 3.85 3.85 0 0 1-.51.83 5.19 5.19 0 0 1 1.18-.19 4 4 0 0 1 1.15.13 3.21 3.21 0 0 1 1 .45 2.62 2.62 0 0 1 .8.79 2.89 2.89 0 0 1 .19 3 7.34 7.34 0 0 1-3.26 2.95Zm-3.78-2.08a4.26 4.26 0 0 0 .62 1 1.48 1.48 0 0 0 .7.46 1.8 1.8 0 0 0 .83 0 4.7 4.7 0 0 0 1-.42 4.11 4.11 0 0 0 .8-.53 3.17 3.17 0 0 0 .55-.55 1.19 1.19 0 0 0 .16-.82 3.55 3.55 0 0 0-.5-1.31 3 3 0 0 0-1.45-1.43 2.29 2.29 0 0 0-1.8.31 5.13 5.13 0 0 0-.71.46 2.45 2.45 0 0 0-.52.55 1.28 1.28 0 0 0-.14 1 5.4 5.4 0 0 0 .46 1.28Zm-2.38-5.62a3.12 3.12 0 0 0 1.17 1.46 1.54 1.54 0 0 0 1.45-.14 2.59 2.59 0 0 0 .56-.37 1.74 1.74 0 0 0 .36-.5 1.12 1.12 0 0 0 0-.87 6.68 6.68 0 0 0-.53-1.16 4.5 4.5 0 0 0-.6-.86 1.55 1.55 0 0 0-.58-.43 1.06 1.06 0 0 0-.61-.06 2.59 2.59 0 0 0-.69.26 2.67 2.67 0 0 0-.92.72.52.52 0 0 0-.08.31 2 2 0 0 0 0 .46 5 5 0 0 0 .16.57 5.22 5.22 0 0 0 .31.61ZM113.67 213.48a2.15 2.15 0 0 0-.1-1.63 8.18 8.18 0 0 0-1.62-2.37 4.65 4.65 0 0 1-.62 1.56 5.68 5.68 0 0 1-1.35 1.53 4.57 4.57 0 0 1-3.11 1.16 3.51 3.51 0 0 1-2.61-1.74 4.36 4.36 0 0 1-.7-1.64 4.18 4.18 0 0 1 0-1.69 4.41 4.41 0 0 1 .69-1.62 7.14 7.14 0 0 1 1.38-1.51 5.9 5.9 0 0 1 2-1.13 4.4 4.4 0 0 1 2-.16 5.79 5.79 0 0 1 2.08.76 10.14 10.14 0 0 1 2.11 1.65 7.46 7.46 0 0 1 1.72 2.49 5.14 5.14 0 0 1 .34 2.55 6.07 6.07 0 0 1-1 2.5 9.47 9.47 0 0 1-2.07 2.25 19.32 19.32 0 0 1-1.71 1.2 12.93 12.93 0 0 1-1.69.88l-.65-1.77.83-.32c.32-.13.65-.27 1-.44s.67-.34 1-.53a7.94 7.94 0 0 0 .88-.61 4.48 4.48 0 0 0 .79-.78 3 3 0 0 0 .41-.59Zm-7-3.34a2.84 2.84 0 0 0 1.62 1.2 2.08 2.08 0 0 0 1.67-.57 5.81 5.81 0 0 0 .91-1 4.1 4.1 0 0 0 .56-1c-.42-.47-.85-.91-1.29-1.33a7.25 7.25 0 0 0-1.28-1 2.82 2.82 0 0 0-1.23-.42 1.49 1.49 0 0 0-1.13.4 3.49 3.49 0 0 0-.54.55 2.05 2.05 0 0 0-.32.57 1.71 1.71 0 0 0 .11 1 5.81 5.81 0 0 0 .89 1.6Z"/></g></g></svg>