<svg version="1.1" id="Ebene_1" xmlns="http://www.w3.org/2000/svg" xmlns:xlink="http://www.w3.org/1999/xlink" x="0" y="0" viewBox="0 0 268.7 268.7" style="enable-background:new 0 0 268.7 268.7" xml:space="preserve"><style>.st1{fill:#fff}.st6{fill:#403f3e}.st7{fill:#434342}.st8{fill:#464545}.st9{fill:#484847}.st10{fill:#4b4b4a}.st11{fill:#4e4e4d}.st12{fill:#515050}.st13{fill:#535352}.st14{fill:#565555}.st15{fill:#585857}.st16{fill:#5c5b5a}.st17{fill:#5e5d5c}.st18{fill:#605f5f}.st19{fill:#626261}.st20{fill:#656464}.st21{fill:#676766}.st22{fill:#6a6a69}.st23{fill:#6c6c6b}.st24{fill:#6e6e6d}.st25{fill:#727070}.st26{fill:#737372}.st27{fill:#767575}.st28{fill:#787877}.st29{fill:#79797a}.st30{fill:#7c7b7c}.st31{fill:#7e7f7e}.st32{fill:#818181}.st33{fill:#838483}.st34{fill:#858685}.st35{fill:#878787}.st36{fill:#8a8989}.st37{fill:#8c8c8b}.st38{fill:#8e8e8d}.st39{fill:#909090}.st43{fill:#bababa}.st44{fill:none;stroke:#010101;stroke-width:7px;stroke-linejoin:round}</style><g id="Ebene_1-2"><g id="Ebene_1-2-2_10_"><defs><path id="SVGID_1_" d="M-8.8-8.8h286.3v286.3H-8.8z"/></defs><clipPath id="SVGID_2_"><use xlink:href="#SVGID_1_" style="overflow:visible"/></clipPath><defs><path id="SVGID_3_" d="M144.7 204.8c-.3 2.4-.8 4.7-1.5 6.9-.7 2.3-1.5 4.5-2.5 6.7 0 0-3.6.4-6.2.4s-5.9-.4-5.9-.4c-1.3-2.3-2.3-4.8-3-7.4-.9-3.7-1.1-6.1-1.1-6.1s5.2.4 10 .4 10.2-.5 10.2-.5m-31.5 12.1c-1.5-.3-3-.7-4.5-1.1-2.4-2.7-4.6-5.6-6.5-8.6-2.7-4.3-4-6.8-4-6.8s4.7 1.1 7.3 1.7 7.4 1.2 7.4 1.2 1 3 2.5 6.8c1 2.5 2.1 4.9 3.3 7.2-1.8 0-3.7-.1-5.5-.4m39.2-5.8c1.5-4.2 2.6-7.2 2.6-7.2s8.5-1.4 14.3-2.9c3.9-1 7.8-2.3 11.6-3.9 0 0-1 2-3 5.1-1.9 2.8-3.9 5.5-6.1 8.1-1.5 1.9-2.1 2.8-6.5 4.2s-15.2 3.2-15.2 3.2.8-2.5 2.3-6.6m-75.5-8.9c-4.5-2.9-8.3-6.8-10.9-11.5l-5.2-9.1s4.8 3.9 7.9 5.8 8 4.7 8 4.7 2.1 3.9 4.2 7.2L87 208s-5.8-3.1-10.1-5.8m108.9-1.8c1.6-2.4 4.2-7.2 4.2-7.2s6.9-3.8 13-7.6c8.6-5.4 16.8-15 16.8-15-4.4 9-10.4 17.1-17.8 23.9-12.1 11.1-22.3 14.8-22.3 14.8s4.5-6.5 6.1-8.9m-35.3-35.8s-.1 3.5-.6 9-1.2 10.4-1.2 10.4-4.7.6-11.6.7-15.2-.3-15.2-.3c-.6-3.6-.9-7.2-1.1-10.8-.1-5-.4-8.9-.4-8.9s9.7.4 15.1.4c5.5-.2 15-.5 15-.5m-52.3 16.5c-4.9-1.1-8.6-2.3-8.6-2.3s-1.3-4.5-2.2-9l-1.7-9.1s4.4 1 8.8 1.6 10.6 1 10.6 1 .3 3.3 1.1 10.4 1.7 9.1 1.7 9.1-4.7-.6-9.7-1.7m62.9-8.9c.6-4.6.8-8.6.8-8.6s8.9-1 16.4-2c5.3-.8 10.6-1.9 15.8-3.2-.4 2.8-.9 5.7-1.6 8.5-1 4-2.5 8.6-2.5 8.6-5.1 2-10.3 3.6-15.6 4.8-7.4 1.4-14.7 2.8-14.7 2.8s.9-6.4 1.4-10.9m-101.2-6.7c-2.5-1.7-4.8-3.6-7-5.7 0 0-.7-2.9-1-4.6-.4-2.1-.8-5.4-.8-5.4 2 1.2 4.2 2.2 6.4 3.1 2.8 1.1 7.4 2.6 7.4 2.6s.5 3.5 1.3 7.3 2.1 7.5 2.1 7.5c-2.9-1.3-5.7-2.9-8.4-4.8m140.3-1.5c.8-3.5 1.4-7.3 1.4-7.3s9.2-3.2 13.4-5.1c4-2.1 7.9-4.4 11.7-6.9 0 0 .5 1.8-3.2 7-3.7 5.4-8.4 10-13.9 13.7-3.6 2.4-7.4 4.7-11.3 6.6 0 0 1.1-4.6 1.9-8m3-30.6c-.1-5.4-.3-10.5-.3-10.5s11.3 2.5 16.7 5c7.1 3.3 9.3 7.4 1.1 11.3-5.6 2.7-11.5 4.5-17.7 5.2 0 0 .3-5.6.2-11m-145.6 9.4c-2.8-.6-7.4-2-7.4-2l.2-14.4s3.4-1.2 6.4-2.1 7-1.7 7-1.7-.5 5.8-.5 10.6.4 11 .4 11-3.4-.9-6.1-1.4m105.7-9.6c0-7.8-.5-15.6-.5-15.6s7.2.2 17.2 1.4 15.6 2.4 15.6 2.4c.5 3.7.7 7.4.7 11.1 0 6.8-.5 12.6-.5 12.6s-5.6 1-16.2 1.9-16.6 1.1-16.6 1.1.3-7.1.3-14.9m-68.2 14.4c-5-.2-10.8-1-10.8-1s-.4-5.3-.3-13 .6-14.3.6-14.3 5-.7 9.4-1 9.7-1 9.7-1-.1 8.6-.1 16.5.5 14.2.5 14.2-3.9-.2-9-.4m24.9.8s-.2-7.6-.1-16.4.2-15.2.2-15.2 10.7-.2 16.2-.2c5.4 0 15.4.5 15.4.5s.2 8 .3 14.7-.2 16.7-.2 16.7-6.6.2-14.9.2-16.9-.3-16.9-.3m-67-40.7c1.8-7.8 3.1-10.5 3.1-10.5s3.4-2.7 8.2-6c2.2-1.7 4.6-3.1 7.1-4.4-1.7 4.7-3.1 9.5-4.2 14.4-1 4.1-1.9 8.3-2.5 12.6 0 0-2.6.6-6.3 1.8s-7.2 2.8-7.2 2.8 0-2.9 1.8-10.7m161.5 9c-4.1-1.6-8.4-2.9-12.7-3.8-.8-5.3-1.9-10.6-3.3-15.9-1-3.7-2.3-7.3-3.8-10.9 0 0 13.1 6.2 22.7 17.3 9.6 11.1 11.8 21 11.8 21-4.7-2.8-9.6-5.4-14.7-7.7m-37.7-8.4c-9.5-1.2-14.8-1.6-14.8-1.6s-.3-6.7-1.8-17.1c-1.5-10.5-2.6-15.3-2.6-15.3 5.5.8 10.9 2 16.2 3.6 7.5 2.5 13.2 5 13.2 5 2.1 4.8 3.7 9.8 4.9 14.9 1.7 7.7 2.7 13.4 2.7 13.4s-8.3-1.7-17.8-2.9m-88.4-15c2.2-10.2 4.9-15.4 4.9-15.4 2.6-.9 5.2-1.6 7.9-2.2 4.7-1 8.7-1.6 8.7-1.6s-1.2 5.4-2.8 14-2.4 18.6-2.4 18.6l-8.8.8c-5.5.5-10.5 1.4-10.5 1.4s.9-5.4 3-15.6m33.3-7.1c.7-7.4 1.3-13.5 1.3-13.5 4.2-.4 8.4-.6 12.5-.5 6.5.2 12.1.8 12.1.8s1.1 6.7 2.2 16.3c1.1 9.7 1.1 16.3 1.1 16.3s-8.4-.4-15.3-.4-15.2.6-15.2.6.6-12.3 1.3-19.6M75.2 65.8c6.5-7.1 14.2-12.9 22.8-17.1-4.5 4-8.6 8.4-12.4 13.1-4.1 5.3-7.6 11-10.3 17.2 0 0-2.8 1.4-7.3 4.1-2.9 1.8-5.7 3.7-8.4 5.8 4.2-8.4 9.5-16.1 15.6-23.1m134.6 23.4c-5.8-4.5-12-8.4-18.5-11.8-3.1-6.7-7-13-11.7-18.6-5.2-6.2-11.2-11.6-17.9-16.2 0 0 20.8 5.5 35.2 18.6s21.5 26.1 24.9 34.4 4 11.2 4 11.2c-4.2-6.8-9.6-12.8-16-17.6M107.5 53.4c10.1-11.4 16-11.4 16-11.4s-2 2.2-6.2 11c-2.3 4.5-4.1 9.3-5.4 14.2-2.2.2-4.5.5-6.7 1-4.1.8-8.4 2.2-8.4 2.2 2.8-6.2 6.4-11.9 10.7-17m19.4-1.9c1.5-5.6 4.2-11.4 7.9-11.4s6 6.2 7.8 10.9c1.8 4.8 3.7 14.4 3.7 14.4s-6-.6-11-.6c-4.3 0-11.3.5-11.3.5s1.4-8.2 2.9-13.8m41.3 17.6c-7.3-1.7-12.5-2.5-12.5-2.5-1.1-5.2-2.8-10.2-4.9-15-2-4.3-4.5-8.4-7.3-12.3 0 0 12.2-.8 24.6 12.9 10.8 12 15.1 21.8 15.1 21.8-4.9-2-9.9-3.6-15-4.9m-133 61.1v8.2c2.3 54.8 48.5 97.3 103.3 95.1 54.8-2.3 97.3-48.5 95.1-103.3S185 32.8 130.2 35.1c-51.6 2.1-92.9 43.5-95 95.1"/></defs><clipPath id="SVGID_4_"><use xlink:href="#SVGID_3_" style="overflow:visible"/></clipPath><defs><path id="SVGID_5_" d="M-8.8-8.8h286.3v286.3H-8.8z"/></defs><clipPath id="SVGID_6_"><use xlink:href="#SVGID_5_" style="overflow:visible"/></clipPath></g><g id="Ebene_1-2-2_9_"><defs><path id="SVGID_7_" d="M-8.8-8.8h286.3v286.3H-8.8z"/></defs><clipPath id="SVGID_8_"><use xlink:href="#SVGID_7_" style="overflow:visible"/></clipPath><g style="clip-path:url(#SVGID_8_)"><path class="st1" d="M268.7 134.2c.1 74.2-60 134.4-134.2 134.4S.1 208.6 0 134.4C-.1 60.3 60 .1 134.2 0h.1c74.1-.1 134.3 60 134.4 134.2"/><path d="M134.3 268.6C60.3 268.6 0 208.4 0 134.3S60.3 0 134.3 0s134.3 60.2 134.3 134.3-60.2 134.3-134.3 134.3" style="fill:#4a6576"/><path class="st1" d="M4.9 134.3C4.9 62.8 62.8 4.8 134.3 4.8s129.5 57.9 129.5 129.4-57.9 129.5-129.4 129.5c-71.5.1-129.5-57.9-129.5-129.4"/><path d="M13.6 134.3c0-66.7 54-120.7 120.7-120.7S255 67.6 255 134.3 201 255 134.3 255c-66.6 0-120.7-54-120.7-120.7" style="fill:#c7d308"/><path d="M22 134.3C22 72.2 72.3 21.9 134.3 21.9c62.1 0 112.4 50.3 112.4 112.3 0 62.1-50.3 112.4-112.4 112.4-62 .1-112.3-50.2-112.3-112.3" style="fill:#fdeb38"/><path d="M30.7 134.3C30.7 77.1 77 30.7 134.2 30.6s103.7 46.3 103.7 103.5c.1 57.2-46.3 103.7-103.5 103.7h-.1c-57.2 0-103.5-46.3-103.6-103.5" style="fill:#010101"/><path class="st6" d="M228.7 134.3c0 52.1-42.3 94.4-94.4 94.4S40 186.4 40 134.3s42.3-94.4 94.4-94.4c52.1 0 94.3 42.3 94.3 94.4"/><path class="st6" d="M228.2 133.8c0 51.5-41.8 93.3-93.3 93.3s-93.3-41.8-93.3-93.3 41.8-93.3 93.3-93.3c51.5-.1 93.3 41.7 93.3 93.3 0-.1 0-.1 0 0"/><path class="st6" d="M227.6 133.2c0 50.9-41.3 92.3-92.2 92.3-50.9 0-92.3-41.3-92.3-92.2S84.4 41 135.3 41c51-.1 92.3 41.2 92.3 92.2"/><path class="st7" d="M227.1 132.6c0 50.4-40.8 91.2-91.2 91.2S44.7 183 44.7 132.6c0-50.4 40.8-91.2 91.2-91.2s91.2 40.9 91.2 91.2"/><path class="st7" d="M226.5 132.1c0 49.8-40.4 90.1-90.1 90.1-49.8 0-90.1-40.4-90.1-90.1 0-49.8 40.4-90.1 90.1-90.1 49.8-.1 90.1 40.3 90.1 90.1"/><path class="st8" d="M226 131.5c0 49.2-39.9 89.1-89.1 89.1s-89.1-39.9-89.1-89.1 40-89.1 89.2-89.1 89 39.9 89 89.1"/><path class="st8" d="M225.5 130.9c0 48.6-39.4 88-88 88s-88-39.4-88-88 39.4-88 88-88 88 39.4 88 88"/><path class="st8" d="M224.9 130.4c0 48-38.9 86.9-86.9 86.9s-86.9-38.9-86.9-86.9c0-48 38.9-86.9 86.9-86.9 48-.1 86.9 38.8 86.9 86.9"/><path class="st9" d="M224.4 129.8c0 47.4-38.4 85.9-85.9 85.9s-85.9-38.4-85.9-85.9c0-47.4 38.4-85.9 85.9-85.9 47.4 0 85.9 38.5 85.9 85.9"/><path class="st9" d="M223.9 129.2c0 46.8-38 84.8-84.8 84.8s-84.8-38-84.8-84.8 38-84.8 84.8-84.8 84.7 38 84.8 84.8"/><path class="st10" d="M223.3 128.7c0 46.2-37.5 83.7-83.7 83.7s-83.7-37.5-83.7-83.7S93.4 45 139.6 45c46.2-.1 83.7 37.4 83.7 83.7"/><path class="st10" d="M222.8 128.2c0 45.7-37 82.7-82.7 82.7s-82.7-37-82.7-82.7 37-82.7 82.7-82.7c45.6 0 82.7 37 82.7 82.7"/><path class="st10" d="M222.2 127.6c0 45.1-36.5 81.6-81.6 81.6S59 172.6 59 127.6 95.5 46 140.6 46c45.1-.1 81.6 36.5 81.6 81.6"/><path class="st11" d="M221.7 127c0 44.5-36.1 80.6-80.5 80.6-44.5 0-80.6-36.1-80.6-80.5s36.1-80.6 80.5-80.6c44.6-.1 80.6 36 80.6 80.5"/><path class="st11" d="M221.2 126.4c0 43.9-35.6 79.5-79.5 79.5s-79.5-35.6-79.5-79.5 35.6-79.5 79.5-79.5 79.5 35.6 79.5 79.5"/><path class="st12" d="M220.6 125.9c0 43.3-35.1 78.4-78.4 78.4s-78.4-35.1-78.4-78.4c0-43.3 35.1-78.4 78.4-78.4 43.3-.1 78.4 35 78.4 78.4"/><path class="st12" d="M220.1 125.3c0 42.7-34.6 77.4-77.4 77.4S65.4 168 65.3 125.3s34.6-77.4 77.3-77.4c42.8 0 77.5 34.7 77.5 77.4"/><path class="st12" d="M219.5 124.7c0 42.1-34.2 76.3-76.3 76.3s-76.3-34.2-76.3-76.3c0-42.1 34.1-76.3 76.2-76.3 42.2 0 76.4 34.2 76.4 76.3"/><path class="st13" d="M219 124.2c0 41.5-33.7 75.2-75.2 75.2s-75.2-33.7-75.2-75.2S102.3 49 143.8 49c41.5-.1 75.2 33.6 75.2 75.2 0-.1 0 0 0 0"/><path class="st13" d="M218.4 123.6c0 41-33.2 74.2-74.2 74.2S70 164.6 70 123.6s33.2-74.2 74.2-74.2 74.2 33.2 74.2 74.2"/><path class="st13" d="M217.9 123c0 40.4-32.7 73.1-73.1 73.1S71.7 163.4 71.7 123s32.7-73.1 73.1-73.1c40.4 0 73.1 32.8 73.1 73.1"/><path class="st14" d="M217.4 122.5c0 39.8-32.2 72-72 72s-72-32.2-72-72 32.2-72 72-72 72 32.2 72 72"/><path class="st14" d="M216.8 121.9c0 39.2-31.8 71-71 71s-71-31.8-71-71 31.8-71 71-71 71 31.8 71 71"/><path class="st15" d="M216.3 121.4c0 38.6-31.3 69.9-69.9 69.9S76.5 160 76.5 121.4s31.3-69.9 69.9-69.9c38.6-.1 69.9 31.2 69.9 69.9"/><path class="st15" d="M215.7 120.8c0 38-30.8 68.8-68.8 68.8s-68.8-30.8-68.8-68.9c0-38 30.8-68.8 68.8-68.8s68.8 30.9 68.8 68.9"/><path class="st15" d="M215.2 120.2c0 37.4-30.3 67.8-67.8 67.8s-67.8-30.3-67.8-67.8 30.3-67.8 67.8-67.8c37.4 0 67.8 30.3 67.8 67.8"/><path class="st16" d="M214.7 119.7c0 36.8-29.9 66.7-66.7 66.7s-66.7-29.9-66.7-66.7S111.2 53 148 53c36.8-.1 66.6 29.8 66.7 66.7"/><path class="st16" d="M214.1 119.1c0 36.3-29.4 65.7-65.6 65.7s-65.7-29.4-65.7-65.7 29.4-65.6 65.7-65.6c36.2-.1 65.6 29.3 65.6 65.6"/><path class="st17" d="M213.6 118.5c0 35.7-28.9 64.6-64.6 64.6s-64.6-28.9-64.6-64.6 28.9-64.6 64.6-64.6c35.7 0 64.6 29 64.6 64.6"/><path class="st17" d="M213 118c0 35.1-28.4 63.5-63.5 63.5S86 153 86 118c0-35.1 28.4-63.5 63.5-63.5 35.1-.1 63.5 28.4 63.5 63.5"/><path class="st17" d="M212.5 117.4c0 34.5-28 62.5-62.5 62.5s-62.5-28-62.5-62.5 28-62.5 62.5-62.5 62.5 28 62.5 62.5"/><path class="st18" d="M212 116.8c0 33.9-27.5 61.4-61.4 61.4s-61.4-27.5-61.4-61.4 27.5-61.4 61.4-61.4S212 82.9 212 116.8"/><path class="st18" d="M211.4 116.3c0 33.3-27 60.3-60.3 60.3s-60.3-27-60.3-60.3 27-60.3 60.3-60.3c33.3-.1 60.3 27 60.3 60.3"/><path class="st18" d="M210.9 115.7c0 32.7-26.5 59.3-59.3 59.3-32.7 0-59.3-26.5-59.3-59.3s26.5-59.3 59.3-59.3c32.7 0 59.3 26.6 59.3 59.3"/><path class="st19" d="M210.3 115.2c0 32.1-26.1 58.2-58.2 58.2s-58.2-26.1-58.2-58.2C93.9 83 120 56.9 152.1 57c32.2 0 58.3 26 58.2 58.2.1 0 .1 0 0 0"/><path class="st19" d="M209.8 114.6c0 31.6-25.6 57.1-57.1 57.1s-57.1-25.6-57.1-57.1 25.6-57.1 57.1-57.1 57.1 25.5 57.1 57.1"/><path class="st20" d="M209.3 114c0 31-25.1 56.1-56.1 56.1S97.1 145 97.1 114s25.1-56 56.1-56c30.9 0 56.1 25.1 56.1 56"/><path class="st20" d="M208.7 113.5c0 30.4-24.6 55-55 55s-55-24.6-55-55 24.6-55 55-55 55 24.6 55 55"/><path class="st20" d="M208.2 112.9c0 29.8-24.2 54-53.9 53.9-29.8 0-54-24.2-54-53.9s24.2-53.9 54-53.9c29.7-.1 53.9 24.1 53.9 53.9"/><path class="st21" d="M207.6 112.3c0 29.2-23.7 52.9-52.9 52.9s-52.9-23.7-52.9-52.9 23.7-52.9 52.9-52.9c29.2.1 52.9 23.7 52.9 52.9"/><path class="st21" d="M207.1 111.8c0 28.6-23.2 51.8-51.8 51.8s-51.8-23.2-51.8-51.8S126.7 60 155.3 60c28.6 0 51.8 23.2 51.8 51.8"/><path class="st22" d="M206.6 111.2c0 28-22.7 50.8-50.8 50.8-28 0-50.8-22.7-50.8-50.7 0-28 22.7-50.8 50.8-50.8 28-.1 50.8 22.6 50.8 50.7"/><path class="st22" d="M206 110.6c0 27.4-22.2 49.7-49.7 49.7-27.4 0-49.7-22.2-49.7-49.7 0-27.4 22.2-49.7 49.7-49.7 27.5.1 49.7 22.3 49.7 49.7"/><path class="st22" d="M205.5 110.1c0 26.9-21.8 48.6-48.6 48.6-26.9 0-48.6-21.8-48.6-48.6s21.8-48.6 48.6-48.6 48.6 21.7 48.6 48.6"/><path class="st23" d="M204.9 109.5c0 26.3-21.3 47.6-47.6 47.6s-47.6-21.3-47.6-47.6 21.3-47.6 47.6-47.6c26.3.1 47.6 21.3 47.6 47.6"/><path class="st23" d="M204.4 109c0 25.7-20.8 46.5-46.5 46.5s-46.5-20.8-46.5-46.5 20.8-46.5 46.5-46.5 46.5 20.8 46.5 46.5"/><path class="st24" d="M203.9 108.4c0 25.1-20.3 45.4-45.4 45.4-25.1 0-45.4-20.3-45.4-45.4S133.3 63 158.4 63c25.1-.1 45.5 20.3 45.5 45.4"/><path class="st24" d="M203.3 107.8c0 24.5-19.9 44.4-44.4 44.4s-44.4-19.9-44.4-44.4 19.9-44.4 44.4-44.4c24.5.1 44.4 19.9 44.4 44.4"/><path class="st24" d="M202.8 107.3c0 23.9-19.4 43.3-43.3 43.3s-43.3-19.4-43.3-43.3S135.6 64 159.5 64s43.3 19.3 43.3 43.3"/><path class="st25" d="M202.2 106.7c0 23.3-18.9 42.3-42.2 42.3-23.3 0-42.2-18.9-42.2-42.3s18.9-42.2 42.2-42.2c23.3 0 42.2 18.9 42.2 42.2"/><path class="st25" d="M201.7 106.2c0 22.7-18.4 41.2-41.2 41.2-22.7 0-41.2-18.4-41.2-41.2S137.8 65 160.5 65c22.7 0 41.2 18.4 41.2 41.2"/><path class="st25" d="M201.2 105.6c0 22.2-18 40.1-40.1 40.1-22.2 0-40.1-18-40.1-40.1 0-22.2 18-40.1 40.1-40.1s40.1 17.9 40.1 40.1"/><path class="st26" d="M200.6 105c0 21.6-17.5 39.1-39.1 39.1s-39.1-17.5-39.1-39.1 17.5-39.1 39.1-39.1c21.5 0 39 17.4 39.1 38.9v.2"/><path class="st26" d="M200.1 104.4c0 21-17 38-38 38s-38-17-38-38 17-38 38-38 38 17.1 38 38"/><path class="st27" d="M199.5 103.9c0 20.4-16.5 36.9-36.9 36.9s-36.9-16.5-36.9-36.9S142.2 67 162.6 67c20.4-.1 36.9 16.5 36.9 36.9"/><path class="st27" d="M199 103.3c0 19.8-16.1 35.9-35.9 35.9-19.8 0-35.9-16.1-35.9-35.9 0-19.8 16.1-35.9 35.9-35.9 19.9.1 35.9 16.1 35.9 35.9"/><path class="st27" d="M198.5 102.8c0 19.2-15.6 34.8-34.8 34.8-19.2 0-34.8-15.6-34.8-34.8S144.4 68 163.6 68c19.3 0 34.8 15.5 34.9 34.8"/><path class="st28" d="M197.9 102.2c0 18.6-15.1 33.7-33.7 33.8-18.6 0-33.7-15.1-33.8-33.7s15.1-33.7 33.7-33.7c18.7-.1 33.8 14.9 33.8 33.6"/><path class="st28" d="M197.4 101.6c0 18-14.6 32.7-32.7 32.7S132 119.7 132 101.6c0-18 14.6-32.7 32.7-32.7 18 .1 32.7 14.7 32.7 32.7"/><path class="st29" d="M196.8 101.1c0 17.5-14.2 31.6-31.6 31.6s-31.6-14.2-31.6-31.6c0-17.4 14.1-31.6 31.6-31.6 17.4 0 31.6 14.1 31.6 31.6"/><path class="st29" d="M196.3 100.5c0 16.9-13.7 30.5-30.5 30.5-16.9 0-30.5-13.7-30.5-30.5S148.9 70 165.8 70c16.8 0 30.5 13.6 30.5 30.5"/><path class="st29" d="M195.8 99.9c0 16.3-13.2 29.5-29.5 29.5s-29.5-13.2-29.5-29.5 13.2-29.5 29.5-29.5c16.2.1 29.4 13.2 29.5 29.5-.1 0-.1 0 0 0"/><path class="st30" d="M195.2 99.4c0 15.7-12.7 28.4-28.4 28.4s-28.4-12.7-28.4-28.4S151.1 71 166.8 71h.1c15.6 0 28.3 12.7 28.3 28.4"/><path class="st30" d="M194.7 98.8c0 15.1-12.2 27.3-27.4 27.3S140 113.9 140 98.8s12.2-27.4 27.4-27.4c15 .1 27.3 12.3 27.3 27.4"/><path class="st30" d="M194.2 98.2c0 14.5-11.8 26.3-26.3 26.3s-26.3-11.8-26.3-26.3 11.7-26.3 26.2-26.3c14.6 0 26.4 11.8 26.4 26.3"/><path class="st31" d="M193.6 97.7c0 13.9-11.3 25.2-25.2 25.2-13.9 0-25.2-11.3-25.2-25.2s11.3-25.2 25.2-25.2c13.9 0 25.2 11.3 25.2 25.2"/><path class="st31" d="M193 97.2c0 13.3-10.9 24.1-24.2 24.1-13.3 0-24.1-10.9-24.1-24.2 0-13.3 10.8-24.1 24.2-24.1 13.3 0 24.2 10.8 24.1 24.2.1-.1.1-.1 0 0"/><path class="st32" d="M192.5 96.6c0 12.8-10.3 23.1-23.1 23.1s-23.1-10.3-23.1-23.1 10.3-23.1 23.1-23.1c12.7 0 23.1 10.3 23.1 23.1"/><path class="st32" d="M192 96c0 12.2-9.8 22-22 22s-22-9.8-22-22 9.8-22 22-22 22 9.8 22 22"/><path class="st32" d="M191.4 95.4c0 11.6-9.4 21-21 21s-21-9.4-21-21 9.4-21 21-21 21 9.4 21 21"/><path class="st33" d="M190.9 94.9c0 11-8.9 19.9-19.9 19.9-11 0-19.9-8.9-19.9-19.9S160 75 171 75c11 0 19.9 8.9 19.9 19.9"/><path class="st33" d="M190.4 94.3c0 10.4-8.4 18.8-18.8 18.8s-18.8-8.4-18.8-18.8 8.4-18.8 18.8-18.8c10.3 0 18.7 8.4 18.8 18.8"/><path class="st34" d="M189.8 93.7c0 9.8-8 17.8-17.8 17.8s-17.8-8-17.8-17.8S162.2 76 172 76s17.8 7.9 17.8 17.7"/><path class="st34" d="M189.3 93.2c0 9.2-7.5 16.7-16.7 16.7s-16.7-7.5-16.7-16.7 7.5-16.7 16.7-16.7 16.7 7.4 16.7 16.7"/><path class="st34" d="M188.7 92.6c0 8.6-7 15.7-15.6 15.7s-15.7-7-15.7-15.6 7-15.6 15.6-15.7c8.7 0 15.7 7 15.7 15.6"/><path class="st35" d="M188.2 92c0 8.1-6.5 14.6-14.6 14.6S159 100.1 159 92.1s6.5-14.6 14.6-14.6c8 0 14.6 6.5 14.6 14.5"/><path class="st35" d="M187.6 91.5c0 7.5-6.1 13.5-13.5 13.5-7.5 0-13.5-6.1-13.5-13.5 0-7.5 6.1-13.5 13.5-13.5 7.5 0 13.6 6 13.5 13.5"/><path class="st36" d="M187.1 90.9c0 6.9-5.6 12.5-12.5 12.5s-12.5-5.6-12.5-12.5 5.6-12.5 12.5-12.5 12.5 5.6 12.5 12.5"/><path class="st36" d="M186.6 90.4c0 6.3-5.1 11.4-11.4 11.4s-11.4-5.1-11.4-11.4c0-6.3 5.1-11.4 11.4-11.4 6.3 0 11.4 5.1 11.4 11.4"/><path class="st36" d="M186 89.8c0 5.7-4.6 10.3-10.3 10.3-5.7 0-10.3-4.6-10.3-10.3 0-5.7 4.6-10.3 10.3-10.3 5.7 0 10.3 4.6 10.3 10.3"/><path class="st37" d="M185.5 89.2c0 5.1-4.2 9.3-9.3 9.3-5.1 0-9.3-4.2-9.3-9.3 0-5.1 4.1-9.2 9.2-9.3 5.2 0 9.4 4.2 9.4 9.3"/><path class="st37" d="M185 88.7c0 4.5-3.7 8.2-8.2 8.2-4.5 0-8.2-3.7-8.2-8.2 0-4.5 3.7-8.2 8.2-8.2 4.5 0 8.2 3.6 8.2 8.2"/><path class="st37" d="M184.4 88.1c0 3.9-3.2 7.1-7.1 7.1-3.9 0-7.1-3.2-7.1-7.1s3.2-7.1 7.1-7.1c3.9 0 7.1 3.2 7.1 7.1"/><path class="st38" d="M183.9 87.5c0 3.4-2.7 6.1-6.1 6.1-3.4 0-6.1-2.7-6.1-6.1 0-3.4 2.7-6.1 6.1-6.1 3.3.1 6.1 2.8 6.1 6.1"/><path class="st38" d="M183.3 87c0 2.8-2.2 5-5 5s-5-2.2-5-5 2.2-5 5-5 5 2.2 5 5"/><path class="st39" d="M182.8 86.4c0 2.2-1.8 3.9-4 3.9s-3.9-1.8-3.9-4 1.8-3.9 4-3.9c2.1 0 3.8 1.8 3.9 3.9v.1"/><path class="st39" d="M182.2 85.9c0 1.6-1.3 2.9-2.9 2.9-1.6 0-2.9-1.3-2.9-2.9 0-1.6 1.3-2.9 2.9-2.9 1.7 0 2.9 1.2 2.9 2.9.1-.1.1-.1 0 0"/></g><defs><path id="SVGID_9_" d="M144.7 204.8c-.3 2.4-.8 4.7-1.5 6.9-.7 2.3-1.5 4.5-2.5 6.7 0 0-3.6.4-6.2.4s-5.9-.4-5.9-.4c-1.3-2.3-2.3-4.8-3-7.4-.9-3.7-1.1-6.1-1.1-6.1s5.2.4 10 .4 10.2-.5 10.2-.5m-31.5 12.1c-1.5-.3-3-.7-4.5-1.1-2.4-2.7-4.6-5.6-6.5-8.6-2.7-4.3-4-6.8-4-6.8s4.7 1.1 7.3 1.7 7.4 1.2 7.4 1.2 1 3 2.5 6.8c1 2.5 2.1 4.9 3.3 7.2-1.8 0-3.7-.1-5.5-.4m39.2-5.8c1.5-4.2 2.6-7.2 2.6-7.2s8.5-1.4 14.3-2.9c3.9-1 7.8-2.3 11.6-3.9 0 0-1 2-3 5.1-1.9 2.8-3.9 5.5-6.1 8.1-1.5 1.9-2.1 2.8-6.5 4.2s-15.2 3.2-15.2 3.2.8-2.5 2.3-6.6m-75.5-8.9c-4.5-2.9-8.3-6.8-10.9-11.5l-5.2-9.1s4.8 3.9 7.9 5.8 8 4.7 8 4.7 2.1 3.9 4.2 7.2L87 208s-5.8-3.1-10.1-5.8m108.9-1.8c1.6-2.4 4.2-7.2 4.2-7.2s6.9-3.8 13-7.6c8.6-5.4 16.8-15 16.8-15-4.4 9-10.4 17.1-17.8 23.9-12.1 11.1-22.3 14.8-22.3 14.8s4.5-6.5 6.1-8.9m-35.3-35.8s-.1 3.5-.6 9-1.2 10.4-1.2 10.4-4.7.6-11.6.7-15.2-.3-15.2-.3c-.6-3.6-.9-7.2-1.1-10.8-.1-5-.4-8.9-.4-8.9s9.7.4 15.1.4c5.5-.2 15-.5 15-.5m-52.3 16.5c-4.9-1.1-8.6-2.3-8.6-2.3s-1.3-4.5-2.2-9l-1.7-9.1s4.4 1 8.8 1.6 10.6 1 10.6 1 .3 3.3 1.1 10.4 1.7 9.1 1.7 9.1-4.7-.6-9.7-1.7m62.9-8.9c.6-4.6.8-8.6.8-8.6s8.9-1 16.4-2c5.3-.8 10.6-1.9 15.8-3.2-.4 2.8-.9 5.7-1.6 8.5-1 4-2.5 8.6-2.5 8.6-5.1 2-10.3 3.6-15.6 4.8-7.4 1.4-14.7 2.8-14.7 2.8s.9-6.4 1.4-10.9m-101.2-6.7c-2.5-1.7-4.8-3.6-7-5.7 0 0-.7-2.9-1-4.6-.4-2.1-.8-5.4-.8-5.4 2 1.2 4.2 2.2 6.4 3.1 2.8 1.1 7.4 2.6 7.4 2.6s.5 3.5 1.3 7.3 2.1 7.5 2.1 7.5c-2.9-1.3-5.7-2.9-8.4-4.8m140.3-1.5c.8-3.5 1.4-7.3 1.4-7.3s9.2-3.2 13.4-5.1c4-2.1 7.9-4.4 11.7-6.9 0 0 .5 1.8-3.2 7-3.7 5.4-8.4 10-13.9 13.7-3.6 2.4-7.4 4.7-11.3 6.6 0 0 1.1-4.6 1.9-8m3-30.6c-.1-5.4-.3-10.5-.3-10.5s11.3 2.5 16.7 5c7.1 3.3 9.3 7.4 1.1 11.3-5.6 2.7-11.5 4.5-17.7 5.2 0 0 .3-5.6.2-11m-145.6 9.4c-2.8-.6-7.4-2-7.4-2l.2-14.4s3.4-1.2 6.4-2.1 7-1.7 7-1.7-.5 5.8-.5 10.6.4 11 .4 11-3.4-.9-6.1-1.4m105.7-9.6c0-7.8-.5-15.6-.5-15.6s7.2.2 17.2 1.4 15.6 2.4 15.6 2.4c.5 3.7.7 7.4.7 11.1 0 6.8-.5 12.6-.5 12.6s-5.6 1-16.2 1.9-16.6 1.1-16.6 1.1.3-7.1.3-14.9m-68.2 14.4c-5-.2-10.8-1-10.8-1s-.4-5.3-.3-13 .6-14.3.6-14.3 5-.7 9.4-1 9.7-1 9.7-1-.1 8.6-.1 16.5.5 14.2.5 14.2-3.9-.2-9-.4m24.9.8s-.2-7.6-.1-16.4.2-15.2.2-15.2 10.7-.2 16.2-.2c5.4 0 15.4.5 15.4.5s.2 8 .3 14.7-.2 16.7-.2 16.7-6.6.2-14.9.2-16.9-.3-16.9-.3m-67-40.7c1.8-7.8 3.1-10.5 3.1-10.5s3.4-2.7 8.2-6c2.2-1.7 4.6-3.1 7.1-4.4-1.7 4.7-3.1 9.5-4.2 14.4-1 4.1-1.9 8.3-2.5 12.6 0 0-2.6.6-6.3 1.8s-7.2 2.8-7.2 2.8 0-2.9 1.8-10.7m161.5 9c-4.1-1.6-8.4-2.9-12.7-3.8-.8-5.3-1.9-10.6-3.3-15.9-1-3.7-2.3-7.3-3.8-10.9 0 0 13.1 6.2 22.7 17.3 9.6 11.1 11.8 21 11.8 21-4.7-2.8-9.6-5.4-14.7-7.7m-37.7-8.4c-9.5-1.2-14.8-1.6-14.8-1.6s-.3-6.7-1.8-17.1c-1.5-10.5-2.6-15.3-2.6-15.3 5.5.8 10.9 2 16.2 3.6 7.5 2.5 13.2 5 13.2 5 2.1 4.8 3.7 9.8 4.9 14.9 1.7 7.7 2.7 13.4 2.7 13.4s-8.3-1.7-17.8-2.9m-88.4-15c2.2-10.2 4.9-15.4 4.9-15.4 2.6-.9 5.2-1.6 7.9-2.2 4.7-1 8.7-1.6 8.7-1.6s-1.2 5.4-2.8 14-2.4 18.6-2.4 18.6l-8.8.8c-5.5.5-10.5 1.4-10.5 1.4s.9-5.4 3-15.6m33.3-7.1c.7-7.4 1.3-13.5 1.3-13.5 4.2-.4 8.4-.6 12.5-.5 6.5.2 12.1.8 12.1.8s1.1 6.7 2.2 16.3c1.1 9.7 1.1 16.3 1.1 16.3s-8.4-.4-15.3-.4-15.2.6-15.2.6.6-12.3 1.3-19.6M75.2 65.8c6.5-7.1 14.2-12.9 22.8-17.1-4.5 4-8.6 8.4-12.4 13.1-4.1 5.3-7.6 11-10.3 17.2 0 0-2.8 1.4-7.3 4.1-2.9 1.8-5.7 3.7-8.4 5.8 4.2-8.4 9.5-16.1 15.6-23.1m134.6 23.4c-5.8-4.5-12-8.4-18.5-11.8-3.1-6.7-7-13-11.7-18.6-5.2-6.2-11.2-11.6-17.9-16.2 0 0 20.8 5.5 35.2 18.6s21.5 26.1 24.9 34.4 4 11.2 4 11.2c-4.2-6.8-9.6-12.8-16-17.6M107.5 53.4c10.1-11.4 16-11.4 16-11.4s-2 2.2-6.2 11c-2.3 4.5-4.1 9.3-5.4 14.2-2.2.2-4.5.5-6.7 1-4.1.8-8.4 2.2-8.4 2.2 2.8-6.2 6.4-11.9 10.7-17m19.4-1.9c1.5-5.6 4.2-11.4 7.9-11.4s6 6.2 7.8 10.9c1.8 4.8 3.7 14.4 3.7 14.4s-6-.6-11-.6c-4.3 0-11.3.5-11.3.5s1.4-8.2 2.9-13.8m41.3 17.6c-7.3-1.7-12.5-2.5-12.5-2.5-1.1-5.2-2.8-10.2-4.9-15-2-4.3-4.5-8.4-7.3-12.3 0 0 12.2-.8 24.6 12.9 10.8 12 15.1 21.8 15.1 21.8-4.9-2-9.9-3.6-15-4.9m-133 61.1v8.2c2.3 54.8 48.5 97.3 103.3 95.1 54.8-2.3 97.3-48.5 95.1-103.3S185 32.8 130.2 35.1c-51.6 2.1-92.9 43.5-95 95.1"/></defs><clipPath id="SVGID_10_"><use xlink:href="#SVGID_9_" style="overflow:visible"/></clipPath><g style="clip-path:url(#SVGID_10_)"><radialGradient id="SVGID_11_" cx="-993.004" cy="269.859" r="1" gradientTransform="matrix(99.49 0 0 -99.49 98929.031 26981.742)" gradientUnits="userSpaceOnUse"><stop offset="0" style="stop-color:#fff"/><stop offset="1" style="stop-color:#e5e5e4"/></radialGradient><path style="fill:url(#SVGID_11_)" d="M35.2 35.1h198.4v198.5H35.2z"/></g><defs><path id="SVGID_12_" d="M-8.8-8.8h286.3v286.3H-8.8z"/></defs><clipPath id="SVGID_13_"><use xlink:href="#SVGID_12_" style="overflow:visible"/></clipPath><g style="clip-path:url(#SVGID_13_)"><path class="st43" d="M97.7 112c11.7-1.4 23.5-2.1 35.4-2.1 11.5-.1 23.1.7 34.5 2.2 0 0-16.9-.5-34.3-.5s-35.6.4-35.6.4"/><path class="st43" d="M157.1 97s2.6 20.2 2.6 36.4c-.1 11.4-.9 22.7-2.2 34 0 0 .5-19.6.5-33.9s-.9-36.5-.9-36.5M119.5 63.8S111 92.4 111 131c0 44.2 8.5 66.3 8.5 66.3-2.7-21.9-4.2-43.9-4.4-66 .2-22.6 1.6-45.2 4.4-67.5"/><path class="st43" d="M60.4 147.3s10.1 3.2 30 4.9 65.7 2.3 83.2.8 31-3.5 31-3.5-24.4 9.3-65.1 9.5c-55.2.3-79-11.7-79.1-11.7"/><path class="st43" d="M98.7 56.2s-20.4 26.1-20.4 76.4c0 57.3 27.1 86.8 27.1 86.8s-35.1-26.3-35.1-86.9c0-49 28.4-76.3 28.4-76.3"/><path class="st43" d="M85.9 212.4s19.4 10.8 50.3 10.8 52.5-12.9 52.5-12.9-24.2 16.9-52.5 16.9-50.3-14.8-50.3-14.8M65.5 196.6s-18.9-25.4-18.9-61.3c0-34.3 14-57.8 14-57.8S42.2 100.1 42.2 135c0 36.1 23.3 61.6 23.3 61.6"/><path class="st43" d="M48.8 162.7s16 14.5 36.7 20.3c16.4 4.6 33.4 6.9 50.4 6.8 13.4 0 36.3-1.9 50.6-7.1 10.4-3.9 20.4-8.9 29.8-14.9-9 9.5-20 16.9-32.2 21.7-19.9 7.5-32.2 9.5-49.1 9.5-20.3.2-40.3-4.7-58.3-14.2-18.1-9.5-27.9-22.1-27.9-22.1"/><path class="st44" d="M51.7 149.7c.8-.1 1.5-.3 2.3-.5l1.8-.6 1.8-.8v-5.9h-.7c-.3.3-.7.6-1.2.9-.5.4-1 .7-1.5 1-.7.4-1.4.8-2.1 1-.7.2-1.5.3-2.3.3-.8 0-1.7-.1-2.5-.4-.8-.3-1.6-.7-2.3-1.3-.7-.7-1.3-1.5-1.7-2.4-.8-2.5-.8-5.2 0-7.6.3-.9.9-1.8 1.6-2.5.6-.6 1.4-1.1 2.2-1.4.8-.3 1.7-.4 2.6-.4.8 0 1.5.1 2.3.4.7.2 1.4.5 2 .9.6.3 1.1.7 1.6 1.1.5.4.9.7 1.2.9h.7v-6c-.4-.2-1-.5-1.6-.7-.7-.3-1.3-.5-2-.7-.8-.2-1.5-.4-2.3-.5-.9-.1-1.9-.2-2.8-.2-1.8 0-3.5.3-5.2.9-1.5.5-2.9 1.4-4 2.5-1.1 1.2-2 2.6-2.5 4.1-1.2 3.5-1.2 7.4 0 10.9 1.1 3 3.5 5.4 6.6 6.4 1.6.6 3.4.8 5.1.8 1 0 1.9-.1 2.9-.2zM74 144.8c-1.5.6-3.2.6-4.7 0-.8-.3-1.4-.8-1.9-1.4-.6-.7-1.1-1.6-1.3-2.5-.4-1.2-.5-2.5-.5-3.8 0-1.3.2-2.6.5-3.8.3-.9.7-1.8 1.4-2.6.5-.6 1.2-1.1 2-1.4.7-.3 1.5-.4 2.3-.4.8 0 1.6.2 2.3.4.8.3 1.5.8 2 1.4.6.7 1.1 1.6 1.3 2.5.4 1.2.5 2.5.5 3.8 0 1.2-.1 2.4-.4 3.6-.3 1-.7 1.9-1.4 2.7-.6.6-1.3 1.1-2.1 1.5zm7-17.2c-2.3-2.3-5.4-3.4-9.4-3.4s-7.1 1.2-9.3 3.5c-2.2 2.3-3.4 5.5-3.4 9.4s1.1 7.1 3.4 9.4c2.3 2.3 5.4 3.5 9.3 3.5 4 0 7.1-1.2 9.4-3.5s3.4-5.4 3.4-9.4-1.2-7.2-3.4-9.5zM105.2 144.6H93.8v-19.9h-6.4v24.7h17.8zM128.8 124.7h-6.4v15.4c.1 1.4-.3 2.8-1.1 3.9-.9.9-2.2 1.3-3.5 1.2-1.3.1-2.6-.3-3.5-1.3-.8-1.1-1.2-2.5-1.1-3.8v-15.4h-6.4v15.8c-.2 2.6.9 5.2 2.8 7 1.9 1.6 4.6 2.4 8.2 2.4s6.4-.8 8.2-2.4c1.9-1.8 3-4.4 2.8-7v-15.8zM158.8 124.7h-7.4l-5.5 12.4-5.6-12.4h-7.4v24.7h6v-16.6l4.6 10.8h4.4l4.6-10.8v16.6h6.3zM177.4 143.3c-.3.5-.8.9-1.4 1.1-.7.3-1.4.4-2.1.4h-4.3v-6.2h4.1c.7 0 1.4.1 2.1.2.6.1 1.2.5 1.5 1 .3.5.5 1.2.5 1.8 0 .7-.1 1.2-.4 1.7zM176 133c-.2.5-.6.8-1.1 1-.5.2-1.1.3-1.7.3h-3.6v-5.2h3.6c.6 0 1.2.1 1.7.3.5.2.9.5 1.1.9.2.4.3.8.3 1.2 0 .6-.1 1.1-.3 1.5zm7 4.8c-1-1.1-2.4-1.8-3.8-2v-.1c1.1-.4 2-1.2 2.7-2.1 1.2-1.8 1.3-4 .3-5.9-.5-.8-1.2-1.5-2.1-1.9-.9-.4-1.8-.7-2.8-.9-1.5-.2-2.9-.2-4.4-.2h-9.6v24.7h10.8c1.5 0 3-.1 4.4-.5 1.2-.3 2.3-.8 3.2-1.6.8-.6 1.5-1.4 2-2.3.5-1 .7-2.1.7-3.2.1-1.5-.4-2.9-1.4-4zM209 124.7h-6.4v15.4c.1 1.4-.3 2.8-1.1 3.9-.9.9-2.2 1.3-3.5 1.2-1.3.1-2.6-.3-3.5-1.3-.8-1.1-1.2-2.5-1.1-3.8v-15.4H187v15.8c-.2 2.6.9 5.2 2.8 7 1.9 1.6 4.6 2.4 8.2 2.4 3.6 0 6.4-.8 8.2-2.4 1.9-1.8 2.9-4.4 2.8-7v-15.8zM231.5 137.4a8.62 8.62 0 0 0-4.2-2.5c-1-.3-1.9-.6-2.7-.7l-2.6-.6c-1-.1-1.9-.5-2.8-.9-.5-.3-.8-.9-.8-1.5 0-.4.2-.8.5-1.2.3-.3.7-.6 1.1-.8.5-.2 1-.3 1.5-.4.5-.1 1.1-.1 1.6-.1 1.5 0 3 .3 4.4.8 1.3.5 2.6 1.1 3.7 2h.7v-5.7c-1.3-.5-2.7-.9-4.1-1.2-1.6-.3-3.2-.5-4.8-.5-2.8-.1-5.6.6-8 2.2-3.2 2.2-4 6.5-1.9 9.7l.2.2c1.2 1.3 2.8 2.3 4.5 2.8 1 .3 1.9.6 2.9.7l3 .6c.7.1 1.4.4 2 .9.4.3.7.9.7 1.4 0 .5-.1 1-.5 1.3-.4.3-.8.6-1.2.7-.5.2-1 .3-1.5.3-.5.1-1 .1-1.5.1-1.6 0-3.2-.3-4.7-.8-1.6-.5-3.1-1.4-4.4-2.4h-.7v5.9c1.4.6 2.8 1 4.3 1.4 1.8.4 3.6.6 5.4.5 3.5 0 6.4-.8 8.4-2.3 2-1.3 3.1-3.6 3.1-5.9-.2-1.3-.7-2.8-1.6-4z"/></g><path class="st1" d="M48.8 149.9c-1.7 0-3.5-.3-5.1-.8-3.1-1-5.5-3.4-6.6-6.4-.6-1.8-1-3.7-.9-5.6 0-1.8.3-3.6.9-5.3.6-1.5 1.4-2.9 2.5-4.1 1.1-1.1 2.5-2 4-2.5 1.7-.6 3.4-.9 5.2-.9.9 0 1.9.1 2.8.2.8.1 1.6.3 2.3.4.7.2 1.3.4 2 .7.6.3 1.1.5 1.6.7v6h-.7c-.3-.3-.7-.6-1.2-.9-.5-.4-1-.7-1.6-1.1-.6-.4-1.3-.7-2-.9-.7-.3-1.5-.4-2.3-.4-.9 0-1.7.1-2.6.4-.8.3-1.6.8-2.2 1.4-.7.7-1.2 1.6-1.6 2.5-.8 2.5-.8 5.2 0 7.6.4.9.9 1.8 1.7 2.4.6.6 1.4 1 2.3 1.3.8.3 1.6.4 2.5.4.8 0 1.6-.1 2.3-.3.7-.2 1.4-.6 2.1-1 .5-.3 1-.6 1.5-1s.8-.7 1.2-.9h.7v5.9l-1.8.8c-.6.2-1.2.5-1.8.6-.7.2-1.5.4-2.3.5-1 .2-2 .3-2.9.3zM84.4 137c0 3.9-1.1 7.1-3.4 9.4-2.3 2.3-5.4 3.5-9.4 3.5s-7.1-1.2-9.3-3.5-3.3-5.4-3.4-9.4c0-4 1.1-7.1 3.4-9.4s5.4-3.4 9.3-3.4c4 0 7.1 1.2 9.3 3.5s3.5 5.4 3.5 9.3zm-8.4 6.3c.6-.8 1.1-1.7 1.4-2.7.3-1.2.5-2.4.4-3.6 0-1.3-.1-2.6-.5-3.8-.3-.9-.7-1.8-1.3-2.5-.5-.6-1.2-1.1-2-1.4-.7-.3-1.5-.5-2.3-.4-.8 0-1.6.1-2.3.4-.8.3-1.5.8-2 1.4-.6.8-1.1 1.6-1.4 2.6-.4 1.2-.5 2.5-.5 3.8 0 1.3.1 2.5.5 3.8.3.9.7 1.8 1.3 2.5.5.6 1.2 1.1 1.9 1.4 1.5.6 3.2.6 4.7 0 .8-.4 1.5-.9 2.1-1.5zM105.2 149.4H87.4v-24.7h6.4v19.9h11.4v4.8zM128.9 140.4c.2 2.6-.9 5.2-2.8 7-1.9 1.6-4.6 2.4-8.2 2.4s-6.4-.8-8.2-2.4c-1.9-1.8-2.9-4.4-2.8-7v-15.8h6.4V140c-.1 1.4.3 2.7 1.1 3.8.9.9 2.2 1.4 3.5 1.3 1.3.1 2.6-.3 3.5-1.2.8-1.1 1.2-2.5 1.1-3.9v-15.4h6.4v15.8zM158.9 149.4h-6.3v-16.6l-4.6 10.7h-4.4l-4.6-10.7v16.6h-6v-24.7h7.4l5.6 12.4 5.5-12.4h7.4v24.7zM184.5 141.8c0 1.1-.2 2.2-.7 3.2-.5.9-1.2 1.7-2 2.3-1 .7-2.1 1.2-3.2 1.6-1.5.3-2.9.5-4.4.5h-10.8v-24.7h9.6c1.5 0 2.9 0 4.4.2 1 .1 1.9.4 2.7.9.9.4 1.6 1.1 2.1 1.9 1 1.9.9 4.1-.2 5.9-.7.9-1.6 1.7-2.7 2.1v.1c1.5.2 2.8.9 3.9 2 .8 1.1 1.3 2.5 1.3 4zm-8.2-10.2c0-.4-.1-.8-.3-1.2-.2-.4-.6-.8-1.1-.9-.6-.2-1.1-.3-1.7-.3h-3.5v5.2h1c1 0 1.9 0 2.6-.1.6 0 1.1-.1 1.7-.3.5-.2.9-.5 1.1-1 .1-.4.2-.9.2-1.4zm1.5 10.1c0-.6-.1-1.3-.5-1.8s-.9-.8-1.5-.9c-.7-.2-1.4-.2-2.1-.2h-4.1v6.2h4.4c.7 0 1.5-.1 2.1-.4.6-.2 1.1-.6 1.4-1.1.3-.7.4-1.2.3-1.8zM209 140.4c.2 2.6-.9 5.2-2.8 7-1.9 1.6-4.6 2.4-8.2 2.4s-6.4-.8-8.2-2.4c-1.9-1.8-2.9-4.4-2.8-7v-15.8h6.4V140c-.1 1.4.3 2.7 1.1 3.8.9.9 2.2 1.4 3.5 1.3 1.3.1 2.6-.3 3.5-1.2.8-1.1 1.2-2.5 1.1-3.9v-15.4h6.4v15.8zM232.9 141.6c0 2.4-1.1 4.6-3.1 5.9-2.1 1.5-4.9 2.3-8.4 2.3-1.8 0-3.6-.2-5.4-.5-1.5-.3-2.9-.8-4.3-1.4V142h.7c1.3 1.1 2.8 1.9 4.4 2.4 1.5.5 3.1.8 4.7.8.4 0 .9 0 1.5-.1.5 0 1-.2 1.5-.3.4-.2.8-.4 1.2-.7.3-.4.5-.8.5-1.3s-.3-1.1-.7-1.4c-.6-.5-1.3-.8-2-.9-.9-.2-1.9-.4-3-.6-1-.2-2-.4-2.9-.7-1.7-.5-3.3-1.4-4.5-2.8-.9-1.2-1.4-2.8-1.4-4.3 0-2.3 1.2-4.4 3.1-5.6 2.4-1.6 5.2-2.3 8-2.2 1.6 0 3.2.2 4.8.5 1.4.3 2.8.7 4.1 1.2v5.7h-.7c-1.1-.9-2.3-1.5-3.7-2-1.4-.5-2.9-.8-4.4-.8-.5 0-1.1 0-1.6.1s-1 .2-1.5.4c-.4.2-.8.4-1.1.8-.3.3-.5.7-.5 1.2 0 .6.3 1.2.7 1.5.9.5 1.8.8 2.8.9l2.6.6c.9.2 1.8.4 2.7.7 1.6.4 3.1 1.3 4.2 2.5 1.3 1 1.8 2.5 1.7 4z"/></g><g id="Ebene_1-2-2_8_"><defs><path id="SVGID_14_" d="M-8.8-8.8h286.3v286.3H-8.8z"/></defs><clipPath id="SVGID_15_"><use xlink:href="#SVGID_14_" style="overflow:visible"/></clipPath><defs><path id="SVGID_16_" d="M144.7 204.8c-.3 2.4-.8 4.7-1.5 6.9-.7 2.3-1.5 4.5-2.5 6.7 0 0-3.6.4-6.2.4s-5.9-.4-5.9-.4c-1.3-2.3-2.3-4.8-3-7.4-.9-3.7-1.1-6.1-1.1-6.1s5.2.4 10 .4 10.2-.5 10.2-.5m-31.5 12.1c-1.5-.3-3-.7-4.5-1.1-2.4-2.7-4.6-5.6-6.5-8.6-2.7-4.3-4-6.8-4-6.8s4.7 1.1 7.3 1.7 7.4 1.2 7.4 1.2 1 3 2.5 6.8c1 2.5 2.1 4.9 3.3 7.2-1.8 0-3.7-.1-5.5-.4m39.2-5.8c1.5-4.2 2.6-7.2 2.6-7.2s8.5-1.4 14.3-2.9c3.9-1 7.8-2.3 11.6-3.9 0 0-1 2-3 5.1-1.9 2.8-3.9 5.5-6.1 8.1-1.5 1.9-2.1 2.8-6.5 4.2s-15.2 3.2-15.2 3.2.8-2.5 2.3-6.6m-75.5-8.9c-4.5-2.9-8.3-6.8-10.9-11.5l-5.2-9.1s4.8 3.9 7.9 5.8 8 4.7 8 4.7 2.1 3.9 4.2 7.2L87 208s-5.8-3.1-10.1-5.8m108.9-1.8c1.6-2.4 4.2-7.2 4.2-7.2s6.9-3.8 13-7.6c8.6-5.4 16.8-15 16.8-15-4.4 9-10.4 17.1-17.8 23.9-12.1 11.1-22.3 14.8-22.3 14.8s4.5-6.5 6.1-8.9m-35.3-35.8s-.1 3.5-.6 9-1.2 10.4-1.2 10.4-4.7.6-11.6.7-15.2-.3-15.2-.3c-.6-3.6-.9-7.2-1.1-10.8-.1-5-.4-8.9-.4-8.9s9.7.4 15.1.4c5.5-.2 15-.5 15-.5m-52.3 16.5c-4.9-1.1-8.6-2.3-8.6-2.3s-1.3-4.5-2.2-9l-1.7-9.1s4.4 1 8.8 1.6 10.6 1 10.6 1 .3 3.3 1.1 10.4 1.7 9.1 1.7 9.1-4.7-.6-9.7-1.7m62.9-8.9c.6-4.6.8-8.6.8-8.6s8.9-1 16.4-2c5.3-.8 10.6-1.9 15.8-3.2-.4 2.8-.9 5.7-1.6 8.5-1 4-2.5 8.6-2.5 8.6-5.1 2-10.3 3.6-15.6 4.8-7.4 1.4-14.7 2.8-14.7 2.8s.9-6.4 1.4-10.9m-101.2-6.7c-2.5-1.7-4.8-3.6-7-5.7 0 0-.7-2.9-1-4.6-.4-2.1-.8-5.4-.8-5.4 2 1.2 4.2 2.2 6.4 3.1 2.8 1.1 7.4 2.6 7.4 2.6s.5 3.5 1.3 7.3 2.1 7.5 2.1 7.5c-2.9-1.3-5.7-2.9-8.4-4.8m140.3-1.5c.8-3.5 1.4-7.3 1.4-7.3s9.2-3.2 13.4-5.1c4-2.1 7.9-4.4 11.7-6.9 0 0 .5 1.8-3.2 7-3.7 5.4-8.4 10-13.9 13.7-3.6 2.4-7.4 4.7-11.3 6.6 0 0 1.1-4.6 1.9-8m3-30.6c-.1-5.4-.3-10.5-.3-10.5s11.3 2.5 16.7 5c7.1 3.3 9.3 7.4 1.1 11.3-5.6 2.7-11.5 4.5-17.7 5.2 0 0 .3-5.6.2-11m-145.6 9.4c-2.8-.6-7.4-2-7.4-2l.2-14.4s3.4-1.2 6.4-2.1 7-1.7 7-1.7-.5 5.8-.5 10.6.4 11 .4 11-3.4-.9-6.1-1.4m105.7-9.6c0-7.8-.5-15.6-.5-15.6s7.2.2 17.2 1.4 15.6 2.4 15.6 2.4c.5 3.7.7 7.4.7 11.1 0 6.8-.5 12.6-.5 12.6s-5.6 1-16.2 1.9-16.6 1.1-16.6 1.1.3-7.1.3-14.9m-68.2 14.4c-5-.2-10.8-1-10.8-1s-.4-5.3-.3-13 .6-14.3.6-14.3 5-.7 9.4-1 9.7-1 9.7-1-.1 8.6-.1 16.5.5 14.2.5 14.2-3.9-.2-9-.4m24.9.8s-.2-7.6-.1-16.4.2-15.2.2-15.2 10.7-.2 16.2-.2c5.4 0 15.4.5 15.4.5s.2 8 .3 14.7-.2 16.7-.2 16.7-6.6.2-14.9.2-16.9-.3-16.9-.3m-67-40.7c1.8-7.8 3.1-10.5 3.1-10.5s3.4-2.7 8.2-6c2.2-1.7 4.6-3.1 7.1-4.4-1.7 4.7-3.1 9.5-4.2 14.4-1 4.1-1.9 8.3-2.5 12.6 0 0-2.6.6-6.3 1.8s-7.2 2.8-7.2 2.8 0-2.9 1.8-10.7m161.5 9c-4.1-1.6-8.4-2.9-12.7-3.8-.8-5.3-1.9-10.6-3.3-15.9-1-3.7-2.3-7.3-3.8-10.9 0 0 13.1 6.2 22.7 17.3 9.6 11.1 11.8 21 11.8 21-4.7-2.8-9.6-5.4-14.7-7.7m-37.7-8.4c-9.5-1.2-14.8-1.6-14.8-1.6s-.3-6.7-1.8-17.1c-1.5-10.5-2.6-15.3-2.6-15.3 5.5.8 10.9 2 16.2 3.6 7.5 2.5 13.2 5 13.2 5 2.1 4.8 3.7 9.8 4.9 14.9 1.7 7.7 2.7 13.4 2.7 13.4s-8.3-1.7-17.8-2.9m-88.4-15c2.2-10.2 4.9-15.4 4.9-15.4 2.6-.9 5.2-1.6 7.9-2.2 4.7-1 8.7-1.6 8.7-1.6s-1.2 5.4-2.8 14-2.4 18.6-2.4 18.6l-8.8.8c-5.5.5-10.5 1.4-10.5 1.4s.9-5.4 3-15.6m33.3-7.1c.7-7.4 1.3-13.5 1.3-13.5 4.2-.4 8.4-.6 12.5-.5 6.5.2 12.1.8 12.1.8s1.1 6.7 2.2 16.3c1.1 9.7 1.1 16.3 1.1 16.3s-8.4-.4-15.3-.4-15.2.6-15.2.6.6-12.3 1.3-19.6M75.2 65.8c6.5-7.1 14.2-12.9 22.8-17.1-4.5 4-8.6 8.4-12.4 13.1-4.1 5.3-7.6 11-10.3 17.2 0 0-2.8 1.4-7.3 4.1-2.9 1.8-5.7 3.7-8.4 5.8 4.2-8.4 9.5-16.1 15.6-23.1m134.6 23.4c-5.8-4.5-12-8.4-18.5-11.8-3.1-6.7-7-13-11.7-18.6-5.2-6.2-11.2-11.6-17.9-16.2 0 0 20.8 5.5 35.2 18.6s21.5 26.1 24.9 34.4 4 11.2 4 11.2c-4.2-6.8-9.6-12.8-16-17.6M107.5 53.4c10.1-11.4 16-11.4 16-11.4s-2 2.2-6.2 11c-2.3 4.5-4.1 9.3-5.4 14.2-2.2.2-4.5.5-6.7 1-4.1.8-8.4 2.2-8.4 2.2 2.8-6.2 6.4-11.9 10.7-17m19.4-1.9c1.5-5.6 4.2-11.4 7.9-11.4s6 6.2 7.8 10.9c1.8 4.8 3.7 14.4 3.7 14.4s-6-.6-11-.6c-4.3 0-11.3.5-11.3.5s1.4-8.2 2.9-13.8m41.3 17.6c-7.3-1.7-12.5-2.5-12.5-2.5-1.1-5.2-2.8-10.2-4.9-15-2-4.3-4.5-8.4-7.3-12.3 0 0 12.2-.8 24.6 12.9 10.8 12 15.1 21.8 15.1 21.8-4.9-2-9.9-3.6-15-4.9m-133 61.1v8.2c2.3 54.8 48.5 97.3 103.3 95.1 54.8-2.3 97.3-48.5 95.1-103.3S185 32.8 130.2 35.1c-51.6 2.1-92.9 43.5-95 95.1"/></defs><clipPath id="SVGID_17_"><use xlink:href="#SVGID_16_" style="overflow:visible"/></clipPath><defs><path id="SVGID_18_" d="M-8.8-8.8h286.3v286.3H-8.8z"/></defs><clipPath id="SVGID_19_"><use xlink:href="#SVGID_18_" style="overflow:visible"/></clipPath></g></g></svg>