<svg version="1.1" id="Layer_1" xmlns="http://www.w3.org/2000/svg" x="0" y="0" viewBox="0 0 280 46" style="enable-background:new 0 0 280 46" xml:space="preserve"><style>.st0{fill-rule:evenodd;clip-rule:evenodd;fill:#2e2e2e}</style><g id="khElements"><g id="HeaderNavigation_x2F_1920" transform="translate(-1480 -36)"><g id="HeaderNavigation"><g id="logo_x2F_kalkhoff_x2F_PureFreedom_x2F_dark" transform="translate(1480 36)"><g id="logo_x2F_kalkhoff_x2F_PureFreedom" transform="translate(0 .097)"><path id="KALKHOFF" class="st0" d="M171.1 38c1.9 0 3.4 1.7 3.4 3.9s-1.5 3.9-3.4 3.9-3.4-1.7-3.4-3.9 1.5-3.9 3.4-3.9zm0 .8c-1.5 0-2.7 1.3-2.7 3.1s1.2 3.1 2.7 3.1c1.5 0 2.7-1.3 2.7-3.1s-1.2-3.1-2.7-3.1zM65 37.9c1.4 0 2.4.9 2.4 2.2 0 1.2-1 2.2-2.4 2.2h-2v2.6h-.8V38H65zm8.3 0V42c0 1.2.9 2.1 1.9 2.1 1 0 1.9-.9 1.9-2.1v-4.1h.7V42c0 1.5-1.2 2.8-2.6 2.8-1.4 0-2.6-1.3-2.6-2.8v-4.1h.7zm14.2 0c1.3 0 2.2.9 2.2 2.1 0 1.6-1.5 2-1.5 2l1.7 2.9H89L87.5 42h-2v2.8h-.8v-6.9h2.8zm12.6 0v.7h-4.3v2.3h3.4v.7h-3.4v2.6h4.4v.7H95V38h5.1zm15.7 0v.7h-4.4V41h3.5v.7h-3.5v3.2h-.8V38h5.2zm9.7 0c1.3 0 2.2.9 2.2 2.1 0 1.6-1.5 2-1.5 2l1.7 2.9h-.9l-1.6-2.8h-2v2.8h-.8V38h2.9zm14.4 0v.7h-4.3v2.3h3.4v.7h-3.4v2.6h4.4v.7h-5.2V38h5.1zm8.6 0v.7h-4.3v2.3h3.4v.7h-3.4v2.6h4.4v.7h-5.2V38h5.1zm9 0c1.8 0 3.2 1.6 3.2 3.5s-1.4 3.5-3.2 3.5h-1.9V38h1.9zm24.6 0 2.8 3.7 2.8-3.7h.6v6.9h-.7v-5.6l-2.7 3.6-2.7-3.6v5.6h-.7v-6.9h.6zm-24.6.7h-1.3v5.5h1.3c1.5 0 2.6-1.2 2.6-2.8 0-1.5-1.1-2.7-2.6-2.7zm-92.5 0h-2v3h2c1 0 1.6-.6 1.6-1.5s-.6-1.5-1.6-1.5zm22.5 0h-2.1v2.8h2.1c.9 0 1.4-.5 1.4-1.4 0-.9-.5-1.4-1.4-1.4zm38 0h-2.1v2.8h2.1c.9 0 1.4-.5 1.4-1.4 0-.9-.5-1.4-1.4-1.4zM64.6 6.8v11.7L75.8 6.8h2.9l-8.2 8.6 9 12.1h-2.8L68.9 17l-4.3 4.4v6.1h-2.3V6.8h2.3zm34.1 0 8.5 20.7h-2.3l-2.3-5.8h-9.7l-2.3 5.8h-2.3l8.5-20.7h1.9zm22.9 0v18.6H133v2.1h-13.8V6.8h2.4zm24.2 0v11.7L157 6.8h2.9l-8.2 8.6 9 12.1h-2.8L150.1 17l-4.3 4.4v6.1h-2.3V6.8h2.3zm29.4 0V16h12.5V6.8h2.4v20.7h-2.4V18h-12.5v9.5h-2.4V6.8h2.4zm77.1 0v2.1h-11.6V16h9.3v2.1h-9.3v9.5h-2.2V6.8h13.8zm-38 0c2.9 0 5.3 1 7.3 3s3 4.5 3 7.3c0 2.9-1 5.3-3 7.3s-4.5 3-7.3 3c-2.9 0-5.3-1-7.3-3s-3-4.5-3-7.3c0-2.9 1-5.3 3-7.3s4.4-3 7.3-3zm65.5.1V9H267v7h10.2v2.1H267v9.4h-2.4V6.9h15.2zm-65.5 1.9c-2.3 0-4.3.8-5.8 2.4-1.6 1.6-2.4 3.6-2.4 5.9 0 2.4.8 4.3 2.4 5.9 1.6 1.6 3.5 2.4 5.8 2.4s4.3-.8 5.8-2.4c1.6-1.6 2.4-3.6 2.4-5.9 0-2.4-.8-4.3-2.4-5.9-1.5-1.6-3.5-2.4-5.8-2.4zM97.7 9.9l-4 9.8h7.9l-3.9-9.8z"/><path id="sign" class="st0" d="M23.6 30 12.8 15 23.5 3.6c5.1 2.3 8.7 7.4 8.7 13.3 0 5.8-3.5 10.8-8.6 13.1zM3.3 22.3c-.7-1.7-1.1-3.5-1.1-5.4 0-8.1 6.7-14.7 15-14.7 1.5 0 2.9.3 4.2.7L3.3 22.3zM17.2 0C7.7 0 0 7.5 0 16.8c0 3.3 1 6.3 2.7 8.9l8.7-9.1 11.5 16c6.7-2.3 11.5-8.5 11.5-15.8C34.4 7.5 26.7 0 17.2 0z"/></g></g></g></g></g></svg>