<svg width="91" height="152" xmlns="http://www.w3.org/2000/svg" style="background:#fff"><g id="Styleguide" stroke="none" stroke-width="1" fill="none" fill-rule="evenodd"><g id="logo"><g id="logo-100"><path id="Fill-1" fill="#E30621" d="M0 152h91.2V0H0z"/><g id="Group-24" transform="translate(23.307 20.267)"><path d="m16.411.31 12.23-.008a6.156 6.156 0 0 1 5.325 3.035l9.713 16.639c.536.918.818 1.96.818 3.02v65.253a5.99 5.99 0 0 1-.82 3.024l-9.681 16.562a6.157 6.157 0 0 1-5.32 3.03H16.403a6.157 6.157 0 0 1-5.321-3.033L1.304 91.085a5.991 5.991 0 0 1-.819-3.02V23.007c0-1.068.286-2.116.83-3.038l9.789-16.644A6.155 6.155 0 0 1 16.411.31" id="Fill-2" fill="#FEFEFE"/><path d="M8.275 41.598h-.481c-.249 0-.45.2-.45.445v3.448c0 .245.201.445.45.445h.5c1.08 0 1.51-.332 1.51-2.188 0-1.727-.355-2.15-1.53-2.15m.02 6.506h-.482a.448.448 0 0 0-.45.444v4.11a.447.447 0 0 1-.451.444H5.446a.448.448 0 0 1-.451-.445V39.764c0-.246.202-.444.45-.444h2.848c2.833 0 3.97 1.102 3.97 4.446 0 3.07-1.043 4.338-3.97 4.338" id="Fill-4" fill="#1D1D1B"/><path d="M21.11 55.259c0 2.812-1.25 4.227-3.785 4.227-2.515 0-3.764-1.397-3.764-4.227v-9.331c0-.247.203-.445.451-.445h1.465c.25 0 .451.198.451.445v9.257c0 1.342.392 1.857 1.417 1.857 1.024 0 1.397-.497 1.397-1.857v-9.257c0-.247.202-.445.451-.445h1.465c.25 0 .451.198.451.445v9.33Z" id="Fill-6" fill="#1D1D1B"/><path d="m28.792 64.173-1.932-5.45a.45.45 0 0 0-.426-.298h-.577v5.602a.448.448 0 0 1-.451.444H23.94c-.25 0-.451-.2-.451-.444V51.133c0-.245.201-.445.45-.445h1.447c.249 0 .451.2.451.445v5.216h.657a.45.45 0 0 0 .423-.293l1.872-5.075a.45.45 0 0 1 .424-.293h1.437c.314 0 .532.309.423.6l-2.199 5.865a.436.436 0 0 0 0 .303l2.303 6.422a.446.446 0 0 1-.425.593h-1.535a.45.45 0 0 1-.426-.298" id="Fill-8" fill="#1D1D1B"/><path d="M34.212 55.997a.45.45 0 0 1 .44.343l1.26 5.28.316 1.452h.056l.28-1.452 1.188-5.275a.45.45 0 0 1 .44-.348h1.548c.303 0 .52.287.433.573l-2.733 8.976a.437.437 0 0 0-.02.127v3.661a.448.448 0 0 1-.45.446h-1.521a.448.448 0 0 1-.451-.446v-3.66a.441.441 0 0 0-.02-.13l-2.784-8.972a.446.446 0 0 1 .431-.575h1.587Z" id="Fill-10" fill="#1D1D1B"/><path d="M17.644 6.003c-.887 0-1.712.47-2.153 1.229L6.834 22.08c-.192.33-.284.733-.282 1.235v8.004c.004.489.28.941.722 1.174L37.91 48.65a.5.5 0 0 0 .499-.012.492.492 0 0 0 .244-.43l.001-24.899c-.002-.411-.255-.89-.446-1.215l-8.751-14.87a2.496 2.496 0 0 0-2.148-1.22h-9.666Z" id="Fill-12" fill="#E30621"/><path d="M17.644 6.003c-.887 0-1.712.47-2.153 1.229L6.834 22.08c-.192.33-.284.733-.282 1.235v8.004c.004.489.28.941.722 1.174L37.91 48.65a.5.5 0 0 0 .499-.012.492.492 0 0 0 .244-.43l.001-24.899c-.002-.411-.255-.89-.446-1.215l-8.751-14.87a2.496 2.496 0 0 0-2.148-1.22h-9.666Z" id="Stroke-14" stroke="#E30621" stroke-width=".5"/><path d="M7.017 62.054c-.101 0-.18.035-.228.063a.49.49 0 0 0-.236.44v24.898c.001.362.135.77.396 1.215l8.751 14.872a2.498 2.498 0 0 0 2.148 1.218h9.667c.886 0 1.711-.47 2.152-1.227l8.657-14.848c.22-.375.333-.802.33-1.236l.001-8.003c-.002-.466-.305-.93-.77-1.173L7.246 62.115a.485.485 0 0 0-.23-.061" id="Fill-16" fill="#E30621"/><path d="M7.017 62.054c-.101 0-.18.035-.228.063a.49.49 0 0 0-.236.44v24.898c.001.362.135.77.396 1.215l8.751 14.872a2.498 2.498 0 0 0 2.148 1.218h9.667c.886 0 1.711-.47 2.152-1.227l8.657-14.848c.22-.375.333-.802.33-1.236l.001-8.003c-.002-.466-.305-.93-.77-1.173L7.246 62.115a.485.485 0 0 0-.23-.061Z" id="Stroke-18" stroke="#E30621" stroke-width=".5"/><path d="M17.644 6.003c-.887 0-1.712.47-2.153 1.229L6.834 22.08c-.192.33-.284.733-.282 1.235v8.004c.004.489.28.941.722 1.174L37.91 48.65a.5.5 0 0 0 .499-.012.492.492 0 0 0 .244-.43l.001-24.899c-.002-.411-.255-.89-.446-1.215l-8.751-14.87a2.496 2.496 0 0 0-2.148-1.22h-9.666ZM38.15 50.254c-.334 0-.669-.08-.977-.243L6.535 33.854a2.883 2.883 0 0 1-1.548-2.53V23.32c-.005-.767.16-1.445.49-2.01l8.656-14.849a4.07 4.07 0 0 1 3.51-2.002h9.667c1.438 0 2.78.762 3.503 1.99l8.75 14.87c.305.517.655 1.21.658 1.986v24.9a2.017 2.017 0 0 1-1.002 1.754 2.08 2.08 0 0 1-1.069.295Z" id="Fill-20" fill="#1D1D1B"/><path d="M7.017 62.054c-.101 0-.18.035-.228.063a.49.49 0 0 0-.236.44v24.898c.001.362.135.77.396 1.215l8.751 14.872a2.498 2.498 0 0 0 2.148 1.218h9.667c.886 0 1.711-.47 2.152-1.227l8.657-14.848c.22-.375.333-.802.33-1.236l.001-8.003c-.002-.466-.305-.93-.77-1.173L7.246 62.115a.485.485 0 0 0-.23-.061m20.498 44.25h-9.667a4.074 4.074 0 0 1-3.503-1.988l-8.75-14.87c-.4-.681-.606-1.349-.608-1.988V62.56a2.02 2.02 0 0 1 .993-1.763 2.036 2.036 0 0 1 2.005-.042L38.623 76.91c.964.508 1.592 1.501 1.598 2.53l-.001 8.004c.005.7-.181 1.396-.538 2.01l-8.657 14.847a4.072 4.072 0 0 1-3.51 2.002" id="Fill-22" fill="#1D1D1B"/></g></g></g></g></svg>