<?xml version="1.0" encoding="UTF-8"?>
<svg width="91px" height="152px" viewBox="0 0 91 152" version="1.1" xmlns="http://www.w3.org/2000/svg" xmlns:xlink="http://www.w3.org/1999/xlink" style="background: #FFFFFF;">
    <!-- Generator: Sketch 45.1 (43504) - http://www.bohemiancoding.com/sketch -->
    <title>logo</title>
    <desc>Created with Sketch.</desc>
    <defs></defs>
    <g id="Styleguide" stroke="none" stroke-width="1" fill="none" fill-rule="evenodd">
        <g id="logo">
            <g id="logo-100">
                <polygon id="Fill-1" fill="#E30621" points="0 152 91.2 152 91.2 0 0 0"></polygon>
                <g id="Group-24" transform="translate(23.306667, 20.266667)">
                    <path d="M16.4113261,0.309810856 L28.6414005,0.301950487 C30.8392723,0.300266122 32.8703108,1.45854774 33.9663996,3.33661464 L43.6786013,19.9758943 C44.2149731,20.8944347 44.4968245,21.9364951 44.4968245,22.9959606 L44.4968245,88.249381 C44.4968245,89.3105309 44.2138343,90.3531528 43.6763237,91.272816 L33.9960083,107.835176 C32.89935,109.710436 30.8717279,110.86591 28.6761337,110.86591 L16.4033546,110.86591 C14.207191,110.86591 12.1778607,109.709313 11.0817718,107.832369 L1.30408955,91.0847286 C0.76771774,90.1656268 0.485296914,89.1241278 0.485296914,88.0641008 L0.485296914,23.0077512 C0.485296914,21.9398638 0.771134121,20.8921888 1.31433869,19.9697183 L11.1039783,3.32594699 C12.201206,1.4602321 14.2231341,0.310933766 16.4113261,0.309810856" id="Fill-2" fill="#FEFEFE"></path>
                    <path d="M8.27458855,41.5980869 L7.79401763,41.5980869 C7.54519121,41.5980869 7.34305534,41.7974035 7.34305534,42.0427593 L7.34305534,45.4912157 C7.34305534,45.7360101 7.54519121,45.9358881 7.79401763,45.9358881 L8.29337864,45.9358881 C9.37466321,45.9358881 9.80341902,45.6040682 9.80341902,43.7484595 C9.80341902,42.0208625 9.4492542,41.5980869 8.27458855,41.5980869 M8.29337864,48.1036658 L7.81223832,48.1036658 C7.56341191,48.1036658 7.36127604,48.3024208 7.36127604,48.5483381 L7.36127604,52.6570656 C7.36127604,52.9029829 7.15970956,53.101738 6.91088315,53.101738 L5.44582512,53.101738 C5.1969987,53.101738 4.99486283,52.9029829 4.99486283,52.6570656 L4.99486283,39.764375 C4.99486283,39.5184577 5.1969987,39.3197026 5.44582512,39.3197026 L8.29337864,39.3197026 C11.1261278,39.3197026 12.2632133,40.4218388 12.2632133,43.7664261 C12.2632133,46.835339 11.2195089,48.1036658 8.29337864,48.1036658" id="Fill-4" fill="#1D1D1B"></path>
                    <path d="M21.1093624,55.2589041 C21.1093624,58.0706706 19.8606751,59.4855372 17.3251511,59.4855372 C14.8101253,59.4855372 13.5614381,58.0891987 13.5614381,55.2589041 L13.5614381,45.9275224 C13.5614381,45.6810437 13.7635739,45.4828501 14.0124004,45.4828501 L15.4774584,45.4828501 C15.7268542,45.4828501 15.9284207,45.6810437 15.9284207,45.9275224 L15.9284207,55.1853535 C15.9284207,56.5266695 16.3195963,57.0415237 17.34508,57.0415237 C18.3694249,57.0415237 18.7423798,56.5451975 18.7423798,55.1853535 L18.7423798,45.9275224 C18.7423798,45.6810437 18.9439463,45.4828501 19.1933421,45.4828501 L20.6584001,45.4828501 C20.9072265,45.4828501 21.1093624,45.6810437 21.1093624,45.9275224 L21.1093624,55.2589041 Z" id="Fill-6" fill="#1D1D1B"></path>
                    <path d="M28.7923476,64.1731248 L26.8598148,58.7230813 C26.7966118,58.5445386 26.6257927,58.4249487 26.4344754,58.4249487 L25.8565376,58.4249487 L25.8565376,64.026585 C25.8565376,64.2719409 25.6544017,64.4712574 25.4055753,64.4712574 L23.9405173,64.4712574 C23.6911215,64.4712574 23.489555,64.2719409 23.489555,64.026585 L23.489555,51.1327715 C23.489555,50.8879771 23.6911215,50.6880992 23.9405173,50.6880992 L25.3873546,50.6880992 C25.6356116,50.6880992 25.8383169,50.8879771 25.8383169,51.1327715 L25.8383169,56.3486882 L26.4954008,56.3486882 C26.68501,56.3486882 26.8541208,56.2313441 26.9184627,56.0561702 L28.79007,50.9811787 C28.8549813,50.8048818 29.0240921,50.6880992 29.2137013,50.6880992 L30.6514283,50.6880992 C30.9645965,50.6880992 31.1826755,50.9968994 31.0744901,51.2877331 L28.8754796,57.1532532 C28.8390382,57.2509464 28.8384688,57.3576228 28.8743408,57.4558774 L31.1781203,63.8783609 C31.2817506,64.1675102 31.064241,64.4712574 30.7533503,64.4712574 L29.2182565,64.4712574 C29.0263697,64.4712574 28.8555507,64.3516675 28.7923476,64.1731248" id="Fill-8" fill="#1D1D1B"></path>
                    <path d="M34.2122083,55.9969367 C34.4211769,55.9969367 34.6033839,56.1389848 34.6512132,56.3399857 L35.9112884,61.6204697 L36.227873,63.0723923 L36.2836739,63.0723923 L36.5632477,61.6204697 L37.7521483,56.3450388 C37.7977001,56.1417921 37.9810458,55.9969367 38.1922921,55.9969367 L39.740482,55.9969367 C40.0428317,55.9969367 40.2592025,56.2844016 40.1726542,56.5701822 L37.4395495,65.5456015 C37.4270227,65.5865877 37.4207594,65.6298197 37.4207594,65.6730518 L37.4207594,69.3342997 C37.4207594,69.5802169 37.2186235,69.7795335 36.9697971,69.7795335 L35.4489382,69.7795335 C35.2001117,69.7795335 34.9979759,69.5802169 34.9979759,69.3342997 L34.9979759,65.6741747 C34.9979759,65.6303812 34.9911431,65.5860262 34.978047,65.5439171 L32.1942659,56.5718666 C32.10544,56.2866475 32.3223802,55.9969367 32.6252993,55.9969367 L34.2122083,55.9969367 Z" id="Fill-10" fill="#1D1D1B"></path>
                    <path d="M17.6435009,6.00330119 C16.75695,6.00330119 15.931894,6.47380046 15.4906115,7.23176468 L6.83407152,22.080003 C6.64161539,22.4095771 6.5499425,22.8127017 6.55222009,23.3152039 L6.55278949,31.3187446 C6.55620587,31.8077719 6.83236333,32.2603046 7.27364587,32.4933085 L37.9111809,48.6491754 C38.139509,48.7704497 38.3370897,48.6817398 38.4099725,48.6373849 C38.4839941,48.5924685 38.6553825,48.4633338 38.6542437,48.2078718 L38.6553825,23.3084665 C38.6531049,22.89692 38.3997233,22.4174374 38.2089754,22.0929165 L29.4579156,7.22334286 C29.0154942,6.47043173 28.1921464,6.00330119 27.3101508,6.00330119 L17.6435009,6.00330119 Z" id="Fill-12" fill="#E30621"></path>
                    <path d="M17.6435009,6.00330119 C16.75695,6.00330119 15.931894,6.47380046 15.4906115,7.23176468 L6.83407152,22.080003 C6.64161539,22.4095771 6.5499425,22.8127017 6.55222009,23.3152039 L6.55278949,31.3187446 C6.55620587,31.8077719 6.83236333,32.2603046 7.27364587,32.4933085 L37.9111809,48.6491754 C38.139509,48.7704497 38.3370897,48.6817398 38.4099725,48.6373849 C38.4839941,48.5924685 38.6553825,48.4633338 38.6542437,48.2078718 L38.6553825,23.3084665 C38.6531049,22.89692 38.3997233,22.4174374 38.2089754,22.0929165 L29.4579156,7.22334286 C29.0154942,6.47043173 28.1921464,6.00330119 27.3101508,6.00330119 L17.6435009,6.00330119 Z" id="Stroke-14" stroke="#E30621" stroke-width="0.5"></path>
                    <path d="M7.01679096,62.053913 C6.91600772,62.053913 6.83743096,62.0887232 6.78903223,62.1173574 C6.71728823,62.1594665 6.55159375,62.2874783 6.55273255,62.5569766 L6.55273255,87.455259 C6.55444074,87.816836 6.68767959,88.2255753 6.94903274,88.6702476 L15.7000925,103.541506 C16.1425139,104.293294 16.9658617,104.760424 17.8478574,104.760424 L27.5145073,104.760424 C28.4010581,104.760424 29.2261141,104.290487 29.6673967,103.532522 L38.3239366,88.6854069 C38.5431544,88.3097935 38.6570338,87.8825263 38.6541868,87.449083 L38.6553256,79.4461038 C38.653048,78.9795347 38.3495595,78.5168958 37.8843623,78.2726629 L7.24682728,62.1145501 C7.16255655,62.0696337 7.08454918,62.053913 7.01679096,62.053913" id="Fill-16" fill="#E30621"></path>
                    <path d="M7.01679096,62.053913 C6.91600772,62.053913 6.83743096,62.0887232 6.78903223,62.1173574 C6.71728823,62.1594665 6.55159375,62.2874783 6.55273255,62.5569766 L6.55273255,87.455259 C6.55444074,87.816836 6.68767959,88.2255753 6.94903274,88.6702476 L15.7000925,103.541506 C16.1425139,104.293294 16.9658617,104.760424 17.8478574,104.760424 L27.5145073,104.760424 C28.4010581,104.760424 29.2261141,104.290487 29.6673967,103.532522 L38.3239366,88.6854069 C38.5431544,88.3097935 38.6570338,87.8825263 38.6541868,87.449083 L38.6553256,79.4461038 C38.653048,78.9795347 38.3495595,78.5168958 37.8843623,78.2726629 L7.24682728,62.1145501 C7.16255655,62.0696337 7.08454918,62.053913 7.01679096,62.053913 Z" id="Stroke-18" stroke="#E30621" stroke-width="0.5"></path>
                    <path d="M17.6435009,6.00330119 C16.75695,6.00330119 15.931894,6.47380046 15.4906115,7.23176468 L6.83407152,22.080003 C6.64161539,22.4095771 6.5499425,22.8127017 6.55222009,23.3152039 L6.55278949,31.3187446 C6.55620587,31.8077719 6.83236333,32.2603046 7.27364587,32.4933085 L37.9111809,48.6491754 C38.139509,48.7704497 38.3370897,48.6817398 38.4099725,48.6373849 C38.4839941,48.5924685 38.6553825,48.4633338 38.6542437,48.2078718 L38.6553825,23.3084665 C38.6531049,22.89692 38.3997233,22.4174374 38.2089754,22.0929165 L29.4579156,7.22334286 C29.0154942,6.47043173 28.1921464,6.00330119 27.3101508,6.00330119 L17.6435009,6.00330119 Z M38.1503275,50.2543752 C37.8160916,50.2543752 37.4812862,50.1740871 37.1726732,50.0112652 L6.53513818,33.8537139 C5.58709247,33.3534575 4.99378098,32.3838247 4.98694822,31.3243592 L4.98637882,23.320257 C4.98239304,22.5527481 5.14694872,21.8750719 5.47606009,21.3102482 L14.1326,6.46144845 C14.852887,5.22624751 16.1983717,4.45930001 17.6435009,4.45930001 L27.3101508,4.45930001 C28.7484471,4.45930001 30.0905155,5.22119441 30.8125106,6.44853499 L39.5635704,21.3181086 C39.8676283,21.8357701 40.2178074,22.5297284 40.2212238,23.3045363 L40.220085,48.2045031 C40.2235014,48.9270956 39.8488382,49.5845594 39.218516,49.9590499 C38.887127,50.156682 38.5187273,50.2543752 38.1503275,50.2543752 L38.1503275,50.2543752 Z" id="Fill-20" fill="#1D1D1B"></path>
                    <path d="M7.01679096,62.053913 C6.91600772,62.053913 6.83743096,62.0887232 6.78903223,62.1173574 C6.71728823,62.1594665 6.55159375,62.2874783 6.55273255,62.5569766 L6.55273255,87.455259 C6.55444074,87.816836 6.68767959,88.2255753 6.94903274,88.6702476 L15.7000925,103.541506 C16.1425139,104.293294 16.9658617,104.760424 17.8478574,104.760424 L27.5145073,104.760424 C28.4010581,104.760424 29.2261141,104.290487 29.6673967,103.532522 L38.3239366,88.6854069 C38.5431544,88.3097935 38.6570338,87.8825263 38.6541868,87.449083 L38.6553256,79.4461038 C38.653048,78.9795347 38.3495595,78.5168958 37.8843623,78.2726629 L7.24682728,62.1145501 C7.16255655,62.0696337 7.08454918,62.053913 7.01679096,62.053913 M27.5145073,106.304426 L17.8478574,106.304426 C16.409561,106.304426 15.0680621,105.542531 14.3454975,104.315752 L5.59500709,89.4456169 C5.19415172,88.764572 4.98916886,88.0970021 4.98689128,87.4580663 L4.98689128,62.5592225 C4.9834749,61.8282081 5.35472163,61.1673756 5.98048874,60.7956924 C6.59486791,60.4307466 7.34419413,60.4150259 7.98533496,60.7535833 L38.6228699,76.9105731 C39.5874282,77.4186899 40.2149035,78.4124652 40.2211668,79.4410507 L40.220028,87.4451528 C40.2251526,88.1452872 40.0389598,88.8414914 39.681948,89.4546002 L31.0254081,104.301716 C30.3045517,105.536917 28.9596364,106.304426 27.5145073,106.304426" id="Fill-22" fill="#1D1D1B"></path>
                </g>
            </g>
        </g>
    </g>
</svg>