<?xml version="1.0" encoding="utf-8"?>
<!-- Generator: Adobe Illustrator 23.0.3, SVG Export Plug-In . SVG Version: 6.00 Build 0)  -->
<svg version="1.1" id="Ebene_1" xmlns="http://www.w3.org/2000/svg" xmlns:xlink="http://www.w3.org/1999/xlink" x="0px" y="0px"
	 viewBox="0 0 268.7 268.7" style="enable-background:new 0 0 268.7 268.7;" xml:space="preserve">
<style type="text/css">
	.st0{clip-path:url(#SVGID_8_);}
	.st1{fill:#FFFFFF;}
	.st2{fill:#4A6576;}
	.st3{fill:#C7D308;}
	.st4{fill:#FDEB38;}
	.st5{fill:#010101;}
	.st6{fill:#403F3E;}
	.st7{fill:#434342;}
	.st8{fill:#464545;}
	.st9{fill:#484847;}
	.st10{fill:#4B4B4A;}
	.st11{fill:#4E4E4D;}
	.st12{fill:#515050;}
	.st13{fill:#535352;}
	.st14{fill:#565555;}
	.st15{fill:#585857;}
	.st16{fill:#5C5B5A;}
	.st17{fill:#5E5D5C;}
	.st18{fill:#605F5F;}
	.st19{fill:#626261;}
	.st20{fill:#656464;}
	.st21{fill:#676766;}
	.st22{fill:#6A6A69;}
	.st23{fill:#6C6C6B;}
	.st24{fill:#6E6E6D;}
	.st25{fill:#727070;}
	.st26{fill:#737372;}
	.st27{fill:#767575;}
	.st28{fill:#787877;}
	.st29{fill:#79797A;}
	.st30{fill:#7C7B7C;}
	.st31{fill:#7E7F7E;}
	.st32{fill:#818181;}
	.st33{fill:#838483;}
	.st34{fill:#858685;}
	.st35{fill:#878787;}
	.st36{fill:#8A8989;}
	.st37{fill:#8C8C8B;}
	.st38{fill:#8E8E8D;}
	.st39{fill:#909090;}
	.st40{clip-path:url(#SVGID_10_);}
	.st41{fill:url(#SVGID_11_);}
	.st42{clip-path:url(#SVGID_13_);}
	.st43{fill:#BABABA;}
	.st44{fill:none;stroke:#010101;stroke-width:7;stroke-linejoin:round;}
</style>
<title>logo</title>
<g id="Ebene_1-2">
	
		<image style="overflow:visible;opacity:0.6;" width="322" height="321" xlink:href="6E183256ED14382B.png"  transform="matrix(1 0 0 1 -21.0079 -20.3479)">
	</image>
	<g>
		<g>
			<g id="Ebene_1-2-2_10_">
				<g>
					<defs>
						<rect id="SVGID_1_" x="-8.8" y="-8.8" width="286.3" height="286.3"/>
					</defs>
					<clipPath id="SVGID_2_">
						<use xlink:href="#SVGID_1_"  style="overflow:visible;"/>
					</clipPath>
				</g>
				<g>
					<defs>
						<path id="SVGID_3_" d="M144.7,204.8c-0.3,2.4-0.8,4.7-1.5,6.9c-0.7,2.3-1.5,4.5-2.5,6.7c0,0-3.6,0.4-6.2,0.4s-5.9-0.4-5.9-0.4
							c-1.3-2.3-2.3-4.8-3-7.4c-0.9-3.7-1.1-6.1-1.1-6.1s5.2,0.4,10,0.4S144.7,204.8,144.7,204.8 M113.2,216.9
							c-1.5-0.3-3-0.7-4.5-1.1c-2.4-2.7-4.6-5.6-6.5-8.6c-2.7-4.3-4-6.8-4-6.8s4.7,1.1,7.3,1.7s7.4,1.2,7.4,1.2s1,3,2.5,6.8
							c1,2.5,2.1,4.9,3.3,7.2C116.9,217.3,115,217.2,113.2,216.9 M152.4,211.1c1.5-4.2,2.6-7.2,2.6-7.2s8.5-1.4,14.3-2.9
							c3.9-1,7.8-2.3,11.6-3.9c0,0-1,2-3,5.1c-1.9,2.8-3.9,5.5-6.1,8.1c-1.5,1.9-2.1,2.8-6.5,4.2s-15.2,3.2-15.2,3.2
							S150.9,215.2,152.4,211.1 M76.9,202.2c-4.5-2.9-8.3-6.8-10.9-11.5l-5.2-9.1c0,0,4.8,3.9,7.9,5.8s8,4.7,8,4.7s2.1,3.9,4.2,7.2
							L87,208C87,208,81.2,204.9,76.9,202.2 M185.8,200.4c1.6-2.4,4.2-7.2,4.2-7.2s6.9-3.8,13-7.6c8.6-5.4,16.8-15,16.8-15
							c-4.4,9-10.4,17.1-17.8,23.9c-12.1,11.1-22.3,14.8-22.3,14.8S184.2,202.8,185.8,200.4 M150.5,164.6c0,0-0.1,3.5-0.6,9
							s-1.2,10.4-1.2,10.4s-4.7,0.6-11.6,0.7s-15.2-0.3-15.2-0.3c-0.6-3.6-0.9-7.2-1.1-10.8c-0.1-5-0.4-8.9-0.4-8.9
							s9.7,0.4,15.1,0.4C141,164.9,150.5,164.6,150.5,164.6 M98.2,181.1c-4.9-1.1-8.6-2.3-8.6-2.3s-1.3-4.5-2.2-9l-1.7-9.1
							c0,0,4.4,1,8.8,1.6s10.6,1,10.6,1s0.3,3.3,1.1,10.4s1.7,9.1,1.7,9.1S103.2,182.2,98.2,181.1 M161.1,172.2
							c0.6-4.6,0.8-8.6,0.8-8.6s8.9-1,16.4-2c5.3-0.8,10.6-1.9,15.8-3.2c-0.4,2.8-0.9,5.7-1.6,8.5c-1,4-2.5,8.6-2.5,8.6
							c-5.1,2-10.3,3.6-15.6,4.8c-7.4,1.4-14.7,2.8-14.7,2.8S160.6,176.7,161.1,172.2 M59.9,165.5c-2.5-1.7-4.8-3.6-7-5.7
							c0,0-0.7-2.9-1-4.6c-0.4-2.1-0.8-5.4-0.8-5.4c2,1.2,4.2,2.2,6.4,3.1c2.8,1.1,7.4,2.6,7.4,2.6s0.5,3.5,1.3,7.3s2.1,7.5,2.1,7.5
							C65.4,169,62.6,167.4,59.9,165.5 M200.2,164c0.8-3.5,1.4-7.3,1.4-7.3s9.2-3.2,13.4-5.1c4-2.1,7.9-4.4,11.7-6.9
							c0,0,0.5,1.8-3.2,7c-3.7,5.4-8.4,10-13.9,13.7c-3.6,2.4-7.4,4.7-11.3,6.6C198.3,172,199.4,167.4,200.2,164 M203.2,133.4
							c-0.1-5.4-0.3-10.5-0.3-10.5s11.3,2.5,16.7,5c7.1,3.3,9.3,7.4,1.1,11.3c-5.6,2.7-11.5,4.5-17.7,5.2
							C203,144.4,203.3,138.8,203.2,133.4 M57.6,142.8c-2.8-0.6-7.4-2-7.4-2l0.2-14.4c0,0,3.4-1.2,6.4-2.1s7-1.7,7-1.7
							s-0.5,5.8-0.5,10.6s0.4,11,0.4,11S60.3,143.3,57.6,142.8 M163.3,133.2c0-7.8-0.5-15.6-0.5-15.6s7.2,0.2,17.2,1.4
							c10,1.2,15.6,2.4,15.6,2.4c0.5,3.7,0.7,7.4,0.7,11.1c0,6.8-0.5,12.6-0.5,12.6s-5.6,1-16.2,1.9s-16.6,1.1-16.6,1.1
							S163.3,141,163.3,133.2 M95.1,147.6c-5-0.2-10.8-1-10.8-1s-0.4-5.3-0.3-13s0.6-14.3,0.6-14.3s5-0.7,9.4-1s9.7-1,9.7-1
							s-0.1,8.6-0.1,16.5s0.5,14.2,0.5,14.2S100.2,147.8,95.1,147.6 M120,148.4c0,0-0.2-7.6-0.1-16.4s0.2-15.2,0.2-15.2
							s10.7-0.2,16.2-0.2c5.4,0,15.4,0.5,15.4,0.5s0.2,8,0.3,14.7s-0.2,16.7-0.2,16.7s-6.6,0.2-14.9,0.2S120,148.4,120,148.4
							 M53,107.7c1.8-7.8,3.1-10.5,3.1-10.5s3.4-2.7,8.2-6c2.2-1.7,4.6-3.1,7.1-4.4c-1.7,4.7-3.1,9.5-4.2,14.4
							c-1,4.1-1.9,8.3-2.5,12.6c0,0-2.6,0.6-6.3,1.8s-7.2,2.8-7.2,2.8S51.2,115.5,53,107.7 M214.5,116.7c-4.1-1.6-8.4-2.9-12.7-3.8
							c-0.8-5.3-1.9-10.6-3.3-15.9c-1-3.7-2.3-7.3-3.8-10.9c0,0,13.1,6.2,22.7,17.3c9.6,11.1,11.8,21,11.8,21
							C224.5,121.6,219.6,119,214.5,116.7 M176.8,108.3c-9.5-1.2-14.8-1.6-14.8-1.6s-0.3-6.7-1.8-17.1c-1.5-10.5-2.6-15.3-2.6-15.3
							c5.5,0.8,10.9,2,16.2,3.6c7.5,2.5,13.2,5,13.2,5c2.1,4.8,3.7,9.8,4.9,14.9c1.7,7.7,2.7,13.4,2.7,13.4S186.3,109.5,176.8,108.3
							 M88.4,93.3c2.2-10.2,4.9-15.4,4.9-15.4c2.6-0.9,5.2-1.6,7.9-2.2c4.7-1,8.7-1.6,8.7-1.6s-1.2,5.4-2.8,14s-2.4,18.6-2.4,18.6
							l-8.8,0.8c-5.5,0.5-10.5,1.4-10.5,1.4S86.3,103.5,88.4,93.3 M121.7,86.2c0.7-7.4,1.3-13.5,1.3-13.5c4.2-0.4,8.4-0.6,12.5-0.5
							c6.5,0.2,12.1,0.8,12.1,0.8s1.1,6.7,2.2,16.3c1.1,9.7,1.1,16.3,1.1,16.3s-8.4-0.4-15.3-0.4s-15.2,0.6-15.2,0.6
							S121,93.5,121.7,86.2 M75.2,65.8c6.5-7.1,14.2-12.9,22.8-17.1c-4.5,4-8.6,8.4-12.4,13.1C81.5,67.1,78,72.8,75.3,79
							c0,0-2.8,1.4-7.3,4.1c-2.9,1.8-5.7,3.7-8.4,5.8C63.8,80.5,69.1,72.8,75.2,65.8 M209.8,89.2c-5.8-4.5-12-8.4-18.5-11.8
							c-3.1-6.7-7-13-11.7-18.6c-5.2-6.2-11.2-11.6-17.9-16.2c0,0,20.8,5.5,35.2,18.6s21.5,26.1,24.9,34.4s4,11.2,4,11.2
							C221.6,100,216.2,94,209.8,89.2 M107.5,53.4c10.1-11.4,16-11.4,16-11.4s-2,2.2-6.2,11c-2.3,4.5-4.1,9.3-5.4,14.2
							c-2.2,0.2-4.5,0.5-6.7,1c-4.1,0.8-8.4,2.2-8.4,2.2C99.6,64.2,103.2,58.5,107.5,53.4 M126.9,51.5c1.5-5.6,4.2-11.4,7.9-11.4
							c3.7,0,6,6.2,7.8,10.9c1.8,4.8,3.7,14.4,3.7,14.4s-6-0.6-11-0.6c-4.3,0-11.3,0.5-11.3,0.5S125.4,57.1,126.9,51.5 M168.2,69.1
							c-7.3-1.7-12.5-2.5-12.5-2.5c-1.1-5.2-2.8-10.2-4.9-15c-2-4.3-4.5-8.4-7.3-12.3c0,0,12.2-0.8,24.6,12.9
							C178.9,64.2,183.2,74,183.2,74C178.3,72,173.3,70.4,168.2,69.1 M35.2,130.2v8.2c2.3,54.8,48.5,97.3,103.3,95.1
							c54.8-2.3,97.3-48.5,95.1-103.3S185,32.8,130.2,35.1C78.6,37.2,37.3,78.6,35.2,130.2"/>
					</defs>
					<clipPath id="SVGID_4_">
						<use xlink:href="#SVGID_3_"  style="overflow:visible;"/>
					</clipPath>
				</g>
				<g>
					<defs>
						<rect id="SVGID_5_" x="-8.8" y="-8.8" width="286.3" height="286.3"/>
					</defs>
					<clipPath id="SVGID_6_">
						<use xlink:href="#SVGID_5_"  style="overflow:visible;"/>
					</clipPath>
				</g>
			</g>
		</g>
		<g>
			<g id="Ebene_1-2-2_9_">
				<g>
					<defs>
						<rect id="SVGID_7_" x="-8.8" y="-8.8" width="286.3" height="286.3"/>
					</defs>
					<clipPath id="SVGID_8_">
						<use xlink:href="#SVGID_7_"  style="overflow:visible;"/>
					</clipPath>
					<g class="st0">
						<path class="st1" d="M268.7,134.2c0.1,74.2-60,134.4-134.2,134.4S0.1,208.6,0,134.4C-0.1,60.3,60,0.1,134.2,0h0.1
							C208.4-0.1,268.6,60,268.7,134.2C268.7,134.2,268.7,134.2,268.7,134.2L268.7,134.2"/>
						<path class="st2" d="M134.3,268.6C60.3,268.6,0,208.4,0,134.3S60.3,0,134.3,0s134.3,60.2,134.3,134.3S208.4,268.6,134.3,268.6
							"/>
						<path class="st1" d="M4.9,134.3C4.9,62.8,62.8,4.8,134.3,4.8s129.5,57.9,129.5,129.4s-57.9,129.5-129.4,129.5l0,0l0,0
							C62.9,263.8,4.9,205.8,4.9,134.3C4.9,134.3,4.9,134.3,4.9,134.3"/>
						<path class="st3" d="M13.6,134.3c0-66.7,54-120.7,120.7-120.7s120.7,54,120.7,120.7S201,255,134.3,255l0,0
							C67.7,255,13.6,201,13.6,134.3C13.6,134.3,13.6,134.3,13.6,134.3L13.6,134.3"/>
						<path class="st4" d="M22,134.3C22,72.2,72.3,21.9,134.3,21.9c62.1,0,112.4,50.3,112.4,112.3c0,62.1-50.3,112.4-112.4,112.4
							l0,0l0,0C72.3,246.7,22,196.4,22,134.3C22,134.3,22,134.3,22,134.3"/>
						<path class="st5" d="M30.7,134.3C30.7,77.1,77,30.7,134.2,30.6s103.7,46.3,103.7,103.5c0.1,57.2-46.3,103.7-103.5,103.7h-0.1
							C77.1,237.8,30.8,191.5,30.7,134.3"/>
						<path class="st6" d="M228.7,134.3c0,52.1-42.3,94.4-94.4,94.4S40,186.4,40,134.3s42.3-94.4,94.4-94.4
							C186.5,39.9,228.7,82.2,228.7,134.3L228.7,134.3"/>
						<path class="st6" d="M228.2,133.8c0,51.5-41.8,93.3-93.3,93.3s-93.3-41.8-93.3-93.3c0-51.5,41.8-93.3,93.3-93.3l0,0
							C186.4,40.4,228.2,82.2,228.2,133.8C228.2,133.7,228.2,133.7,228.2,133.8L228.2,133.8"/>
						<path class="st6" d="M227.6,133.2c0,50.9-41.3,92.3-92.2,92.3c-50.9,0-92.3-41.3-92.3-92.2s41.3-92.3,92.2-92.3l0,0
							C186.3,40.9,227.6,82.2,227.6,133.2L227.6,133.2"/>
						<path class="st7" d="M227.1,132.6c0,50.4-40.8,91.2-91.2,91.2S44.7,183,44.7,132.6c0-50.4,40.8-91.2,91.2-91.2
							S227.1,82.3,227.1,132.6L227.1,132.6L227.1,132.6"/>
						<path class="st7" d="M226.5,132.1c0,49.8-40.4,90.1-90.1,90.1c-49.8,0-90.1-40.4-90.1-90.1c0-49.8,40.4-90.1,90.1-90.1
							C186.2,41.9,226.5,82.3,226.5,132.1C226.5,132.1,226.5,132.1,226.5,132.1L226.5,132.1"/>
						<path class="st8" d="M226,131.5c0,49.2-39.9,89.1-89.1,89.1s-89.1-39.9-89.1-89.1S87.8,42.4,137,42.4S226,82.3,226,131.5
							L226,131.5L226,131.5"/>
						<path class="st8" d="M225.5,130.9c0,48.6-39.4,88-88,88s-88-39.4-88-88s39.4-88,88-88S225.5,82.3,225.5,130.9"/>
						<path class="st8" d="M224.9,130.4c0,48-38.9,86.9-86.9,86.9s-86.9-38.9-86.9-86.9c0-48,38.9-86.9,86.9-86.9c0,0,0,0,0,0l0,0
							C186,43.4,224.9,82.3,224.9,130.4"/>
						<path class="st9" d="M224.4,129.8c0,47.4-38.4,85.9-85.9,85.9s-85.9-38.4-85.9-85.9c0-47.4,38.4-85.9,85.9-85.9l0,0l0,0
							C185.9,43.9,224.4,82.4,224.4,129.8"/>
						<path class="st9" d="M223.9,129.2c0,46.8-38,84.8-84.8,84.8s-84.8-38-84.8-84.8s38-84.8,84.8-84.8l0,0l0,0
							C185.9,44.4,223.8,82.4,223.9,129.2"/>
						<path class="st10" d="M223.3,128.7c0,46.2-37.5,83.7-83.7,83.7c-46.2,0-83.7-37.5-83.7-83.7c0-46.2,37.5-83.7,83.7-83.7l0,0
							C185.8,44.9,223.3,82.4,223.3,128.7"/>
						<path class="st10" d="M222.8,128.2c0,45.7-37,82.7-82.7,82.7s-82.7-37-82.7-82.7s37-82.7,82.7-82.7l0,0
							C185.7,45.5,222.8,82.5,222.8,128.2L222.8,128.2"/>
						<path class="st10" d="M222.2,127.6c0,45.1-36.5,81.6-81.6,81.6S59,172.6,59,127.6s36.5-81.6,81.6-81.6l0,0l0,0
							C185.7,45.9,222.2,82.5,222.2,127.6"/>
						<path class="st11" d="M221.7,127c0,44.5-36.1,80.6-80.5,80.6c-44.5,0-80.6-36.1-80.6-80.5s36.1-80.6,80.5-80.6c0,0,0,0,0,0
							l0,0C185.7,46.4,221.7,82.5,221.7,127"/>
						<path class="st11" d="M221.2,126.4c0,43.9-35.6,79.5-79.5,79.5c-43.9,0-79.5-35.6-79.5-79.5c0-43.9,35.6-79.5,79.5-79.5l0,0
							C185.6,46.9,221.2,82.5,221.2,126.4C221.2,126.4,221.2,126.4,221.2,126.4L221.2,126.4"/>
						<path class="st12" d="M220.6,125.9c0,43.3-35.1,78.4-78.4,78.4s-78.4-35.1-78.4-78.4c0-43.3,35.1-78.4,78.4-78.4
							C185.5,47.4,220.6,82.5,220.6,125.9C220.6,125.9,220.6,125.9,220.6,125.9"/>
						<path class="st12" d="M220.1,125.3c0,42.7-34.6,77.4-77.4,77.4S65.4,168,65.3,125.3s34.6-77.4,77.3-77.4l0,0
							C185.4,47.9,220.1,82.6,220.1,125.3"/>
						<path class="st12" d="M219.5,124.7c0,42.1-34.2,76.3-76.3,76.3s-76.3-34.2-76.3-76.3c0-42.1,34.1-76.3,76.2-76.3l0,0
							C185.3,48.4,219.5,82.6,219.5,124.7"/>
						<path class="st13" d="M219,124.2c0,41.5-33.7,75.2-75.2,75.2s-75.2-33.7-75.2-75.2s33.7-75.2,75.2-75.2l0,0l0,0
							C185.3,48.9,219,82.6,219,124.2C219,124.1,219,124.2,219,124.2L219,124.2"/>
						<path class="st13" d="M218.4,123.6c0,41-33.2,74.2-74.2,74.2s-74.2-33.2-74.2-74.2s33.2-74.2,74.2-74.2l0,0l0,0
							C185.2,49.4,218.4,82.6,218.4,123.6"/>
						<path class="st13" d="M217.9,123c0,40.4-32.7,73.1-73.1,73.1S71.7,163.4,71.7,123s32.7-73.1,73.1-73.1l0,0
							C185.2,49.9,217.9,82.7,217.9,123L217.9,123"/>
						<path class="st14" d="M217.4,122.5c0,39.8-32.2,72-72,72s-72-32.2-72-72s32.2-72,72-72S217.4,82.7,217.4,122.5"/>
						<path class="st14" d="M216.8,121.9c0,39.2-31.8,71-71,71s-71-31.8-71-71s31.8-71,71-71S216.8,82.7,216.8,121.9"/>
						<path class="st15" d="M216.3,121.4c0,38.6-31.3,69.9-69.9,69.9S76.5,160,76.5,121.4s31.3-69.9,69.9-69.9l0,0l0,0
							C185,51.4,216.3,82.7,216.3,121.4"/>
						<path class="st15" d="M215.7,120.8c0,38-30.8,68.8-68.8,68.8c-38,0-68.8-30.8-68.8-68.9c0-38,30.8-68.8,68.8-68.8
							C184.9,51.9,215.7,82.8,215.7,120.8C215.7,120.8,215.7,120.8,215.7,120.8L215.7,120.8"/>
						<path class="st15" d="M215.2,120.2c0,37.4-30.3,67.8-67.8,67.8s-67.8-30.3-67.8-67.8s30.3-67.8,67.8-67.8l0,0l0,0
							C184.8,52.4,215.2,82.7,215.2,120.2L215.2,120.2"/>
						<path class="st16" d="M214.7,119.7c0,36.8-29.9,66.7-66.7,66.7s-66.7-29.9-66.7-66.7s29.9-66.7,66.7-66.7l0,0l0,0
							C184.8,52.9,214.6,82.8,214.7,119.7L214.7,119.7"/>
						<path class="st16" d="M214.1,119.1c0,36.3-29.4,65.7-65.6,65.7s-65.7-29.4-65.7-65.7s29.4-65.6,65.7-65.6c0,0,0,0,0,0l0,0
							C184.7,53.4,214.1,82.8,214.1,119.1"/>
						<path class="st17" d="M213.6,118.5c0,35.7-28.9,64.6-64.6,64.6s-64.6-28.9-64.6-64.6s28.9-64.6,64.6-64.6l0,0l0,0
							C184.7,53.9,213.6,82.9,213.6,118.5L213.6,118.5"/>
						<path class="st17" d="M213,118c0,35.1-28.4,63.5-63.5,63.5C114.4,181.5,86,153,86,118c0-35.1,28.4-63.5,63.5-63.5
							C184.6,54.4,213,82.9,213,118C213,118,213,118,213,118L213,118"/>
						<path class="st17" d="M212.5,117.4c0,34.5-28,62.5-62.5,62.5s-62.5-28-62.5-62.5s28-62.5,62.5-62.5l0,0l0,0
							C184.5,54.9,212.5,82.9,212.5,117.4L212.5,117.4"/>
						<path class="st18" d="M212,116.8c0,33.9-27.5,61.4-61.4,61.4s-61.4-27.5-61.4-61.4s27.5-61.4,61.4-61.4c0,0,0,0,0,0l0,0
							C184.5,55.4,212,82.9,212,116.8"/>
						<path class="st18" d="M211.4,116.3c0,33.3-27,60.3-60.3,60.3s-60.3-27-60.3-60.3c0-33.3,27-60.3,60.3-60.3
							C184.4,55.9,211.4,83,211.4,116.3C211.4,116.3,211.4,116.3,211.4,116.3L211.4,116.3"/>
						<path class="st18" d="M210.9,115.7c0,32.7-26.5,59.3-59.3,59.3c-32.7,0-59.3-26.5-59.3-59.3s26.5-59.3,59.3-59.3
							C184.3,56.4,210.9,83,210.9,115.7L210.9,115.7"/>
						<path class="st19" d="M210.3,115.2c0,32.1-26.1,58.2-58.2,58.2s-58.2-26.1-58.2-58.2C93.9,83,120,56.9,152.1,57c0,0,0,0,0,0
							l0,0C184.3,57,210.4,83,210.3,115.2C210.4,115.2,210.4,115.2,210.3,115.2L210.3,115.2"/>
						<path class="st19" d="M209.8,114.6c0,31.6-25.6,57.1-57.1,57.1s-57.1-25.6-57.1-57.1s25.6-57.1,57.1-57.1
							S209.8,83,209.8,114.6L209.8,114.6L209.8,114.6"/>
						<path class="st20" d="M209.3,114c0,31-25.1,56.1-56.1,56.1S97.1,145,97.1,114S122.2,58,153.2,58c0,0,0,0,0,0l0,0
							C184.1,58,209.3,83.1,209.3,114"/>
						<path class="st20" d="M208.7,113.5c0,30.4-24.6,55-55,55s-55-24.6-55-55s24.6-55,55-55S208.7,83.1,208.7,113.5"/>
						<path class="st20" d="M208.2,112.9c0,29.8-24.2,54-53.9,53.9c-29.8,0-54-24.2-54-53.9s24.2-53.9,54-53.9
							C184,58.9,208.2,83.1,208.2,112.9C208.2,112.9,208.2,112.9,208.2,112.9L208.2,112.9"/>
						<path class="st21" d="M207.6,112.3c0,29.2-23.7,52.9-52.9,52.9s-52.9-23.7-52.9-52.9c0-29.2,23.7-52.9,52.9-52.9l0,0
							C183.9,59.5,207.6,83.1,207.6,112.3"/>
						<path class="st21" d="M207.1,111.8c0,28.6-23.2,51.8-51.8,51.8s-51.8-23.2-51.8-51.8S126.7,60,155.3,60l0,0l0,0
							C183.9,60,207.1,83.2,207.1,111.8L207.1,111.8L207.1,111.8"/>
						<path class="st22" d="M206.6,111.2c0,28-22.7,50.8-50.8,50.8c-28,0-50.8-22.7-50.8-50.7c0-28,22.7-50.8,50.8-50.8l0,0
							C183.8,60.4,206.6,83.1,206.6,111.2L206.6,111.2"/>
						<path class="st22" d="M206,110.6c0,27.4-22.2,49.7-49.7,49.7c-27.4,0-49.7-22.2-49.7-49.7c0-27.4,22.2-49.7,49.7-49.7l0,0l0,0
							C183.8,61,206,83.2,206,110.6C206,110.6,206,110.6,206,110.6L206,110.6"/>
						<path class="st22" d="M205.5,110.1c0,26.9-21.8,48.6-48.6,48.6c-26.9,0-48.6-21.8-48.6-48.6s21.8-48.6,48.6-48.6
							S205.5,83.2,205.5,110.1C205.5,110.1,205.5,110.1,205.5,110.1L205.5,110.1"/>
						<path class="st23" d="M204.9,109.5c0,26.3-21.3,47.6-47.6,47.6c-26.3,0-47.6-21.3-47.6-47.6c0-26.3,21.3-47.6,47.6-47.6l0,0
							C183.6,62,204.9,83.2,204.9,109.5"/>
						<path class="st23" d="M204.4,109c0,25.7-20.8,46.5-46.5,46.5s-46.5-20.8-46.5-46.5s20.8-46.5,46.5-46.5S204.4,83.3,204.4,109"
							/>
						<path class="st24" d="M203.9,108.4c0,25.1-20.3,45.4-45.4,45.4c-25.1,0-45.4-20.3-45.4-45.4S133.3,63,158.4,63
							C183.5,62.9,203.9,83.3,203.9,108.4C203.9,108.4,203.9,108.4,203.9,108.4L203.9,108.4"/>
						<path class="st24" d="M203.3,107.8c0,24.5-19.9,44.4-44.4,44.4c-24.5,0-44.4-19.9-44.4-44.4c0-24.5,19.9-44.4,44.4-44.4l0,0
							l0,0C183.4,63.5,203.3,83.3,203.3,107.8"/>
						<path class="st24" d="M202.8,107.3c0,23.9-19.4,43.3-43.3,43.3c-23.9,0-43.3-19.4-43.3-43.3S135.6,64,159.5,64l0,0l0,0
							C183.4,64,202.8,83.3,202.8,107.3"/>
						<path class="st25" d="M202.2,106.7c0,23.3-18.9,42.3-42.2,42.3c-23.3,0-42.2-18.9-42.2-42.3s18.9-42.2,42.2-42.2l0,0l0,0
							C183.3,64.5,202.2,83.4,202.2,106.7"/>
						<path class="st25" d="M201.7,106.2c0,22.7-18.4,41.2-41.2,41.2c-22.7,0-41.2-18.4-41.2-41.2S137.8,65,160.5,65l0,0
							C183.2,65,201.7,83.4,201.7,106.2"/>
						<path class="st25" d="M201.2,105.6c0,22.2-18,40.1-40.1,40.1c-22.2,0-40.1-18-40.1-40.1c0-22.2,18-40.1,40.1-40.1l0,0l0,0
							C183.2,65.5,201.2,83.4,201.2,105.6"/>
						<path class="st26" d="M200.6,105c0,21.6-17.5,39.1-39.1,39.1c-21.6,0-39.1-17.5-39.1-39.1c0-21.6,17.5-39.1,39.1-39.1l0,0l0,0
							c21.5,0,39,17.4,39.1,38.9C200.6,104.9,200.6,104.9,200.6,105L200.6,105"/>
						<path class="st26" d="M200.1,104.4c0,21-17,38-38,38s-38-17-38-38s17-38,38-38S200.1,83.5,200.1,104.4"/>
						<path class="st27" d="M199.5,103.9c0,20.4-16.5,36.9-36.9,36.9c-20.4,0-36.9-16.5-36.9-36.9S142.2,67,162.6,67
							C183,66.9,199.5,83.5,199.5,103.9C199.5,103.9,199.5,103.9,199.5,103.9"/>
						<path class="st27" d="M199,103.3c0,19.8-16.1,35.9-35.9,35.9c-19.8,0-35.9-16.1-35.9-35.9c0-19.8,16.1-35.9,35.9-35.9
							c0,0,0,0,0,0l0,0C183,67.5,199,83.5,199,103.3"/>
						<path class="st27" d="M198.5,102.8c0,19.2-15.6,34.8-34.8,34.8c-19.2,0-34.8-15.6-34.8-34.8S144.4,68,163.6,68l0,0
							C182.9,68,198.4,83.5,198.5,102.8"/>
						<path class="st28" d="M197.9,102.2c0,18.6-15.1,33.7-33.7,33.8c-18.6,0-33.7-15.1-33.8-33.7s15.1-33.7,33.7-33.7c0,0,0,0,0,0
							l0,0C182.8,68.5,197.9,83.5,197.9,102.2"/>
						<path class="st28" d="M197.4,101.6c0,18-14.6,32.7-32.7,32.7S132,119.7,132,101.6c0-18,14.6-32.7,32.7-32.7
							C182.7,69,197.4,83.6,197.4,101.6C197.4,101.6,197.4,101.6,197.4,101.6L197.4,101.6"/>
						<path class="st29" d="M196.8,101.1c0,17.5-14.2,31.6-31.6,31.6s-31.6-14.2-31.6-31.6c0-17.4,14.1-31.6,31.6-31.6l0,0
							C182.6,69.5,196.8,83.6,196.8,101.1L196.8,101.1L196.8,101.1"/>
						<path class="st29" d="M196.3,100.5c0,16.9-13.7,30.5-30.5,30.5c-16.9,0-30.5-13.7-30.5-30.5S148.9,70,165.8,70l0,0l0,0
							C182.6,70,196.3,83.6,196.3,100.5L196.3,100.5L196.3,100.5"/>
						<path class="st29" d="M195.8,99.9c0,16.3-13.2,29.5-29.5,29.5c-16.3,0-29.5-13.2-29.5-29.5s13.2-29.5,29.5-29.5l0,0
							C182.5,70.5,195.7,83.6,195.8,99.9C195.7,99.9,195.7,99.9,195.8,99.9L195.8,99.9"/>
						<path class="st30" d="M195.2,99.4c0,15.7-12.7,28.4-28.4,28.4c-15.7,0-28.4-12.7-28.4-28.4S151.1,71,166.8,71c0,0,0,0,0,0h0.1
							C182.5,71,195.2,83.7,195.2,99.4"/>
						<path class="st30" d="M194.7,98.8c0,15.1-12.2,27.3-27.4,27.3S140,113.9,140,98.8s12.2-27.4,27.4-27.4
							C182.4,71.5,194.7,83.7,194.7,98.8L194.7,98.8"/>
						<path class="st30" d="M194.2,98.2c0,14.5-11.8,26.3-26.3,26.3s-26.3-11.8-26.3-26.3c0-14.5,11.7-26.3,26.2-26.3
							C182.4,71.9,194.2,83.7,194.2,98.2C194.2,98.2,194.2,98.2,194.2,98.2L194.2,98.2"/>
						<path class="st31" d="M193.6,97.7c0,13.9-11.3,25.2-25.2,25.2c-13.9,0-25.2-11.3-25.2-25.2s11.3-25.2,25.2-25.2l0,0l0,0
							C182.3,72.5,193.6,83.8,193.6,97.7L193.6,97.7L193.6,97.7"/>
						<path class="st31" d="M193,97.2c0,13.3-10.9,24.1-24.2,24.1c-13.3,0-24.1-10.9-24.1-24.2c0-13.3,10.8-24.1,24.2-24.1
							C182.2,73,193.1,83.8,193,97.2C193.1,97.1,193.1,97.1,193,97.2L193,97.2"/>
						<path class="st32" d="M192.5,96.6c0,12.8-10.3,23.1-23.1,23.1s-23.1-10.3-23.1-23.1s10.3-23.1,23.1-23.1l0,0l0,0
							C182.1,73.5,192.5,83.8,192.5,96.6"/>
						<path class="st32" d="M192,96c0,12.2-9.8,22-22,22s-22-9.8-22-22s9.8-22,22-22S192,83.8,192,96"/>
						<path class="st32" d="M191.4,95.4c0,11.6-9.4,21-21,21c-11.6,0-21-9.4-21-21s9.4-21,21-21C182,74.4,191.4,83.8,191.4,95.4"/>
						<path class="st33" d="M190.9,94.9c0,11-8.9,19.9-19.9,19.9c-11,0-19.9-8.9-19.9-19.9S160,75,171,75l0,0l0,0
							C182,75,190.9,83.9,190.9,94.9"/>
						<path class="st33" d="M190.4,94.3c0,10.4-8.4,18.8-18.8,18.8c-10.4,0-18.8-8.4-18.8-18.8c0-10.4,8.4-18.8,18.8-18.8
							c0,0,0,0,0,0l0,0C181.9,75.5,190.3,83.9,190.4,94.3C190.4,94.3,190.4,94.3,190.4,94.3"/>
						<path class="st34" d="M189.8,93.7c0,9.8-8,17.8-17.8,17.8c-9.8,0-17.8-8-17.8-17.8S162.2,76,172,76l0,0l0,0
							C181.8,76,189.8,83.9,189.8,93.7"/>
						<path class="st34" d="M189.3,93.2c0,9.2-7.5,16.7-16.7,16.7c-9.2,0-16.7-7.5-16.7-16.7s7.5-16.7,16.7-16.7l0,0
							C181.8,76.5,189.3,83.9,189.3,93.2"/>
						<path class="st34" d="M188.7,92.6c0,8.6-7,15.7-15.6,15.7c-8.6,0-15.7-7-15.7-15.6s7-15.6,15.6-15.7
							C181.7,77,188.7,84,188.7,92.6"/>
						<path class="st35" d="M188.2,92c0,8.1-6.5,14.6-14.6,14.6S159,100.1,159,92.1s6.5-14.6,14.6-14.6l0,0
							C181.6,77.5,188.2,84,188.2,92L188.2,92"/>
						<path class="st35" d="M187.6,91.5c0,7.5-6.1,13.5-13.5,13.5c-7.5,0-13.5-6.1-13.5-13.5c0-7.5,6.1-13.5,13.5-13.5c0,0,0,0,0,0
							l0,0C181.6,78,187.7,84,187.6,91.5L187.6,91.5L187.6,91.5"/>
						<path class="st36" d="M187.1,90.9c0,6.9-5.6,12.5-12.5,12.5s-12.5-5.6-12.5-12.5s5.6-12.5,12.5-12.5c0,0,0,0,0,0l0,0
							C181.5,78.4,187.1,84,187.1,90.9C187.1,90.9,187.1,90.9,187.1,90.9L187.1,90.9"/>
						<path class="st36" d="M186.6,90.4c0,6.3-5.1,11.4-11.4,11.4s-11.4-5.1-11.4-11.4c0-6.3,5.1-11.4,11.4-11.4l0,0l0,0
							C181.5,79,186.6,84.1,186.6,90.4"/>
						<path class="st36" d="M186,89.8c0,5.7-4.6,10.3-10.3,10.3c-5.7,0-10.3-4.6-10.3-10.3c0-5.7,4.6-10.3,10.3-10.3l0,0l0,0
							C181.4,79.5,186,84.1,186,89.8"/>
						<path class="st37" d="M185.5,89.2c0,5.1-4.2,9.3-9.3,9.3c-5.1,0-9.3-4.2-9.3-9.3c0-5.1,4.1-9.2,9.2-9.3
							C181.3,79.9,185.5,84.1,185.5,89.2C185.5,89.2,185.5,89.2,185.5,89.2L185.5,89.2"/>
						<path class="st37" d="M185,88.7c0,4.5-3.7,8.2-8.2,8.2c-4.5,0-8.2-3.7-8.2-8.2c0-4.5,3.7-8.2,8.2-8.2l0,0l0,0
							C181.3,80.5,185,84.1,185,88.7"/>
						<path class="st37" d="M184.4,88.1c0,3.9-3.2,7.1-7.1,7.1c-3.9,0-7.1-3.2-7.1-7.1s3.2-7.1,7.1-7.1l0,0l0,0
							C181.2,81,184.4,84.2,184.4,88.1"/>
						<path class="st38" d="M183.9,87.5c0,3.4-2.7,6.1-6.1,6.1c-3.4,0-6.1-2.7-6.1-6.1c0-3.4,2.7-6.1,6.1-6.1l0,0
							C181.1,81.5,183.9,84.2,183.9,87.5L183.9,87.5L183.9,87.5"/>
						<path class="st38" d="M183.3,87c0,2.8-2.2,5-5,5c-2.8,0-5-2.2-5-5s2.2-5,5-5C181.1,82,183.3,84.2,183.3,87"/>
						<path class="st39" d="M182.8,86.4c0,2.2-1.8,3.9-4,3.9c-2.2,0-3.9-1.8-3.9-4s1.8-3.9,4-3.9c2.1,0,3.8,1.8,3.9,3.9V86.4"/>
						<path class="st39" d="M182.2,85.9c0,1.6-1.3,2.9-2.9,2.9c-1.6,0-2.9-1.3-2.9-2.9c0-1.6,1.3-2.9,2.9-2.9
							C181,83,182.2,84.2,182.2,85.9C182.3,85.8,182.3,85.8,182.2,85.9L182.2,85.9"/>
					</g>
				</g>
				<g>
					<defs>
						<path id="SVGID_9_" d="M144.7,204.8c-0.3,2.4-0.8,4.7-1.5,6.9c-0.7,2.3-1.5,4.5-2.5,6.7c0,0-3.6,0.4-6.2,0.4s-5.9-0.4-5.9-0.4
							c-1.3-2.3-2.3-4.8-3-7.4c-0.9-3.7-1.1-6.1-1.1-6.1s5.2,0.4,10,0.4S144.7,204.8,144.7,204.8 M113.2,216.9
							c-1.5-0.3-3-0.7-4.5-1.1c-2.4-2.7-4.6-5.6-6.5-8.6c-2.7-4.3-4-6.8-4-6.8s4.7,1.1,7.3,1.7s7.4,1.2,7.4,1.2s1,3,2.5,6.8
							c1,2.5,2.1,4.9,3.3,7.2C116.9,217.3,115,217.2,113.2,216.9 M152.4,211.1c1.5-4.2,2.6-7.2,2.6-7.2s8.5-1.4,14.3-2.9
							c3.9-1,7.8-2.3,11.6-3.9c0,0-1,2-3,5.1c-1.9,2.8-3.9,5.5-6.1,8.1c-1.5,1.9-2.1,2.8-6.5,4.2s-15.2,3.2-15.2,3.2
							S150.9,215.2,152.4,211.1 M76.9,202.2c-4.5-2.9-8.3-6.8-10.9-11.5l-5.2-9.1c0,0,4.8,3.9,7.9,5.8s8,4.7,8,4.7s2.1,3.9,4.2,7.2
							L87,208C87,208,81.2,204.9,76.9,202.2 M185.8,200.4c1.6-2.4,4.2-7.2,4.2-7.2s6.9-3.8,13-7.6c8.6-5.4,16.8-15,16.8-15
							c-4.4,9-10.4,17.1-17.8,23.9c-12.1,11.1-22.3,14.8-22.3,14.8S184.2,202.8,185.8,200.4 M150.5,164.6c0,0-0.1,3.5-0.6,9
							s-1.2,10.4-1.2,10.4s-4.7,0.6-11.6,0.7s-15.2-0.3-15.2-0.3c-0.6-3.6-0.9-7.2-1.1-10.8c-0.1-5-0.4-8.9-0.4-8.9
							s9.7,0.4,15.1,0.4C141,164.9,150.5,164.6,150.5,164.6 M98.2,181.1c-4.9-1.1-8.6-2.3-8.6-2.3s-1.3-4.5-2.2-9l-1.7-9.1
							c0,0,4.4,1,8.8,1.6s10.6,1,10.6,1s0.3,3.3,1.1,10.4s1.7,9.1,1.7,9.1S103.2,182.2,98.2,181.1 M161.1,172.2
							c0.6-4.6,0.8-8.6,0.8-8.6s8.9-1,16.4-2c5.3-0.8,10.6-1.9,15.8-3.2c-0.4,2.8-0.9,5.7-1.6,8.5c-1,4-2.5,8.6-2.5,8.6
							c-5.1,2-10.3,3.6-15.6,4.8c-7.4,1.4-14.7,2.8-14.7,2.8S160.6,176.7,161.1,172.2 M59.9,165.5c-2.5-1.7-4.8-3.6-7-5.7
							c0,0-0.7-2.9-1-4.6c-0.4-2.1-0.8-5.4-0.8-5.4c2,1.2,4.2,2.2,6.4,3.1c2.8,1.1,7.4,2.6,7.4,2.6s0.5,3.5,1.3,7.3s2.1,7.5,2.1,7.5
							C65.4,169,62.6,167.4,59.9,165.5 M200.2,164c0.8-3.5,1.4-7.3,1.4-7.3s9.2-3.2,13.4-5.1c4-2.1,7.9-4.4,11.7-6.9
							c0,0,0.5,1.8-3.2,7c-3.7,5.4-8.4,10-13.9,13.7c-3.6,2.4-7.4,4.7-11.3,6.6C198.3,172,199.4,167.4,200.2,164 M203.2,133.4
							c-0.1-5.4-0.3-10.5-0.3-10.5s11.3,2.5,16.7,5c7.1,3.3,9.3,7.4,1.1,11.3c-5.6,2.7-11.5,4.5-17.7,5.2
							C203,144.4,203.3,138.8,203.2,133.4 M57.6,142.8c-2.8-0.6-7.4-2-7.4-2l0.2-14.4c0,0,3.4-1.2,6.4-2.1s7-1.7,7-1.7
							s-0.5,5.8-0.5,10.6s0.4,11,0.4,11S60.3,143.3,57.6,142.8 M163.3,133.2c0-7.8-0.5-15.6-0.5-15.6s7.2,0.2,17.2,1.4
							c10,1.2,15.6,2.4,15.6,2.4c0.5,3.7,0.7,7.4,0.7,11.1c0,6.8-0.5,12.6-0.5,12.6s-5.6,1-16.2,1.9s-16.6,1.1-16.6,1.1
							S163.3,141,163.3,133.2 M95.1,147.6c-5-0.2-10.8-1-10.8-1s-0.4-5.3-0.3-13s0.6-14.3,0.6-14.3s5-0.7,9.4-1s9.7-1,9.7-1
							s-0.1,8.6-0.1,16.5s0.5,14.2,0.5,14.2S100.2,147.8,95.1,147.6 M120,148.4c0,0-0.2-7.6-0.1-16.4s0.2-15.2,0.2-15.2
							s10.7-0.2,16.2-0.2c5.4,0,15.4,0.5,15.4,0.5s0.2,8,0.3,14.7s-0.2,16.7-0.2,16.7s-6.6,0.2-14.9,0.2S120,148.4,120,148.4
							 M53,107.7c1.8-7.8,3.1-10.5,3.1-10.5s3.4-2.7,8.2-6c2.2-1.7,4.6-3.1,7.1-4.4c-1.7,4.7-3.1,9.5-4.2,14.4
							c-1,4.1-1.9,8.3-2.5,12.6c0,0-2.6,0.6-6.3,1.8s-7.2,2.8-7.2,2.8S51.2,115.5,53,107.7 M214.5,116.7c-4.1-1.6-8.4-2.9-12.7-3.8
							c-0.8-5.3-1.9-10.6-3.3-15.9c-1-3.7-2.3-7.3-3.8-10.9c0,0,13.1,6.2,22.7,17.3c9.6,11.1,11.8,21,11.8,21
							C224.5,121.6,219.6,119,214.5,116.7 M176.8,108.3c-9.5-1.2-14.8-1.6-14.8-1.6s-0.3-6.7-1.8-17.1c-1.5-10.5-2.6-15.3-2.6-15.3
							c5.5,0.8,10.9,2,16.2,3.6c7.5,2.5,13.2,5,13.2,5c2.1,4.8,3.7,9.8,4.9,14.9c1.7,7.7,2.7,13.4,2.7,13.4S186.3,109.5,176.8,108.3
							 M88.4,93.3c2.2-10.2,4.9-15.4,4.9-15.4c2.6-0.9,5.2-1.6,7.9-2.2c4.7-1,8.7-1.6,8.7-1.6s-1.2,5.4-2.8,14s-2.4,18.6-2.4,18.6
							l-8.8,0.8c-5.5,0.5-10.5,1.4-10.5,1.4S86.3,103.5,88.4,93.3 M121.7,86.2c0.7-7.4,1.3-13.5,1.3-13.5c4.2-0.4,8.4-0.6,12.5-0.5
							c6.5,0.2,12.1,0.8,12.1,0.8s1.1,6.7,2.2,16.3c1.1,9.7,1.1,16.3,1.1,16.3s-8.4-0.4-15.3-0.4s-15.2,0.6-15.2,0.6
							S121,93.5,121.7,86.2 M75.2,65.8c6.5-7.1,14.2-12.9,22.8-17.1c-4.5,4-8.6,8.4-12.4,13.1C81.5,67.1,78,72.8,75.3,79
							c0,0-2.8,1.4-7.3,4.1c-2.9,1.8-5.7,3.7-8.4,5.8C63.8,80.5,69.1,72.8,75.2,65.8 M209.8,89.2c-5.8-4.5-12-8.4-18.5-11.8
							c-3.1-6.7-7-13-11.7-18.6c-5.2-6.2-11.2-11.6-17.9-16.2c0,0,20.8,5.5,35.2,18.6s21.5,26.1,24.9,34.4s4,11.2,4,11.2
							C221.6,100,216.2,94,209.8,89.2 M107.5,53.4c10.1-11.4,16-11.4,16-11.4s-2,2.2-6.2,11c-2.3,4.5-4.1,9.3-5.4,14.2
							c-2.2,0.2-4.5,0.5-6.7,1c-4.1,0.8-8.4,2.2-8.4,2.2C99.6,64.2,103.2,58.5,107.5,53.4 M126.9,51.5c1.5-5.6,4.2-11.4,7.9-11.4
							c3.7,0,6,6.2,7.8,10.9c1.8,4.8,3.7,14.4,3.7,14.4s-6-0.6-11-0.6c-4.3,0-11.3,0.5-11.3,0.5S125.4,57.1,126.9,51.5 M168.2,69.1
							c-7.3-1.7-12.5-2.5-12.5-2.5c-1.1-5.2-2.8-10.2-4.9-15c-2-4.3-4.5-8.4-7.3-12.3c0,0,12.2-0.8,24.6,12.9
							C178.9,64.2,183.2,74,183.2,74C178.3,72,173.3,70.4,168.2,69.1 M35.2,130.2v8.2c2.3,54.8,48.5,97.3,103.3,95.1
							c54.8-2.3,97.3-48.5,95.1-103.3S185,32.8,130.2,35.1C78.6,37.2,37.3,78.6,35.2,130.2"/>
					</defs>
					<clipPath id="SVGID_10_">
						<use xlink:href="#SVGID_9_"  style="overflow:visible;"/>
					</clipPath>
					<g class="st40">
						
							<radialGradient id="SVGID_11_" cx="-993.004" cy="269.8594" r="1" gradientTransform="matrix(99.49 0 0 -99.49 98929.0312 26981.7422)" gradientUnits="userSpaceOnUse">
							<stop  offset="0" style="stop-color:#FFFFFF"/>
							<stop  offset="1" style="stop-color:#E5E5E4"/>
						</radialGradient>
						<rect x="35.2" y="35.1" class="st41" width="198.4" height="198.5"/>
					</g>
				</g>
				<g>
					<defs>
						<rect id="SVGID_12_" x="-8.8" y="-8.8" width="286.3" height="286.3"/>
					</defs>
					<clipPath id="SVGID_13_">
						<use xlink:href="#SVGID_12_"  style="overflow:visible;"/>
					</clipPath>
					<g class="st42">
						<path class="st43" d="M97.7,112c11.7-1.4,23.5-2.1,35.4-2.1c11.5-0.1,23.1,0.7,34.5,2.2c0,0-16.9-0.5-34.3-0.5
							S97.7,112,97.7,112"/>
						<path class="st43" d="M157.1,97c0,0,2.6,20.2,2.6,36.4c-0.1,11.4-0.9,22.7-2.2,34c0,0,0.5-19.6,0.5-33.9S157.1,97,157.1,97"/>
						<path class="st43" d="M119.5,63.8c0,0-8.5,28.6-8.5,67.2c0,44.2,8.5,66.3,8.5,66.3c-2.7-21.9-4.2-43.9-4.4-66
							C115.3,108.7,116.7,86.1,119.5,63.8"/>
						<path class="st43" d="M60.4,147.3c0,0,10.1,3.2,30,4.9s65.7,2.3,83.2,0.8s31-3.5,31-3.5s-24.4,9.3-65.1,9.5
							C84.3,159.3,60.5,147.3,60.4,147.3"/>
						<path class="st43" d="M98.7,56.2c0,0-20.4,26.1-20.4,76.4c0,57.3,27.1,86.8,27.1,86.8s-35.1-26.3-35.1-86.9
							C70.3,83.5,98.7,56.2,98.7,56.2"/>
						<path class="st43" d="M85.9,212.4c0,0,19.4,10.8,50.3,10.8s52.5-12.9,52.5-12.9s-24.2,16.9-52.5,16.9S85.9,212.4,85.9,212.4"
							/>
						<path class="st43" d="M65.5,196.6c0,0-18.9-25.4-18.9-61.3c0-34.3,14-57.8,14-57.8S42.2,100.1,42.2,135
							C42.2,171.1,65.5,196.6,65.5,196.6"/>
						<path class="st43" d="M48.8,162.7c0,0,16,14.5,36.7,20.3c16.4,4.6,33.4,6.9,50.4,6.8c13.4,0,36.3-1.9,50.6-7.1
							c10.4-3.9,20.4-8.9,29.8-14.9c-9,9.5-20,16.9-32.2,21.7c-19.9,7.5-32.2,9.5-49.1,9.5c-20.3,0.2-40.3-4.7-58.3-14.2
							C58.6,175.3,48.8,162.7,48.8,162.7"/>
						<path class="st44" d="M51.7,149.7c0.8-0.1,1.5-0.3,2.3-0.5c0.6-0.2,1.2-0.4,1.8-0.6l1.8-0.8v-5.9h-0.7
							c-0.3,0.3-0.7,0.6-1.2,0.9c-0.5,0.4-1,0.7-1.5,1c-0.7,0.4-1.4,0.8-2.1,1c-0.7,0.2-1.5,0.3-2.3,0.3c-0.8,0-1.7-0.1-2.5-0.4
							c-0.8-0.3-1.6-0.7-2.3-1.3c-0.7-0.7-1.3-1.5-1.7-2.4c-0.8-2.5-0.8-5.2,0-7.6c0.3-0.9,0.9-1.8,1.6-2.5c0.6-0.6,1.4-1.1,2.2-1.4
							c0.8-0.3,1.7-0.4,2.6-0.4c0.8,0,1.5,0.1,2.3,0.4c0.7,0.2,1.4,0.5,2,0.9c0.6,0.3,1.1,0.7,1.6,1.1c0.5,0.4,0.9,0.7,1.2,0.9h0.7
							v-6c-0.4-0.2-1-0.5-1.6-0.7c-0.7-0.3-1.3-0.5-2-0.7c-0.8-0.2-1.5-0.4-2.3-0.5c-0.9-0.1-1.9-0.2-2.8-0.2
							c-1.8,0-3.5,0.3-5.2,0.9c-1.5,0.5-2.9,1.4-4,2.5c-1.1,1.2-2,2.6-2.5,4.1c-1.2,3.5-1.2,7.4,0,10.9c1.1,3,3.5,5.4,6.6,6.4
							c1.6,0.6,3.4,0.8,5.1,0.8C49.8,149.9,50.7,149.8,51.7,149.7z"/>
						<path class="st44" d="M74,144.8c-1.5,0.6-3.2,0.6-4.7,0c-0.8-0.3-1.4-0.8-1.9-1.4c-0.6-0.7-1.1-1.6-1.3-2.5
							c-0.4-1.2-0.5-2.5-0.5-3.8c0-1.3,0.2-2.6,0.5-3.8c0.3-0.9,0.7-1.8,1.4-2.6c0.5-0.6,1.2-1.1,2-1.4c0.7-0.3,1.5-0.4,2.3-0.4
							c0.8,0,1.6,0.2,2.3,0.4c0.8,0.3,1.5,0.8,2,1.4c0.6,0.7,1.1,1.6,1.3,2.5c0.4,1.2,0.5,2.5,0.5,3.8c0,1.2-0.1,2.4-0.4,3.6
							c-0.3,1-0.7,1.9-1.4,2.7C75.5,143.9,74.8,144.4,74,144.8z M81,127.6c-2.3-2.3-5.4-3.4-9.4-3.4s-7.1,1.2-9.3,3.5
							c-2.2,2.3-3.4,5.5-3.4,9.4s1.1,7.1,3.4,9.4c2.3,2.3,5.4,3.5,9.3,3.5c4,0,7.1-1.2,9.4-3.5s3.4-5.4,3.4-9.4S83.2,129.9,81,127.6
							L81,127.6z"/>
						<polygon class="st44" points="105.2,144.6 93.8,144.6 93.8,124.7 87.4,124.7 87.4,149.4 105.2,149.4 						"/>
						<path class="st44" d="M128.8,124.7h-6.4v15.4c0.1,1.4-0.3,2.8-1.1,3.9c-0.9,0.9-2.2,1.3-3.5,1.2c-1.3,0.1-2.6-0.3-3.5-1.3
							c-0.8-1.1-1.2-2.5-1.1-3.8v-15.4h-6.4v15.8c-0.2,2.6,0.9,5.2,2.8,7c1.9,1.6,4.6,2.4,8.2,2.4s6.4-0.8,8.2-2.4
							c1.9-1.8,3-4.4,2.8-7L128.8,124.7z"/>
						<polygon class="st44" points="158.8,124.7 151.4,124.7 145.9,137.1 140.3,124.7 132.9,124.7 132.9,149.4 138.9,149.4 
							138.9,132.8 143.5,143.6 147.9,143.6 152.5,132.8 152.5,149.4 158.8,149.4 						"/>
						<path class="st44" d="M177.4,143.3c-0.3,0.5-0.8,0.9-1.4,1.1c-0.7,0.3-1.4,0.4-2.1,0.4h-4.3v-6.2h4.1c0.7,0,1.4,0.1,2.1,0.2
							c0.6,0.1,1.2,0.5,1.5,1c0.3,0.5,0.5,1.2,0.5,1.8C177.8,142.3,177.7,142.8,177.4,143.3z M176,133c-0.2,0.5-0.6,0.8-1.1,1
							c-0.5,0.2-1.1,0.3-1.7,0.3c-0.7,0-1.6,0-2.6,0h-1v-5.2h3.6c0.6,0,1.2,0.1,1.7,0.3c0.5,0.2,0.9,0.5,1.1,0.9
							c0.2,0.4,0.3,0.8,0.3,1.2C176.3,132.1,176.2,132.6,176,133L176,133z M183,137.8c-1-1.1-2.4-1.8-3.8-2v-0.1
							c1.1-0.4,2-1.2,2.7-2.1c1.2-1.8,1.3-4,0.3-5.9c-0.5-0.8-1.2-1.5-2.1-1.9c-0.9-0.4-1.8-0.7-2.8-0.9c-1.5-0.2-2.9-0.2-4.4-0.2
							h-9.6v24.7h10.8c1.5,0,3-0.1,4.4-0.5c1.2-0.3,2.3-0.8,3.2-1.6c0.8-0.6,1.5-1.4,2-2.3c0.5-1,0.7-2.1,0.7-3.2
							C184.5,140.3,184,138.9,183,137.8L183,137.8z"/>
						<path class="st44" d="M209,124.7h-6.4v15.4c0.1,1.4-0.3,2.8-1.1,3.9c-0.9,0.9-2.2,1.3-3.5,1.2c-1.3,0.1-2.6-0.3-3.5-1.3
							c-0.8-1.1-1.2-2.5-1.1-3.8v-15.4H187v15.8c-0.2,2.6,0.9,5.2,2.8,7c1.9,1.6,4.6,2.4,8.2,2.4c3.6,0,6.4-0.8,8.2-2.4
							c1.9-1.8,2.9-4.4,2.8-7V124.7z"/>
						<path class="st44" d="M231.5,137.4c-1.1-1.2-2.6-2.1-4.2-2.5c-1-0.3-1.9-0.6-2.7-0.7l-2.6-0.6c-1-0.1-1.9-0.5-2.8-0.9
							c-0.5-0.3-0.8-0.9-0.8-1.5c0-0.4,0.2-0.8,0.5-1.2c0.3-0.3,0.7-0.6,1.1-0.8c0.5-0.2,1-0.3,1.5-0.4c0.5-0.1,1.1-0.1,1.6-0.1
							c1.5,0,3,0.3,4.4,0.8c1.3,0.5,2.6,1.1,3.7,2h0.7v-5.7c-1.3-0.5-2.7-0.9-4.1-1.2c-1.6-0.3-3.2-0.5-4.8-0.5
							c-2.8-0.1-5.6,0.6-8,2.2c-3.2,2.2-4,6.5-1.9,9.7c0.1,0.1,0.1,0.1,0.2,0.2c1.2,1.3,2.8,2.3,4.5,2.8c1,0.3,1.9,0.6,2.9,0.7
							c1,0.2,2,0.4,3,0.6c0.7,0.1,1.4,0.4,2,0.9c0.4,0.3,0.7,0.9,0.7,1.4c0,0.5-0.1,1-0.5,1.3c-0.4,0.3-0.8,0.6-1.2,0.7
							c-0.5,0.2-1,0.3-1.5,0.3c-0.5,0.1-1,0.1-1.5,0.1c-1.6,0-3.2-0.3-4.7-0.8c-1.6-0.5-3.1-1.4-4.4-2.4h-0.7v5.9
							c1.4,0.6,2.8,1,4.3,1.4c1.8,0.4,3.6,0.6,5.4,0.5c3.5,0,6.4-0.8,8.4-2.3c2-1.3,3.1-3.6,3.1-5.9
							C232.9,140.1,232.4,138.6,231.5,137.4z"/>
					</g>
				</g>
				<path class="st1" d="M48.8,149.9c-1.7,0-3.5-0.3-5.1-0.8c-3.1-1-5.5-3.4-6.6-6.4c-0.6-1.8-1-3.7-0.9-5.6c0-1.8,0.3-3.6,0.9-5.3
					c0.6-1.5,1.4-2.9,2.5-4.1c1.1-1.1,2.5-2,4-2.5c1.7-0.6,3.4-0.9,5.2-0.9c0.9,0,1.9,0.1,2.8,0.2c0.8,0.1,1.6,0.3,2.3,0.4
					c0.7,0.2,1.3,0.4,2,0.7c0.6,0.3,1.1,0.5,1.6,0.7v6h-0.7c-0.3-0.3-0.7-0.6-1.2-0.9c-0.5-0.4-1-0.7-1.6-1.1
					c-0.6-0.4-1.3-0.7-2-0.9c-0.7-0.3-1.5-0.4-2.3-0.4c-0.9,0-1.7,0.1-2.6,0.4c-0.8,0.3-1.6,0.8-2.2,1.4c-0.7,0.7-1.2,1.6-1.6,2.5
					c-0.8,2.5-0.8,5.2,0,7.6c0.4,0.9,0.9,1.8,1.7,2.4c0.6,0.6,1.4,1,2.3,1.3c0.8,0.3,1.6,0.4,2.5,0.4c0.8,0,1.6-0.1,2.3-0.3
					c0.7-0.2,1.4-0.6,2.1-1c0.5-0.3,1-0.6,1.5-1c0.5-0.4,0.8-0.7,1.2-0.9h0.7v5.9l-1.8,0.8c-0.6,0.2-1.2,0.5-1.8,0.6
					c-0.7,0.2-1.5,0.4-2.3,0.5C50.7,149.8,49.7,149.9,48.8,149.9z"/>
				<path class="st1" d="M84.4,137c0,3.9-1.1,7.1-3.4,9.4c-2.3,2.3-5.4,3.5-9.4,3.5c-4,0-7.1-1.2-9.3-3.5S59,141,58.9,137
					c0-4,1.1-7.1,3.4-9.4s5.4-3.4,9.3-3.4c4,0,7.1,1.2,9.3,3.5S84.4,133.1,84.4,137z M76,143.3c0.6-0.8,1.1-1.7,1.4-2.7
					c0.3-1.2,0.5-2.4,0.4-3.6c0-1.3-0.1-2.6-0.5-3.8c-0.3-0.9-0.7-1.8-1.3-2.5c-0.5-0.6-1.2-1.1-2-1.4c-0.7-0.3-1.5-0.5-2.3-0.4
					c-0.8,0-1.6,0.1-2.3,0.4c-0.8,0.3-1.5,0.8-2,1.4c-0.6,0.8-1.1,1.6-1.4,2.6c-0.4,1.2-0.5,2.5-0.5,3.8c0,1.3,0.1,2.5,0.5,3.8
					c0.3,0.9,0.7,1.8,1.3,2.5c0.5,0.6,1.2,1.1,1.9,1.4c1.5,0.6,3.2,0.6,4.7,0C74.7,144.4,75.4,143.9,76,143.3z"/>
				<path class="st1" d="M105.2,149.4H87.4v-24.7h6.4v19.9h11.4L105.2,149.4z"/>
				<path class="st1" d="M128.9,140.4c0.2,2.6-0.9,5.2-2.8,7c-1.9,1.6-4.6,2.4-8.2,2.4s-6.4-0.8-8.2-2.4c-1.9-1.8-2.9-4.4-2.8-7
					v-15.8h6.4v15.4c-0.1,1.4,0.3,2.7,1.1,3.8c0.9,0.9,2.2,1.4,3.5,1.3c1.3,0.1,2.6-0.3,3.5-1.2c0.8-1.1,1.2-2.5,1.1-3.9v-15.4h6.4
					V140.4z"/>
				<path class="st1" d="M158.9,149.4h-6.3v-16.6l-4.6,10.7h-4.4l-4.6-10.7v16.6h-6v-24.7h7.4l5.6,12.4l5.5-12.4h7.4L158.9,149.4z"
					/>
				<path class="st1" d="M184.5,141.8c0,1.1-0.2,2.2-0.7,3.2c-0.5,0.9-1.2,1.7-2,2.3c-1,0.7-2.1,1.2-3.2,1.6
					c-1.5,0.3-2.9,0.5-4.4,0.5h-10.8v-24.7h9.6c1.5,0,2.9,0,4.4,0.2c1,0.1,1.9,0.4,2.7,0.9c0.9,0.4,1.6,1.1,2.1,1.9
					c1,1.9,0.9,4.1-0.2,5.9c-0.7,0.9-1.6,1.7-2.7,2.1v0.1c1.5,0.2,2.8,0.9,3.9,2C184,138.9,184.5,140.3,184.5,141.8z M176.3,131.6
					c0-0.4-0.1-0.8-0.3-1.2c-0.2-0.4-0.6-0.8-1.1-0.9c-0.6-0.2-1.1-0.3-1.7-0.3h-3.5v5.2h1c1,0,1.9,0,2.6-0.1c0.6,0,1.1-0.1,1.7-0.3
					c0.5-0.2,0.9-0.5,1.1-1C176.2,132.6,176.3,132.1,176.3,131.6L176.3,131.6z M177.8,141.7c0-0.6-0.1-1.3-0.5-1.8
					c-0.4-0.5-0.9-0.8-1.5-0.9c-0.7-0.2-1.4-0.2-2.1-0.2h-4.1v6.2h4.4c0.7,0,1.5-0.1,2.1-0.4c0.6-0.2,1.1-0.6,1.4-1.1
					C177.8,142.8,177.9,142.3,177.8,141.7L177.8,141.7z"/>
				<path class="st1" d="M209,140.4c0.2,2.6-0.9,5.2-2.8,7c-1.9,1.6-4.6,2.4-8.2,2.4s-6.4-0.8-8.2-2.4c-1.9-1.8-2.9-4.4-2.8-7v-15.8
					h6.4v15.4c-0.1,1.4,0.3,2.7,1.1,3.8c0.9,0.9,2.2,1.4,3.5,1.3c1.3,0.1,2.6-0.3,3.5-1.2c0.8-1.1,1.2-2.5,1.1-3.9v-15.4h6.4V140.4z
					"/>
				<path class="st1" d="M232.9,141.6c0,2.4-1.1,4.6-3.1,5.9c-2.1,1.5-4.9,2.3-8.4,2.3c-1.8,0-3.6-0.2-5.4-0.5
					c-1.5-0.3-2.9-0.8-4.3-1.4V142h0.7c1.3,1.1,2.8,1.9,4.4,2.4c1.5,0.5,3.1,0.8,4.7,0.8c0.4,0,0.9,0,1.5-0.1c0.5,0,1-0.2,1.5-0.3
					c0.4-0.2,0.8-0.4,1.2-0.7c0.3-0.4,0.5-0.8,0.5-1.3c0-0.5-0.3-1.1-0.7-1.4c-0.6-0.5-1.3-0.8-2-0.9c-0.9-0.2-1.9-0.4-3-0.6
					c-1-0.2-2-0.4-2.9-0.7c-1.7-0.5-3.3-1.4-4.5-2.8c-0.9-1.2-1.4-2.8-1.4-4.3c0-2.3,1.2-4.4,3.1-5.6c2.4-1.6,5.2-2.3,8-2.2
					c1.6,0,3.2,0.2,4.8,0.5c1.4,0.3,2.8,0.7,4.1,1.2v5.7h-0.7c-1.1-0.9-2.3-1.5-3.7-2c-1.4-0.5-2.9-0.8-4.4-0.8
					c-0.5,0-1.1,0-1.6,0.1c-0.5,0.1-1,0.2-1.5,0.4c-0.4,0.2-0.8,0.4-1.1,0.8c-0.3,0.3-0.5,0.7-0.5,1.2c0,0.6,0.3,1.2,0.7,1.5
					c0.9,0.5,1.8,0.8,2.8,0.9l2.6,0.6c0.9,0.2,1.8,0.4,2.7,0.7c1.6,0.4,3.1,1.3,4.2,2.5C232.5,138.6,233,140.1,232.9,141.6z"/>
			</g>
		</g>
		<g>
			<g id="Ebene_1-2-2_8_">
				<g>
					<defs>
						<rect id="SVGID_14_" x="-8.8" y="-8.8" width="286.3" height="286.3"/>
					</defs>
					<clipPath id="SVGID_15_">
						<use xlink:href="#SVGID_14_"  style="overflow:visible;"/>
					</clipPath>
				</g>
				<g>
					<defs>
						<path id="SVGID_16_" d="M144.7,204.8c-0.3,2.4-0.8,4.7-1.5,6.9c-0.7,2.3-1.5,4.5-2.5,6.7c0,0-3.6,0.4-6.2,0.4
							s-5.9-0.4-5.9-0.4c-1.3-2.3-2.3-4.8-3-7.4c-0.9-3.7-1.1-6.1-1.1-6.1s5.2,0.4,10,0.4S144.7,204.8,144.7,204.8 M113.2,216.9
							c-1.5-0.3-3-0.7-4.5-1.1c-2.4-2.7-4.6-5.6-6.5-8.6c-2.7-4.3-4-6.8-4-6.8s4.7,1.1,7.3,1.7s7.4,1.2,7.4,1.2s1,3,2.5,6.8
							c1,2.5,2.1,4.9,3.3,7.2C116.9,217.3,115,217.2,113.2,216.9 M152.4,211.1c1.5-4.2,2.6-7.2,2.6-7.2s8.5-1.4,14.3-2.9
							c3.9-1,7.8-2.3,11.6-3.9c0,0-1,2-3,5.1c-1.9,2.8-3.9,5.5-6.1,8.1c-1.5,1.9-2.1,2.8-6.5,4.2s-15.2,3.2-15.2,3.2
							S150.9,215.2,152.4,211.1 M76.9,202.2c-4.5-2.9-8.3-6.8-10.9-11.5l-5.2-9.1c0,0,4.8,3.9,7.9,5.8s8,4.7,8,4.7s2.1,3.9,4.2,7.2
							L87,208C87,208,81.2,204.9,76.9,202.2 M185.8,200.4c1.6-2.4,4.2-7.2,4.2-7.2s6.9-3.8,13-7.6c8.6-5.4,16.8-15,16.8-15
							c-4.4,9-10.4,17.1-17.8,23.9c-12.1,11.1-22.3,14.8-22.3,14.8S184.2,202.8,185.8,200.4 M150.5,164.6c0,0-0.1,3.5-0.6,9
							s-1.2,10.4-1.2,10.4s-4.7,0.6-11.6,0.7s-15.2-0.3-15.2-0.3c-0.6-3.6-0.9-7.2-1.1-10.8c-0.1-5-0.4-8.9-0.4-8.9
							s9.7,0.4,15.1,0.4C141,164.9,150.5,164.6,150.5,164.6 M98.2,181.1c-4.9-1.1-8.6-2.3-8.6-2.3s-1.3-4.5-2.2-9l-1.7-9.1
							c0,0,4.4,1,8.8,1.6s10.6,1,10.6,1s0.3,3.3,1.1,10.4s1.7,9.1,1.7,9.1S103.2,182.2,98.2,181.1 M161.1,172.2
							c0.6-4.6,0.8-8.6,0.8-8.6s8.9-1,16.4-2c5.3-0.8,10.6-1.9,15.8-3.2c-0.4,2.8-0.9,5.7-1.6,8.5c-1,4-2.5,8.6-2.5,8.6
							c-5.1,2-10.3,3.6-15.6,4.8c-7.4,1.4-14.7,2.8-14.7,2.8S160.6,176.7,161.1,172.2 M59.9,165.5c-2.5-1.7-4.8-3.6-7-5.7
							c0,0-0.7-2.9-1-4.6c-0.4-2.1-0.8-5.4-0.8-5.4c2,1.2,4.2,2.2,6.4,3.1c2.8,1.1,7.4,2.6,7.4,2.6s0.5,3.5,1.3,7.3s2.1,7.5,2.1,7.5
							C65.4,169,62.6,167.4,59.9,165.5 M200.2,164c0.8-3.5,1.4-7.3,1.4-7.3s9.2-3.2,13.4-5.1c4-2.1,7.9-4.4,11.7-6.9
							c0,0,0.5,1.8-3.2,7c-3.7,5.4-8.4,10-13.9,13.7c-3.6,2.4-7.4,4.7-11.3,6.6C198.3,172,199.4,167.4,200.2,164 M203.2,133.4
							c-0.1-5.4-0.3-10.5-0.3-10.5s11.3,2.5,16.7,5c7.1,3.3,9.3,7.4,1.1,11.3c-5.6,2.7-11.5,4.5-17.7,5.2
							C203,144.4,203.3,138.8,203.2,133.4 M57.6,142.8c-2.8-0.6-7.4-2-7.4-2l0.2-14.4c0,0,3.4-1.2,6.4-2.1s7-1.7,7-1.7
							s-0.5,5.8-0.5,10.6s0.4,11,0.4,11S60.3,143.3,57.6,142.8 M163.3,133.2c0-7.8-0.5-15.6-0.5-15.6s7.2,0.2,17.2,1.4
							c10,1.2,15.6,2.4,15.6,2.4c0.5,3.7,0.7,7.4,0.7,11.1c0,6.8-0.5,12.6-0.5,12.6s-5.6,1-16.2,1.9s-16.6,1.1-16.6,1.1
							S163.3,141,163.3,133.2 M95.1,147.6c-5-0.2-10.8-1-10.8-1s-0.4-5.3-0.3-13s0.6-14.3,0.6-14.3s5-0.7,9.4-1s9.7-1,9.7-1
							s-0.1,8.6-0.1,16.5s0.5,14.2,0.5,14.2S100.2,147.8,95.1,147.6 M120,148.4c0,0-0.2-7.6-0.1-16.4s0.2-15.2,0.2-15.2
							s10.7-0.2,16.2-0.2c5.4,0,15.4,0.5,15.4,0.5s0.2,8,0.3,14.7s-0.2,16.7-0.2,16.7s-6.6,0.2-14.9,0.2S120,148.4,120,148.4
							 M53,107.7c1.8-7.8,3.1-10.5,3.1-10.5s3.4-2.7,8.2-6c2.2-1.7,4.6-3.1,7.1-4.4c-1.7,4.7-3.1,9.5-4.2,14.4
							c-1,4.1-1.9,8.3-2.5,12.6c0,0-2.6,0.6-6.3,1.8s-7.2,2.8-7.2,2.8S51.2,115.5,53,107.7 M214.5,116.7c-4.1-1.6-8.4-2.9-12.7-3.8
							c-0.8-5.3-1.9-10.6-3.3-15.9c-1-3.7-2.3-7.3-3.8-10.9c0,0,13.1,6.2,22.7,17.3c9.6,11.1,11.8,21,11.8,21
							C224.5,121.6,219.6,119,214.5,116.7 M176.8,108.3c-9.5-1.2-14.8-1.6-14.8-1.6s-0.3-6.7-1.8-17.1c-1.5-10.5-2.6-15.3-2.6-15.3
							c5.5,0.8,10.9,2,16.2,3.6c7.5,2.5,13.2,5,13.2,5c2.1,4.8,3.7,9.8,4.9,14.9c1.7,7.7,2.7,13.4,2.7,13.4S186.3,109.5,176.8,108.3
							 M88.4,93.3c2.2-10.2,4.9-15.4,4.9-15.4c2.6-0.9,5.2-1.6,7.9-2.2c4.7-1,8.7-1.6,8.7-1.6s-1.2,5.4-2.8,14s-2.4,18.6-2.4,18.6
							l-8.8,0.8c-5.5,0.5-10.5,1.4-10.5,1.4S86.3,103.5,88.4,93.3 M121.7,86.2c0.7-7.4,1.3-13.5,1.3-13.5c4.2-0.4,8.4-0.6,12.5-0.5
							c6.5,0.2,12.1,0.8,12.1,0.8s1.1,6.7,2.2,16.3c1.1,9.7,1.1,16.3,1.1,16.3s-8.4-0.4-15.3-0.4s-15.2,0.6-15.2,0.6
							S121,93.5,121.7,86.2 M75.2,65.8c6.5-7.1,14.2-12.9,22.8-17.1c-4.5,4-8.6,8.4-12.4,13.1C81.5,67.1,78,72.8,75.3,79
							c0,0-2.8,1.4-7.3,4.1c-2.9,1.8-5.7,3.7-8.4,5.8C63.8,80.5,69.1,72.8,75.2,65.8 M209.8,89.2c-5.8-4.5-12-8.4-18.5-11.8
							c-3.1-6.7-7-13-11.7-18.6c-5.2-6.2-11.2-11.6-17.9-16.2c0,0,20.8,5.5,35.2,18.6s21.5,26.1,24.9,34.4s4,11.2,4,11.2
							C221.6,100,216.2,94,209.8,89.2 M107.5,53.4c10.1-11.4,16-11.4,16-11.4s-2,2.2-6.2,11c-2.3,4.5-4.1,9.3-5.4,14.2
							c-2.2,0.2-4.5,0.5-6.7,1c-4.1,0.8-8.4,2.2-8.4,2.2C99.6,64.2,103.2,58.5,107.5,53.4 M126.9,51.5c1.5-5.6,4.2-11.4,7.9-11.4
							c3.7,0,6,6.2,7.8,10.9c1.8,4.8,3.7,14.4,3.7,14.4s-6-0.6-11-0.6c-4.3,0-11.3,0.5-11.3,0.5S125.4,57.1,126.9,51.5 M168.2,69.1
							c-7.3-1.7-12.5-2.5-12.5-2.5c-1.1-5.2-2.8-10.2-4.9-15c-2-4.3-4.5-8.4-7.3-12.3c0,0,12.2-0.8,24.6,12.9
							C178.9,64.2,183.2,74,183.2,74C178.3,72,173.3,70.4,168.2,69.1 M35.2,130.2v8.2c2.3,54.8,48.5,97.3,103.3,95.1
							c54.8-2.3,97.3-48.5,95.1-103.3S185,32.8,130.2,35.1C78.6,37.2,37.3,78.6,35.2,130.2"/>
					</defs>
					<clipPath id="SVGID_17_">
						<use xlink:href="#SVGID_16_"  style="overflow:visible;"/>
					</clipPath>
				</g>
				<g>
					<defs>
						<rect id="SVGID_18_" x="-8.8" y="-8.8" width="286.3" height="286.3"/>
					</defs>
					<clipPath id="SVGID_19_">
						<use xlink:href="#SVGID_18_"  style="overflow:visible;"/>
					</clipPath>
				</g>
			</g>
		</g>
	</g>
</g>
</svg>
