<svg xmlns="http://www.w3.org/2000/svg" viewBox="0 0 121.21 110.41"><defs><style>.cls-1{fill:#6ab02e;}.cls-2{fill:#fff;}</style></defs><title>bbf</title><g id="Ebene_2" data-name="Ebene 2"><g id="Ebene_1-2" data-name="Ebene 1"><path class="cls-1" d="M115.48,34.24l5.73-6.2h-5.75V26.88h-2.18V23.24l2.11-3.1L78,20.17l.5-2.25-1.78,0V17h-3.6l.49-.72a4.18,4.18,0,0,0,.43-.73,4.2,4.2,0,0,0,.13-2c-.09-.9-.31-1.73-.48-2.67a8.35,8.35,0,0,1-.17-1.35c0-.42.29-.3.54-.65a4,4,0,0,0,.53-2.09c0-.31.17-.55,0-.83s-.47-.71-.78-.61-.38.33-.5.49A5.37,5.37,0,0,0,71.8,8.51a5,5,0,0,1-.35,1.5,3.69,3.69,0,0,1-.94,1.08c-1.36.56-1.71,1.42-1.73,2.9a2.67,2.67,0,0,1-.22.71,1,1,0,0,1-1.26.44c-.38-.24-.18-.84-.21-1.28a10.45,10.45,0,0,1,.09-1.34,9.25,9.25,0,0,0-.49-3.14,5,5,0,0,1-.29-2c.14-1,1-2.07.59-3.05a.58.58,0,0,0-.14-.22A.53.53,0,0,0,66.56,4a1.33,1.33,0,0,0-1.34.94A7.41,7.41,0,0,0,65,6.66a2,2,0,0,1-.79,1.52c-.51.31-1.6.25-1.65-.34,0-.41.55-1.09.26-1.38s-.48-.14-.73-.2c-.62-.16-.82-.93-.91-1.56a2.88,2.88,0,0,1,.26-2.14c.36-.48,1-.78,1.11-1.38S61.76,0,61.08,0a1.3,1.3,0,0,0-1.23.47,1.24,1.24,0,0,0,.11,1.2,7.42,7.42,0,0,1,.63,1.09A2.72,2.72,0,0,1,60.65,4a8.18,8.18,0,0,1-1.25,3.5,3.14,3.14,0,0,0-.61,1.25,5.63,5.63,0,0,0,.08,1.05,1,1,0,0,1-.35.95,31.31,31.31,0,0,1,0-3.58,3.5,3.5,0,0,0-.09-1.24,1.11,1.11,0,0,0-.87-.8,1.19,1.19,0,0,0-1.13,1c-.14.52.2,1.12.17,1.66-.07,1.27-1,2.43-.95,3.7A25.34,25.34,0,0,1,56,14.35c0,.32-.2.71-.52.72s-.55-.58-.56-1a4.05,4.05,0,0,0-1-2.65c-.49-.51-1.41-.66-1.65-1.33C51.64,8.32,51.22,6.91,49.88,6a1.31,1.31,0,0,0-.92.16.31.31,0,0,0,0,.17l0,2.13a1.3,1.3,0,0,0,.14.68c.22.34.72.45.85.83s-.16.71-.27,1.07a7.71,7.71,0,0,0,0,1.65,9.18,9.18,0,0,1-.23,1c-.21,1.09.27,2.22.31,3.31H46.08v1.14l-2-.11.61,2.08H7.12l2.72,3.3,0,3.77H7.48l.06,1H1.68l5.69,6.13L7.28,84.85h6.66V40.18l12.54,0V84.85h6.66V40.21l12.1,0V84.85H51.9V40.23l18.2,0V84.85h6.66V40.27l12.32,0V84.85h6.66V40.3l13,0V84.85h6.66Z"/><path class="cls-2" d="M112.91,92.26H92c-2.6,0-3,.71-3.18,1.43l-1.6,6H79.44l1.41-5.05,2.88-10.8c.53-2,3.15-3.3,5.67-3.3h30.46l-1.2,4.69H94.39c-4.91,0-4.91,2.78,0,2.78H114ZM47,95H65.73c4.91,0,4.91-2.78,0-2.78h-18Zm1.85-7H67.13c4.92,0,4.91-2.78,0-2.78H49.62Zm-6.18,0h0l.73-2.78h0l1.22-4.65H71.19a22.24,22.24,0,0,1,2.68,0,8.85,8.85,0,0,1,4.7,1.72c3,2.4,1.45,6.53-4.11,7.9,7.47,1.67,3.32,9.51-4.51,9.51H39.64l.53-2h0l.63-2.41.06-.24.73-2.78h0ZM7.4,95H26.09c4.91,0,4.91-2.78,0-2.78h-18Zm1.85-7H27.49c4.92,0,4.91-2.78,0-2.78H10ZM3.07,88h0l.73-2.78h0L5,80.54H31.55a22.26,22.26,0,0,1,2.68,0,8.86,8.86,0,0,1,4.7,1.72c3,2.4,1.44,6.53-4.11,7.9,7.47,1.67,3.32,9.51-4.51,9.51H0l.53-2h0l.63-2.41L1.23,95,2,92.22H2Z"/><path class="cls-2" d="M4.75,110.31l1.16-5.53H7.62a4.62,4.62,0,0,1,.69,0,1.73,1.73,0,0,1,.62.22,1.08,1.08,0,0,1,.39.44,1.35,1.35,0,0,1,.14.61,1.33,1.33,0,0,1-.25.8,1.53,1.53,0,0,1-.77.53,1.33,1.33,0,0,1,.67.44,1.12,1.12,0,0,1,.22.69,1.63,1.63,0,0,1-.26.88,1.79,1.79,0,0,1-.69.65,2,2,0,0,1-1,.23Zm.87-.63H6.88a4.28,4.28,0,0,0,.67,0,1.48,1.48,0,0,0,.57-.21,1,1,0,0,0,.34-.38,1.06,1.06,0,0,0,.13-.5.72.72,0,0,0-.24-.59,1.52,1.52,0,0,0-.93-.2H6Zm.53-2.54H7.27a2,2,0,0,0,1.16-.26.87.87,0,0,0,.35-.75.73.73,0,0,0-.11-.4.64.64,0,0,0-.29-.25,2,2,0,0,0-.69-.08H6.51Z"/><path class="cls-2" d="M13.87,110.31,15,104.78h.74l-1.15,5.53Z"/><path class="cls-2" d="M19.78,110.31l1.15-5.53h.74l-.55,2.66,3-2.66h1L22.59,107l1.88,3.28h-.83l-1.59-2.8-1.16,1-.38,1.8Z"/><path class="cls-2" d="M28.8,110.31,30,104.78h4l-.13.63H30.56l-.36,1.72h3.17l-.13.63H30.07l-.4,1.92h3.48l-.13.63Z"/><path class="cls-2" d="M52.65,108.13l.13-.63H55.2l-.47,2.25a4.36,4.36,0,0,1-1,.47,3.86,3.86,0,0,1-1.15.18,2.2,2.2,0,0,1-1.8-.73,2.42,2.42,0,0,1-.5-1.58,3.76,3.76,0,0,1,.44-1.81,3,3,0,0,1,1.11-1.21,2.9,2.9,0,0,1,1.49-.39,2.52,2.52,0,0,1,1.06.21,1.72,1.72,0,0,1,.72.57,2.39,2.39,0,0,1,.36.93l-.72.08a1.47,1.47,0,0,0-.49-.87,1.43,1.43,0,0,0-.94-.3,2.07,2.07,0,0,0-1.12.33,2.25,2.25,0,0,0-.83,1,3.46,3.46,0,0,0-.31,1.5,1.75,1.75,0,0,0,.41,1.26,1.51,1.51,0,0,0,1.14.43,3.14,3.14,0,0,0,1.55-.48l.25-1.19Z"/><path class="cls-2" d="M59.7,110.31l1.16-5.53h4l-.13.63H61.47l-.36,1.72h3.17l-.13.63H61l-.4,1.92h3.48l-.13.63Z"/><path class="cls-2" d="M68.73,110.31l1.16-5.53h2.32a3.59,3.59,0,0,1,1,.11,1,1,0,0,1,.56.43,1.46,1.46,0,0,1,.2.8,1.53,1.53,0,0,1-.44,1.12,2.43,2.43,0,0,1-1.43.58,2.07,2.07,0,0,1,.46.44,5,5,0,0,1,.56,1l.42,1h-.83l-.4-1a4.84,4.84,0,0,0-.49-1,1,1,0,0,0-.38-.37,1.68,1.68,0,0,0-.64-.09H70l-.51,2.46Zm1.38-3.06h1l.92,0a1.79,1.79,0,0,0,.69-.19,1.08,1.08,0,0,0,.42-.4,1,1,0,0,0,.15-.54.79.79,0,0,0-.11-.42.56.56,0,0,0-.29-.24,2,2,0,0,0-.6-.06H70.5Z"/><path class="cls-2" d="M78.15,110.31l1.15-5.53h.91l.56,3.58a13.28,13.28,0,0,1,.14,1.35,14.68,14.68,0,0,1,.77-1.51l1.94-3.42h.92l-1.15,5.53h-.73l.58-2.69a21.66,21.66,0,0,1,.57-2.09q-.24.54-.59,1.16l-2.06,3.62h-.71l-.55-3.55a11.18,11.18,0,0,1-.11-1.13q-.1.73-.18,1.15l-.74,3.53Z"/><path class="cls-2" d="M88,110.31l3.13-5.53H92l.91,5.53h-.72l-.27-1.59H89.65l-.89,1.59Zm2-2.16H91.8l-.22-1.39q-.12-.83-.15-1.38a10.08,10.08,0,0,1-.55,1.13Z"/><path class="cls-2" d="M97.5,110.31l1.16-5.53h.72l.93,2.07q.43,1,.67,1.6.14.38.33,1,.1-.7.26-1.44l.68-3.25H103l-1.15,5.53h-.73l-1.37-3.2q-.37-.84-.57-1.49-.06.54-.22,1.32l-.7,3.36Z"/><path class="cls-2" d="M108.72,110.31l.45-2.14-1.7-3.39h.79l.82,1.61q.27.53.52,1.13a7.88,7.88,0,0,1,.76-1.12l1.3-1.62h.88l-2.64,3.45-.43,2.08Z"/></g></g></svg>