<?xml version="1.0" encoding="utf-8"?>
<!-- Generator: Adobe Illustrator 23.0.3, SVG Export Plug-In . SVG Version: 6.00 Build 0)  -->
<svg version="1.1" id="Ebene_1" xmlns="http://www.w3.org/2000/svg" xmlns:xlink="http://www.w3.org/1999/xlink" x="0px" y="0px"
	 viewBox="0 0 453.54 226.77" style="enable-background:new 0 0 453.54 226.77;" xml:space="preserve">
<style type="text/css">
	.st0{fill:#004063;}
	.st1{fill:#589126;}
	.st2{fill:#B7D198;}
	.st3{fill:#E76F02;}
</style>
<path class="st0" d="M75.07,106.91c-5.94,4.23-13.09,6.34-21.25,6.34H22c-1.31,0-2.41-0.4-3.32-1.31c-0.91-0.91-1.41-2.12-1.41-3.43
	V74.59c0-1.31,0.5-2.52,1.41-3.42c0.91-0.91,2.01-1.41,3.32-1.41h31.92c8.16,0,15.21,2.11,21.15,6.24
	c5.94,4.13,8.96,9.37,8.96,15.51C84.03,97.65,81.01,102.78,75.07,106.91 M66.71,81.43c-4.33-3.12-9.67-4.63-15.81-4.63H27.34
	c-0.3,0-0.5,0.2-0.5,0.6v28.4c0,0.3,0.2,0.5,0.61,0.5H50.7c6.24,0,11.58-1.61,16.01-4.73c4.13-2.92,6.24-6.34,6.24-10.07
	C72.95,87.78,70.84,84.36,66.71,81.43"/>
<path class="st0" d="M162.57,111.75c-0.9,1.01-2.11,1.51-3.42,1.51c-1.41,0-2.72-0.7-4.03-2.21l-4.13-4.83
	c-1.41-1.61-2.82-2.42-4.13-2.42l-32.83,0.1c-1.61,0-3.12,0.81-4.43,2.52l-3.32,4.23c-1.41,1.71-2.82,2.62-4.33,2.62
	c-1.31,0-2.42-0.5-3.33-1.41c-1-1.01-1.51-2.11-1.51-3.42c0-1.11,0.6-2.42,1.71-3.73l27.89-33.13c1.01-1.21,2.31-1.81,3.92-1.81
	c1.41,0,2.62,0.61,3.73,1.92l27.79,33.03c1.21,1.41,1.81,2.62,1.81,3.73C163.98,109.73,163.48,110.84,162.57,111.75 M139.81,92.92
	l-8.06-9.47c-0.3-0.4-0.7-0.6-1.21-0.6s-0.91,0.2-1.21,0.6l-8.15,9.47c-0.2,0.2-0.3,0.5-0.3,1c0,1.11,0.5,1.61,1.51,1.61h16.21
	c1.01,0,1.51-0.51,1.51-1.61C140.12,93.52,140.01,93.22,139.81,92.92"/>
<path class="st0" d="M244.03,111.85c-0.9,0.91-2.11,1.41-3.42,1.41c-1.31,0-2.42-0.4-3.32-1.31c-0.9-0.91-1.4-2.12-1.4-3.42
	l-0.1-11.28c0-1.01-0.5-1.51-1.51-1.51h-44.51c-1.11,0-1.61,0.5-1.61,1.61v11.18c0,1.3-0.5,2.42-1.31,3.32
	c-0.9,0.91-2.11,1.41-3.42,1.41c-1.31,0-2.52-0.4-3.42-1.31c-0.91-0.91-1.41-2.12-1.41-3.42V74.59c0-1.31,0.5-2.52,1.41-3.42
	c1.01-0.91,2.11-1.41,3.42-1.41c1.31,0,2.42,0.5,3.32,1.41c0.91,0.91,1.41,2.11,1.41,3.42v11.28c0,1.01,0.5,1.51,1.61,1.51h44.51
	c1.1,0,1.61-0.5,1.61-1.51V74.59c0-1.31,0.5-2.52,1.4-3.42c0.91-0.91,2.02-1.41,3.32-1.41c1.31,0,2.52,0.5,3.42,1.31
	c0.91,0.91,1.41,2.11,1.41,3.42v34.04C245.44,109.83,244.94,110.94,244.03,111.85"/>
<path class="st0" d="M420.25,111.75c-0.91,1.01-2.12,1.51-3.43,1.51h-1.71c-0.8,0-2.11-0.6-3.82-1.71
	c-0.91-0.6-16.61-10.17-46.92-28.8v25.68c0,1.31-0.5,2.52-1.41,3.42c-0.9,0.91-2.01,1.41-3.32,1.41c-1.31,0-2.52-0.4-3.42-1.31
	c-0.91-0.91-1.41-2.12-1.41-3.43V74.59c0-1.31,0.5-2.52,1.41-3.42c1.01-0.91,2.11-1.41,3.42-1.41h1.71c0.71,0,2.01,0.5,3.72,1.61
	l47.03,28.7V74.59c0-1.31,0.5-2.52,1.41-3.42c0.91-0.91,2.01-1.41,3.32-1.41c1.31,0,2.52,0.5,3.43,1.31c0.9,0.91,1.4,2.11,1.4,3.42
	v33.93C421.66,109.73,421.16,110.84,420.25,111.75"/>
<path class="st0" d="M440.55,111.39c-1.28,1.28-2.83,1.92-4.64,1.92s-3.36-0.64-4.63-1.92c-1.27-1.28-1.9-2.83-1.9-4.64
	c0-1.8,0.64-3.34,1.92-4.61c1.27-1.27,2.81-1.91,4.61-1.91c1.81,0,3.36,0.64,4.64,1.91c1.29,1.27,1.92,2.81,1.92,4.61
	C442.47,108.56,441.83,110.11,440.55,111.39 M431.92,102.78c-1.1,1.1-1.65,2.43-1.65,3.98c0,1.57,0.54,2.91,1.64,4.01
	c1.09,1.11,2.43,1.66,3.99,1.66c1.57,0,2.9-0.55,4-1.66c1.1-1.1,1.65-2.44,1.65-4.01c0-1.56-0.55-2.88-1.65-3.98
	c-1.1-1.11-2.43-1.66-4-1.66C434.35,101.12,433.02,101.67,431.92,102.78 M435.78,103.15c0.89,0,1.55,0.09,1.97,0.26
	c0.75,0.31,1.12,0.92,1.12,1.82c0,0.64-0.23,1.12-0.7,1.42c-0.25,0.16-0.59,0.27-1.04,0.35c0.56,0.09,0.98,0.32,1.24,0.7
	c0.26,0.38,0.39,0.75,0.39,1.11v0.53c0,0.17,0,0.34,0.02,0.53c0.01,0.19,0.03,0.31,0.06,0.37l0.04,0.09h-1.18
	c-0.01-0.02-0.01-0.05-0.02-0.07c-0.01-0.02-0.01-0.05-0.02-0.08l-0.03-0.23v-0.57c0-0.83-0.23-1.38-0.68-1.64
	c-0.27-0.15-0.74-0.23-1.42-0.23h-1.01v2.82h-1.26v-7.17H435.78z M437.15,104.29c-0.32-0.18-0.83-0.27-1.54-0.27h-1.09v2.6h1.15
	c0.54,0,0.94-0.05,1.21-0.16c0.5-0.19,0.75-0.57,0.75-1.12C437.63,104.82,437.47,104.47,437.15,104.29"/>
<path class="st1" d="M285.36,81.34l-12.79-12.79c-4.37,5.33-7.23,11.94-7.94,19.17h18.08C287.68,87.73,288.88,84.85,285.36,81.34"/>
<path class="st1" d="M282.72,94.89h-18.09c0.71,7.24,3.57,13.85,7.95,19.18l12.79-12.79C288.89,97.77,287.69,94.89,282.72,94.89"/>
<path class="st1" d="M290.43,106.37l-12.78,12.77c5.33,4.36,11.93,7.22,19.17,7.94v-18.06
	C296.82,104.04,293.94,102.85,290.43,106.37"/>
<path class="st1" d="M290.43,76.28c3.51,3.51,6.39,2.32,6.39-2.65V55.55c-7.24,0.72-13.85,3.57-19.18,7.94L290.43,76.28z"/>
<path class="st2" d="M310.37,76.29l12.79-12.79c-5.33-4.37-11.94-7.23-19.18-7.94v18.08C303.98,78.61,306.85,79.8,310.37,76.29"/>
<path class="st2" d="M315.43,101.29l12.79,12.78c4.36-5.33,7.22-11.94,7.94-19.17h-18.08C313.12,94.89,311.92,97.77,315.43,101.29"
	/>
<path class="st2" d="M318.09,87.73h18.07c-0.72-7.23-3.58-13.84-7.94-19.16l-12.78,12.78C311.93,84.85,313.12,87.73,318.09,87.73"/>
<path class="st2" d="M303.98,109.01v18.07c7.24-0.71,13.84-3.58,19.18-7.94l-12.78-12.77C306.86,102.85,303.98,104.04,303.98,109.01
	"/>
<path class="st3" d="M175.67,142.65h-2.74v-2.03h2.74c0.06-2.45,0.26-6.57,6.77-6.64v2.09c-4.58,0-4.51,2.9-4.51,4.54h4.51v2.03
	h-4.51v15.59h-2.26V142.65z"/>
<path class="st3" d="M184.38,140.62h2.26v2.54h0.06c1.06-2.48,3.06-2.87,4.96-3v2.38c-1.58,0.13-2.93,0.71-3.8,1.74
	c-0.77,0.97-1.22,2.22-1.22,3.64v10.31h-2.26V140.62z"/>
<path class="st3" d="M194.26,150.25c0.16,3.45,3.38,6.38,6.83,6.38c3.22-0.06,5.51-1.97,6.32-4.16h2.38
	c-1.22,3.51-4.61,6.19-8.67,6.19c-4.93,0-9.18-4-9.18-9.22c0-4.99,4.03-9.18,9.15-9.28c3.87,0.03,6.61,2.32,7.86,4.51
	c1.19,1.9,1.45,3.87,1.35,5.57H194.26z M208.01,148.22c-0.71-4.16-4.09-6.03-6.9-6.03c-2.77,0-6.22,1.87-6.86,6.03H208.01z"/>
<path class="st3" d="M214.83,150.25c0.16,3.45,3.38,6.38,6.83,6.38c3.22-0.06,5.51-1.97,6.31-4.16h2.39
	c-1.22,3.51-4.61,6.19-8.67,6.19c-4.93,0-9.18-4-9.18-9.22c0-4.99,4.03-9.18,9.15-9.28c3.86,0.03,6.6,2.32,7.86,4.51
	c1.19,1.9,1.45,3.87,1.35,5.57H214.83z M228.59,148.22c-0.71-4.16-4.09-6.03-6.9-6.03c-2.77,0-6.22,1.87-6.86,6.03H228.59z"/>
<path class="st3" d="M251.75,158.24h-2.26v-3.09h-0.06c-1.87,2.8-4.99,3.51-6.86,3.51c-5.54,0-9.47-4.22-9.47-9.28
	c0-4.7,3.71-9.22,9.47-9.22c1.93,0,4.96,0.71,6.86,3.48h0.06v-9.25h2.26V158.24z M242.56,156.63c3.8,0,7.06-3.06,7.06-7.19
	c0-3.87-3-7.25-7.06-7.25c-3.87,0-7.22,2.8-7.22,7.28C235.34,153.41,238.25,156.63,242.56,156.63"/>
<path class="st3" d="M264.18,140.17c5.22,0,9.25,4.41,9.25,9.25c0,4.8-3.96,9.25-9.25,9.25c-5.16,0-9.18-4.35-9.18-9.12
	C254.99,143.97,259.54,140.17,264.18,140.17 M264.21,156.63c3.42,0,6.96-2.71,6.96-7.31c0-4.64-3.93-7.12-6.96-7.12
	c-3.22,0-6.96,2.64-6.96,7.31C257.25,153.6,260.57,156.63,264.21,156.63"/>
<path class="st3" d="M276.58,140.62h2.26v2.03l-0.06-0.06v0.06h0.06c1-1.74,3.16-2.48,4.8-2.48c1.48,0,4.61,0.68,5.93,3.38
	c1.32-2.71,4.45-3.38,5.93-3.38c2.71,0,7.06,1.61,7.06,7.6v10.47h-2.26v-10.21c0-1.93-0.36-2.87-0.81-3.67
	c-0.74-1.26-2.09-2.16-4-2.16c-1.9,0-3.25,0.9-3.99,2.16c-0.45,0.81-0.81,1.74-0.81,3.67v10.21h-2.25v-10.21
	c0-1.93-0.36-2.87-0.81-3.67c-0.74-1.26-2.09-2.16-4-2.16c-1.9,0-3.25,0.9-4,2.16c-0.45,0.81-0.8,1.74-0.8,3.67v10.21h-2.26V140.62z
	"/>
<path class="st3" d="M331.03,158.24h-2.13v-2.74h-0.06c-0.64,1.32-2.35,3.16-5.64,3.16c-3.48,0-5.28-1.68-6.06-2.64
	c-1.26-1.55-1.55-3.8-1.55-5.67v-9.73h2.26v9.7c0,2.22,0.48,3.67,1.26,4.64c1.22,1.39,2.87,1.68,4.09,1.68
	c1.26,0,2.61-0.29,3.74-1.42c1.03-1.03,1.84-2.19,1.84-5.28v-9.31h2.25V158.24z"/>
<path class="st3" d="M335.17,140.62h2.26v2.25h0.06c0.68-1.06,2.42-2.71,5.41-2.71c2.16,0,3.96,0.55,5.57,2.16
	c1.32,1.29,2.19,3.32,2.19,6.22v9.7h-2.25v-9.7c0-2.29-0.71-3.9-1.68-4.83c-1.22-1.19-2.83-1.51-3.83-1.51c-1,0-2.61,0.32-3.83,1.51
	c-0.97,0.93-1.68,2.55-1.64,4.83v9.7h-2.26V140.62z"/>
<path class="st3" d="M355.35,142.65h-2.74v-2.03h2.74c0.06-2.45,0.26-6.57,6.77-6.64v2.09c-4.57,0-4.51,2.9-4.51,4.54h4.51v2.03
	h-4.51v15.59h-2.26V142.65z"/>
<path class="st3" d="M371.6,140.17c5.22,0,9.25,4.41,9.25,9.25c0,4.8-3.96,9.25-9.25,9.25c-5.16,0-9.18-4.35-9.18-9.12
	C362.42,143.97,366.96,140.17,371.6,140.17 M371.64,156.63c3.41,0,6.96-2.71,6.96-7.31c0-4.64-3.93-7.12-6.96-7.12
	c-3.22,0-6.96,2.64-6.96,7.31C364.67,153.6,368,156.63,371.64,156.63"/>
<rect x="384.03" y="134.4" class="st3" width="2.26" height="23.84"/>
<path class="st3" d="M408.09,158.24h-2.26v-3.09h-0.06c-1.87,2.8-4.99,3.51-6.86,3.51c-5.54,0-9.47-4.22-9.47-9.28
	c0-4.7,3.71-9.22,9.47-9.22c1.93,0,4.96,0.71,6.86,3.48h0.06v-9.25h2.26V158.24z M398.91,156.63c3.8,0,7.06-3.06,7.06-7.19
	c0-3.87-3-7.25-7.06-7.25c-3.87,0-7.22,2.8-7.22,7.28C391.69,153.41,394.59,156.63,398.91,156.63"/>
<path class="st3" d="M413.37,153.02c0.06,3.35,2.35,3.61,3.16,3.61c2.13,0,3.29-1.26,3.29-3.16c0-2.42-2.19-2.96-3.51-3.51
	c-1.8-0.61-4.67-1.58-4.67-4.9c0-2.48,1.77-4.9,5.03-4.9c2.64,0,4.83,2.03,4.8,4.8h-2.26c-0.16-2.16-1.64-2.77-2.64-2.77
	c-1.8,0-2.67,1.45-2.67,2.64c0,1.87,1.87,2.51,3.16,2.93c2.06,0.68,5.03,1.8,5.03,5.45c0.03,3.03-1.8,5.45-5.54,5.45
	c-2.45,0-5.51-1.68-5.41-5.64H413.37z"/>
</svg>
