<?xml version="1.0" encoding="utf-8"?>
<!-- Generator: Adobe Illustrator 24.0.2, SVG Export Plug-In . SVG Version: 6.00 Build 0)  -->
<svg version="1.1" id="Layer_1" xmlns="http://www.w3.org/2000/svg" xmlns:xlink="http://www.w3.org/1999/xlink" x="0px" y="0px"
	 viewBox="0 0 280 46" style="enable-background:new 0 0 280 46;" xml:space="preserve">
<style type="text/css">
	.st0{fill-rule:evenodd;clip-rule:evenodd;fill:#2E2E2E;}
</style>
<title>logo/kalkhoff/PureFreedom/dekstop</title>
<desc>Created with Sketch.</desc>
<g id="khElements">
	<g id="HeaderNavigation_x2F_1920" transform="translate(-1480.000000, -36.000000)">
		<g id="HeaderNavigation">
			<g id="logo_x2F_kalkhoff_x2F_PureFreedom_x2F_dark" transform="translate(1480.000000, 36.000000)">
				<g id="logo_x2F_kalkhoff_x2F_PureFreedom" transform="translate(0.000107, 0.097063)">
					<path id="KALKHOFF" class="st0" d="M171.1,38c1.9,0,3.4,1.7,3.4,3.9c0,2.2-1.5,3.9-3.4,3.9c-1.9,0-3.4-1.7-3.4-3.9
						C167.7,39.7,169.2,38,171.1,38z M171.1,38.8c-1.5,0-2.7,1.3-2.7,3.1c0,1.8,1.2,3.1,2.7,3.1c1.5,0,2.7-1.3,2.7-3.1
						C173.8,40.1,172.6,38.8,171.1,38.8z M65,37.9c1.4,0,2.4,0.9,2.4,2.2c0,1.2-1,2.2-2.4,2.2h-2v2.6h-0.8v-6.9H65z M73.3,37.9V42
						c0,1.2,0.9,2.1,1.9,2.1c1,0,1.9-0.9,1.9-2.1v-4.1h0.7V42c0,1.5-1.2,2.8-2.6,2.8c-1.4,0-2.6-1.3-2.6-2.8v-4.1H73.3z M87.5,37.9
						c1.3,0,2.2,0.9,2.2,2.1c0,1.6-1.5,2-1.5,2l1.7,2.9H89L87.5,42h-2v2.8h-0.8v-6.9H87.5z M100.1,37.9v0.7h-4.3v2.3h3.4v0.7h-3.4
						v2.6h4.4v0.7h-5.2v-6.9H100.1z M115.8,37.9v0.7h-4.4v2.4h3.5v0.7h-3.5v3.2h-0.8v-6.9H115.8z M125.5,37.9c1.3,0,2.2,0.9,2.2,2.1
						c0,1.6-1.5,2-1.5,2l1.7,2.9H127l-1.6-2.8h-2v2.8h-0.8v-6.9H125.5z M139.9,37.9v0.7h-4.3v2.3h3.4v0.7h-3.4v2.6h4.4v0.7h-5.2
						v-6.9H139.9z M148.5,37.9v0.7h-4.3v2.3h3.4v0.7h-3.4v2.6h4.4v0.7h-5.2v-6.9H148.5z M157.5,37.9c1.8,0,3.2,1.6,3.2,3.5
						c0,1.9-1.4,3.5-3.2,3.5h-1.9v-6.9H157.5z M182.1,37.9l2.8,3.7l2.8-3.7h0.6v6.9h-0.7v-5.6l-2.7,3.6l-2.7-3.6v5.6h-0.7v-6.9
						H182.1z M157.5,38.6h-1.3v5.5h1.3c1.5,0,2.6-1.2,2.6-2.8C160.1,39.8,159,38.6,157.5,38.6z M65,38.6h-2v3h2c1,0,1.6-0.6,1.6-1.5
						C66.6,39.2,66,38.6,65,38.6z M87.5,38.6h-2.1v2.8h2.1c0.9,0,1.4-0.5,1.4-1.4C88.9,39.1,88.4,38.6,87.5,38.6z M125.5,38.6h-2.1
						v2.8h2.1c0.9,0,1.4-0.5,1.4-1.4C126.9,39.1,126.4,38.6,125.5,38.6z M64.6,6.8v11.7L75.8,6.8h2.9l-8.2,8.6l9,12.1h-2.8L68.9,17
						l-4.3,4.4v6.1h-2.3V6.8H64.6z M98.7,6.8l8.5,20.7h-2.3l-2.3-5.8h-9.7l-2.3,5.8h-2.3l8.5-20.7H98.7z M121.6,6.8v18.6h11.4v2.1
						h-13.8V6.8H121.6z M145.8,6.8v11.7L157,6.8h2.9l-8.2,8.6l9,12.1h-2.8L150.1,17l-4.3,4.4v6.1h-2.3V6.8H145.8z M175.2,6.8V16
						h12.5V6.8h2.4v20.7h-2.4v-9.5h-12.5v9.5h-2.4V6.8H175.2z M252.3,6.8v2.1h-11.6V16h9.3v2.1h-9.3v9.5h-2.2V6.8H252.3z M214.3,6.8
						c2.9,0,5.3,1,7.3,3s3,4.5,3,7.3c0,2.9-1,5.3-3,7.3s-4.5,3-7.3,3c-2.9,0-5.3-1-7.3-3s-3-4.5-3-7.3c0-2.9,1-5.3,3-7.3
						S211.4,6.8,214.3,6.8z M279.8,6.9v2.1H267V16h10.2v2.1H267v9.4h-2.4V6.9H279.8z M214.3,8.8c-2.3,0-4.3,0.8-5.8,2.4
						c-1.6,1.6-2.4,3.6-2.4,5.9c0,2.4,0.8,4.3,2.4,5.9c1.6,1.6,3.5,2.4,5.8,2.4c2.3,0,4.3-0.8,5.8-2.4c1.6-1.6,2.4-3.6,2.4-5.9
						c0-2.4-0.8-4.3-2.4-5.9C218.6,9.6,216.6,8.8,214.3,8.8z M97.7,9.9l-4,9.8h7.9L97.7,9.9z"/>
					<path id="sign" class="st0" d="M23.6,30l-10.8-15L23.5,3.6c5.1,2.3,8.7,7.4,8.7,13.3C32.2,22.7,28.7,27.7,23.6,30L23.6,30z
						 M3.3,22.3c-0.7-1.7-1.1-3.5-1.1-5.4c0-8.1,6.7-14.7,15-14.7c1.5,0,2.9,0.3,4.2,0.7L3.3,22.3z M17.2,0C7.7,0,0,7.5,0,16.8
						c0,3.3,1,6.3,2.7,8.9l8.7-9.1l11.5,16c6.7-2.3,11.5-8.5,11.5-15.8C34.4,7.5,26.7,0,17.2,0L17.2,0z"/>
				</g>
			</g>
		</g>
	</g>
</g>
</svg>
