<svg xmlns="http://www.w3.org/2000/svg" viewBox="0 0 473.6 42.85"><defs><style>.cls-1{fill:#fff;}</style></defs><title>panther-sz</title><g id="Ebene_2" data-name="Ebene 2"><g id="Ebene_1-2" data-name="Ebene 1"><path class="cls-1" d="M422.19,17.14h42.28V8.57H422.19Zm0,25.71h-9.14V0H473.6V25.71H465l8.56,17.14h-10l-8.57-17.14H422.19ZM404.48,25.71H354.76v8.57h49.72v8.57H345.63V0h58.85V8.57H354.76v8.57h49.72ZM285.07,42.85h-9.14V0h9.14V17.14h42.85V0h9.14V42.85h-9.14V25.71H285.07ZM207.94,0h60V8.57H242.5V42.85h-9.13V8.57H207.94ZM138.82,0H148L190.8,32.14V0h9.14V42.85H190.8L148,10.71V42.85h-9.13ZM78.26,17.14h42.85V8.57H78.26Zm0,25.71H69.13V0h61.12V42.85h-9.14V25.71H78.26ZM9.14,17.14H51.42V8.57H9.14Zm0,25.71H0V0H60.56V25.71H9.14Z"/></g></g></svg>